<?xml version="1.0" encoding="utf-8"?>
<!-- Generator: Adobe Illustrator 19.2.1, SVG Export Plug-In . SVG Version: 6.00 Build 0)  -->
<svg version="1.1" id="Layer_1" xmlns="http://www.w3.org/2000/svg" xmlns:xlink="http://www.w3.org/1999/xlink" x="0px" y="0px"
	 viewBox="0 0 230 230" style="enable-background:new 0 0 230 230;" xml:space="preserve">
<style type="text/css">
	.st0{opacity:0.9;fill:#9E1D21;enable-background:new    ;}
	.st1{opacity:0.85;fill:#008294;enable-background:new    ;}
</style>
<g>
	<path class="st0" d="M42.1,209.3V230H20.7H0v-41.4h20.7v17c0,0,0,3.4,4.4,3.4C29.9,209.3,42.1,209.3,42.1,209.3z"/>
	<path class="st1" d="M187.9,209.3V230H230v-20.7v-20.7h-20.7v17c0,0,0,3.4-4.4,3.4C200.1,209.3,187.9,209.3,187.9,209.3z"/>
	<path class="st1" d="M42.1,20.7V0H0l0,0v41.4h20.7v-17c0,0,0-3.5,4.4-3.5S42.1,20.7,42.1,20.7z"/>
	<path class="st0" d="M187.9,20.7V0h21.4H230v41.4h-20.7v-17c0,0,0-3.5-4.4-3.5C200.8,20.7,187.9,20.7,187.9,20.7z"/>
</g>
</svg>
