<svg xmlns="http://www.w3.org/2000/svg" viewBox="0 0 123 40"><circle cx="81.5" cy="27" r="3" fill="#9e1d20"/><path d="M9.3 8.1h4.2v25.5c0 4-3.3 6-6.7 6-4.2 0-6.4-2.4-6.4-5.5 0 0 0-1.5.4-2.3h3.8c-.3.6-.3 1.5-.3 1.8 0 1.6 1.2 2.4 2.5 2.4 1.4 0 2.6-.8 2.6-2.6V8.1zm-.8-4.9c0 1.6 1.2 2.9 2.9 2.9s2.9-1.2 2.9-2.9S13 .3 11.3.3 8.5 1.6 8.5 3.2zM32.8 27.1c-.7 1-1.7 1.7-2.9 2.2-1.2.5-2.4.7-3.7.7-.8 0-1.6-.1-2.4-.3-.8-.2-1.5-.6-2.2-1.1-.7-.5-1.2-1.1-1.6-1.9-.4-.8-.6-1.7-.6-2.9 0-2.1.7-3.8 2.2-5.1 1.5-1.3 3.6-1.9 6.5-1.9h1.4c.5 0 1 .1 1.4.1.5 0 .9.1 1.2.1.3 0 .6.1.7.1v-.7c0-1.5-.4-2.5-1.3-3.2-.9-.6-2.1-1-3.6-1s-2.7.2-3.6.6c-.9.4-1.6.8-2.2 1.3l-1.8-2.6c.3-.3.8-.6 1.2-.9.5-.3 1-.5 1.7-.8.7-.2 1.4-.4 2.2-.6.8-.2 1.8-.2 2.9-.2 2.6 0 4.6.6 6 1.9 1.5 1.2 2.2 3 2.2 5.3v13.2h-3.6l-.1-2.3zm0-7c-.1 0-.3-.1-.7-.1-.3 0-.7-.1-1.1-.1-.4 0-.9-.1-1.4-.1h-1.4c-1.1 0-2 .1-2.6.4-.7.3-1.2.6-1.6 1-.4.4-.6.8-.8 1.3-.1.5-.2.9-.2 1.3 0 1.1.4 1.9 1.1 2.4.7.6 1.8.8 3.1.8.7 0 1.4-.1 2.1-.4.7-.3 1.3-.6 1.8-1s.9-.9 1.2-1.5c.3-.6.5-1.1.5-1.7v-2.3zM43.4 12.9h-3.6V9.7h3.6V3.2h3.8v6.5H53v3.2h-5.8v9.8c0 1.6.2 2.7.7 3.3.5.6 1.2.9 2.1.9.7 0 1.3-.1 1.8-.3.5-.2 1-.6 1.4-1l1.7 2.3c-.8.8-1.7 1.4-2.5 1.7-.9.4-1.9.5-3.1.5-2.1 0-3.6-.6-4.6-1.7-1-1.1-1.5-2.9-1.5-5.3V12.9zM70.4 27.1c-.7 1-1.7 1.7-2.9 2.2-1.2.5-2.4.7-3.7.7-.8 0-1.6-.1-2.4-.3-.8-.2-1.5-.6-2.2-1.1-.7-.5-1.2-1.1-1.6-1.9-.4-.8-.6-1.7-.6-2.9 0-2.1.7-3.8 2.2-5.1 1.5-1.3 3.6-1.9 6.5-1.9h1.4c.5 0 1 .1 1.4.1.5 0 .9.1 1.2.1.3 0 .6.1.7.1v-.7c0-1.5-.4-2.5-1.3-3.2-.9-.6-2.1-1-3.6-1s-2.7.2-3.6.6c-.9.4-1.6.8-2.2 1.3l-1.8-2.6c.3-.3.8-.6 1.2-.9.5-.3 1-.5 1.7-.8.7-.2 1.4-.4 2.2-.6.8-.2 1.8-.2 2.9-.2 2.6 0 4.6.6 6 1.9 1.5 1.2 2.2 3 2.2 5.3v13.2h-3.6l-.1-2.3zm0-7c-.1 0-.3-.1-.7-.1-.3 0-.7-.1-1.1-.1-.4 0-.9-.1-1.4-.1h-1.4c-1.1 0-2 .1-2.6.4-.7.3-1.2.6-1.6 1-.4.4-.6.8-.8 1.3-.1.5-.2.9-.2 1.3 0 1.1.4 1.9 1.1 2.4.7.6 1.8.8 3.1.8.7 0 1.4-.1 2.1-.4.7-.3 1.3-.6 1.8-1s.9-.9 1.2-1.5c.3-.6.5-1.1.5-1.7v-2.3z" fill="#36374c"/><path d="M89.2 29.2v-18-1.9h3.7l.1 3.2c.2-.3.5-.7.9-1.1.4-.4.8-.8 1.3-1.1.5-.3 1.1-.6 1.8-.9.7-.2 1.5-.4 2.4-.4.4 0 .8 0 1.2.1.4.1.7.1 1 .3l-.9 3.6c-.5-.2-1.2-.3-2-.3s-1.6.2-2.3.5c-.7.3-1.3.7-1.8 1.3-.5.6-.9 1.2-1.2 1.9-.3.7-.4 1.5-.4 2.4v10.5h-3.8zM104.6 9.4h3.8V21c0 1.9.4 3.2 1.2 4.1.8.8 1.9 1.3 3.3 1.3 1.1 0 2-.2 2.8-.7.7-.5 1.3-1 1.8-1.8.5-.7.8-1.6 1-2.5.2-.9.3-1.9.3-2.8V9.4h3.8v19.9h-3.7l-.1-3c-.3.3-.6.7-.9 1.1-.4.4-.8.8-1.4 1.1s-1.2.6-1.9.8c-.7.2-1.5.3-2.4.3-2.6 0-4.5-.7-5.7-2.2-1.2-1.5-1.8-3.5-1.8-6.1V9.4z" fill="#9e1d20"/></svg>