<?xml version="1.0" encoding="utf-8"?>
<!-- Generator: Adobe Illustrator 19.2.1, SVG Export Plug-In . SVG Version: 6.00 Build 0)  -->
<svg version="1.1" id="Layer_1" xmlns="http://www.w3.org/2000/svg" xmlns:xlink="http://www.w3.org/1999/xlink" x="0px" y="0px"
	 viewBox="0 0 208 61" style="enable-background:new 0 0 208 61;" xml:space="preserve">
<circle style="fill:#9E1D21;" cx="166.7" cy="37.6" r="3"/>
<path style="opacity:0.85;fill:#008294;" d="M43,49c0,0-1.3-1.3-1.4-1.4c-0.3-0.3-0.6,0.1-0.5,0c0.5-0.5-1.4,1.4-1.4,1.4
	S41.4,50.6,43,49z"/>
<path style="fill:#9E1D21;" d="M28,46c1.5-1.5,0-2.8,0-2.8s-1,1-1.1,1.1c-0.2,0.2-0.1,0.4,0,0.5C27,44.9,28,46,28,46z"/>
<path style="fill:#158598;" d="M28.8,43.4c0.3,0.3,0.8,0.9,0.9,0.9c0.1,0.1,0.2,0.3,0,0.5C29.5,45,28.6,46,28.6,46
	C29.8,44.8,29.2,43.8,28.8,43.4z"/>
<path style="fill:#9E1D21;" d="M28.6,21.3c-1.5,1.5,0,2.8,0,2.8l1.4-1.4L28.6,21.3z"/>
<path style="opacity:0.85;fill:#008294;" d="M28.3,21c-1.7,1.7,0,3.3,0,3.3l-1.7-1.7L28.3,21z"/>
<path style="opacity:0.85;fill:#008294;" d="M13.2,27.9c-1.5,1.5,0,2.8,0,2.8s1-1,1.1-1.1c0.1-0.1,0.2-0.4,0-0.6
	C14.1,28.8,13.2,27.9,13.2,27.9z"/>
<path style="fill:#9E1D21;" d="M52.1,27.9c1.5,1.5,0,2.8,0,2.8l-1.4-1.4L52.1,27.9z"/>
<path style="fill:#9E1D21;" d="M35.5,14.2c1.5-1.5,2.8,0,2.8,0l-1.4,1.4L35.5,14.2z"/>
<path style="opacity:0.85;fill:#008294;" d="M29.5,34.4l0.2,0.2c0.4,0.4,1,0.4,1.4,0l0.2-0.2c0.4-0.4,0.4-1,0-1.4l-0.2-0.2
	c-0.4-0.4-1-0.4-1.4,0L29.5,33C29.1,33.4,29.1,34,29.5,34.4z"/>
<path style="opacity:0.85;fill:#008294;" d="M27.4,36.6l0.2,0.2c0.4,0.4,1,0.4,1.4,0l0.2-0.2c0.4-0.4,0.4-1,0-1.4L29,34.9
	c-0.4-0.4-1-0.4-1.4,0l-0.2,0.2C27,35.6,27,36.2,27.4,36.6z"/>
<path style="opacity:0.85;fill:#008294;" d="M25.2,34.4l0.2,0.2c0.4,0.4,1,0.4,1.4,0l0.2-0.2c0.4-0.4,0.4-1,0-1.4l-0.2-0.2
	c-0.4-0.4-1-0.4-1.4,0L25.2,33C24.8,33.4,24.8,34,25.2,34.4z"/>
<path style="opacity:0.85;fill:#008294;" d="M27.4,32.2l0.2,0.2c0.4,0.4,1,0.4,1.4,0l0.2-0.2c0.4-0.4,0.4-1,0-1.4L29,30.5
	c-0.4-0.4-1-0.4-1.4,0l-0.2,0.2C27,31.2,27,31.8,27.4,32.2z"/>
<path style="opacity:0.85;fill:#008294;" d="M25.1,29.9l0.2,0.2c0.4,0.4,1,0.4,1.4,0l0.2-0.2c0.4-0.4,0.4-1,0-1.4l-0.2-0.2
	c-0.4-0.4-1-0.4-1.4,0l-0.2,0.2C24.7,28.9,24.7,29.6,25.1,29.9z"/>
<path style="opacity:0.85;fill:#008294;" d="M22.9,27.8l0.2,0.2c0.4,0.4,1,0.4,1.4,0l0.2-0.2c0.4-0.4,0.4-1,0-1.4l-0.2-0.2
	c-0.4-0.4-1-0.4-1.4,0l-0.2,0.2C22.5,26.7,22.5,27.4,22.9,27.8z"/>
<path style="opacity:0.85;fill:#008294;" d="M25.1,25.5l0.2,0.2c0.4,0.4,1,0.4,1.4,0l0.2-0.2c0.4-0.4,0.4-1,0-1.4l-0.2-0.2
	c-0.4-0.4-1-0.4-1.4,0l-0.2,0.2C24.8,24.5,24.8,25.1,25.1,25.5z"/>
<path style="opacity:0.85;fill:#008294;" d="M27.3,27.7l0.2,0.2c0.4,0.4,1,0.4,1.4,0l0.2-0.2c0.4-0.4,0.4-1,0-1.4L29,26.1
	c-0.4-0.4-1-0.4-1.4,0l-0.2,0.2C26.9,26.7,26.9,27.3,27.3,27.7z"/>
<path style="opacity:0.85;fill:#008294;" d="M29.6,30l0.2,0.2c0.4,0.4,1,0.4,1.4,0l0.2-0.2c0.4-0.4,0.4-1,0-1.4l-0.2-0.2
	c-0.4-0.4-1-0.4-1.4,0l-0.2,0.2C29.2,28.9,29.2,29.6,29.6,30z"/>
<path style="fill:#158598;" d="M31.8,32.2l0.2,0.2c0.4,0.4,1,0.4,1.4,0l0.2-0.2c0.4-0.4,0.4-1,0-1.4l-0.2-0.2c-0.4-0.4-1-0.4-1.4,0
	l-0.2,0.2C31.4,31.1,31.4,31.8,31.8,32.2z"/>
<path style="opacity:0.85;fill:#008294;" d="M33.9,34.3l0.2,0.2c0.4,0.4,1,0.4,1.4,0l0.2-0.2c0.4-0.4,0.4-1,0-1.4l-0.2-0.2
	c-0.4-0.4-1-0.4-1.4,0l-0.2,0.2C33.6,33.3,33.6,33.9,33.9,34.3z"/>
<path style="opacity:0.85;fill:#008294;" d="M36.1,36.5l0.2,0.2c0.4,0.4,1,0.4,1.4,0l0.2-0.2c0.4-0.4,0.4-1,0-1.4l-0.2-0.2
	c-0.4-0.4-1-0.4-1.4,0l-0.2,0.2C35.7,35.5,35.7,36.1,36.1,36.5z"/>
<path style="opacity:0.85;fill:#008294;" d="M31.7,36.5l0.2,0.2c0.4,0.4,1,0.4,1.4,0l0.2-0.2c0.4-0.4,0.4-1,0-1.4l-0.2-0.2
	c-0.4-0.4-1-0.4-1.4,0l-0.2,0.2C31.3,35.5,31.3,36.2,31.7,36.5z"/>
<path style="opacity:0.85;fill:#008294;" d="M29.5,38.7l0.2,0.2c0.4,0.4,1,0.4,1.4,0l0.2-0.2c0.4-0.4,0.4-1,0-1.4l-0.2-0.2
	c-0.4-0.4-1-0.4-1.4,0l-0.2,0.2C29.1,37.7,29.1,38.4,29.5,38.7z"/>
<path style="opacity:0.85;fill:#008294;" d="M31.7,40.9l0.2,0.2c0.4,0.4,1,0.4,1.4,0l0.2-0.2c0.4-0.4,0.4-1,0-1.4l-0.2-0.2
	c-0.4-0.4-1-0.4-1.4,0l-0.2,0.2C31.3,39.9,31.3,40.5,31.7,40.9z"/>
<path style="opacity:0.85;fill:#008294;" d="M29.6,43.1l0.2,0.2c0.4,0.4,1,0.4,1.4,0l0.2-0.2c0.4-0.4,0.4-1,0-1.4l-0.2-0.2
	c-0.4-0.4-1-0.4-1.4,0l-0.2,0.2C29.2,42.1,29.2,42.7,29.6,43.1z"/>
<path style="opacity:0.85;fill:#008294;" d="M31.7,45.3l0.2,0.2c0.4,0.4,1,0.4,1.4,0l0.2-0.2c0.4-0.4,0.4-1,0-1.4l-0.2-0.2
	c-0.4-0.4-1-0.4-1.4,0l-0.2,0.2C31.3,44.2,31.3,44.9,31.7,45.3z"/>
<path style="opacity:0.85;fill:#008294;" d="M29.5,47.5l0.2,0.2c0.4,0.4,1,0.4,1.4,0l0.2-0.2c0.4-0.4,0.4-1,0-1.4l-0.2-0.2
	c-0.4-0.4-1-0.4-1.4,0L29.5,46C29.1,46.4,29.1,47.1,29.5,47.5z"/>
<path style="opacity:0.85;fill:#008294;" d="M31.7,49.7l0.2,0.2c0.4,0.4,1,0.4,1.4,0l0.2-0.2c0.4-0.4,0.4-1,0-1.4L33.4,48
	c-0.4-0.4-1-0.4-1.4,0l-0.2,0.2C31.3,48.6,31.3,49.3,31.7,49.7z"/>
<path style="opacity:0.85;fill:#008294;" d="M33.9,47.5l0.2,0.2c0.4,0.4,1,0.4,1.4,0l0.2-0.2c0.4-0.4,0.4-1,0-1.4l-0.2-0.2
	c-0.4-0.4-1-0.4-1.4,0L33.9,46C33.5,46.4,33.5,47.1,33.9,47.5z"/>
<path style="opacity:0.85;fill:#008294;" d="M33.9,43.1l0.2,0.2c0.4,0.4,1,0.4,1.4,0l0.2-0.2c0.4-0.4,0.4-1,0-1.4l-0.2-0.2
	c-0.4-0.4-1-0.4-1.4,0l-0.2,0.2C33.5,42.1,33.5,42.7,33.9,43.1z"/>
<path style="opacity:0.85;fill:#008294;" d="M36.1,45.3l0.2,0.2c0.4,0.4,1,0.4,1.4,0l0.2-0.2c0.4-0.4,0.4-1,0-1.4l-0.2-0.2
	c-0.4-0.4-1-0.4-1.4,0l-0.2,0.2C35.7,44.3,35.7,44.9,36.1,45.3z"/>
<path style="opacity:0.85;fill:#008294;" d="M38.2,47.5l0.2,0.2c0.4,0.4,1,0.4,1.4,0l0.2-0.2c0.4-0.4,0.4-1,0-1.4l-0.2-0.2
	c-0.4-0.4-1-0.4-1.4,0L38.2,46C37.8,46.4,37.8,47.1,38.2,47.5z"/>
<path style="opacity:0.85;fill:#008294;" d="M40.4,45.3l0.2,0.2c0.4,0.4,1,0.4,1.4,0l0.2-0.2c0.4-0.4,0.4-1,0-1.4l-0.2-0.2
	c-0.4-0.4-1-0.4-1.4,0l-0.2,0.2C40,44.2,40,44.9,40.4,45.3z"/>
<path style="opacity:0.85;fill:#008294;" d="M43.4,45.1c0,0-1.3,1.3-1.4,1.4c-0.3,0.3,0.1,0.6,0,0.5c-0.5-0.5,1.4,1.4,1.4,1.4
	S45.1,46.7,43.4,45.1z"/>
<path style="opacity:0.85;fill:#008294;" d="M49.6,46.8c0,0-1.3-1.3-1.4-1.4c-0.3-0.3-0.6,0.1-0.5,0c0.5-0.5-1.4,1.4-1.4,1.4
	S48,48.4,49.6,46.8z"/>
<path style="opacity:0.85;fill:#008294;" d="M50.1,43c0,0-1.3,1.3-1.4,1.4c-0.3,0.3,0.1,0.6,0,0.5c-0.5-0.5,1.4,1.4,1.4,1.4
	S51.7,44.6,50.1,43z"/>
<path style="opacity:0.85;fill:#008294;" d="M56.3,44.5c0,0-1.3-1.3-1.4-1.4c-0.3-0.3-0.6,0.1-0.5,0c0.5-0.5-1.4,1.4-1.4,1.4
	S54.7,46.2,56.3,44.5z"/>
<path style="opacity:0.85;fill:#008294;" d="M56.8,40.7c0,0-1.3,1.3-1.4,1.4c-0.3,0.3,0.1,0.6,0,0.5c-0.5-0.5,1.4,1.4,1.4,1.4
	S58.4,42.3,56.8,40.7z"/>
<path style="opacity:0.85;fill:#008294;" d="M36.4,51.1c0,0-1.3-1.3-1.4-1.4c-0.3-0.3-0.6,0.1-0.5,0c0.5-0.5-1.4,1.4-1.4,1.4
	S34.8,52.8,36.4,51.1z"/>
<path style="opacity:0.85;fill:#008294;" d="M36.9,47.3c0,0-1.3,1.3-1.4,1.4c-0.3,0.3,0.1,0.6,0,0.5c-0.5-0.5,1.4,1.4,1.4,1.4
	S38.5,48.9,36.9,47.3z"/>
<path style="opacity:0.85;fill:#008294;" d="M38.3,43.1l0.2,0.2c0.4,0.4,1,0.4,1.4,0l0.2-0.2c0.4-0.4,0.4-1,0-1.4l-0.2-0.2
	c-0.4-0.4-1-0.4-1.4,0l-0.2,0.2C37.9,42.1,37.9,42.7,38.3,43.1z"/>
<path style="opacity:0.85;fill:#008294;" d="M42.7,43l0.2,0.2c0.4,0.4,1,0.4,1.4,0l0.2-0.2c0.4-0.4,0.4-1,0-1.4l-0.2-0.2
	c-0.4-0.4-1-0.4-1.4,0l-0.2,0.2C42.3,42,42.3,42.6,42.7,43z"/>
<path style="opacity:0.85;fill:#008294;" d="M44.8,45.2l0.2,0.2c0.4,0.4,1,0.4,1.4,0l0.2-0.2c0.4-0.4,0.4-1,0-1.4l-0.2-0.2
	c-0.4-0.4-1-0.4-1.4,0l-0.2,0.2C44.5,44.2,44.5,44.8,44.8,45.2z"/>
<path style="opacity:0.85;fill:#008294;" d="M47,43l0.2,0.2c0.4,0.4,1,0.4,1.4,0l0.2-0.2c0.4-0.4,0.4-1,0-1.4l-0.2-0.2
	c-0.4-0.4-1-0.4-1.4,0L47,41.6C46.7,42,46.7,42.6,47,43z"/>
<path style="opacity:0.85;fill:#008294;" d="M44.8,40.8l0.2,0.2c0.4,0.4,1,0.4,1.4,0l0.2-0.2c0.4-0.4,0.4-1,0-1.4l-0.2-0.2
	c-0.4-0.4-1-0.4-1.4,0l-0.2,0.2C44.5,39.8,44.5,40.5,44.8,40.8z"/>
<path style="opacity:0.85;fill:#008294;" d="M36.1,40.9l0.2,0.2c0.4,0.4,1,0.4,1.4,0l0.2-0.2c0.4-0.4,0.4-1,0-1.4l-0.2-0.2
	c-0.4-0.4-1-0.4-1.4,0l-0.2,0.2C35.7,39.9,35.7,40.5,36.1,40.9z"/>
<path style="opacity:0.85;fill:#008294;" d="M40.5,40.9l0.2,0.2c0.4,0.4,1,0.4,1.4,0l0.2-0.2c0.4-0.4,0.4-1,0-1.4l-0.2-0.2
	c-0.4-0.4-1-0.4-1.4,0l-0.2,0.2C40.1,39.9,40.1,40.5,40.5,40.9z"/>
<path style="opacity:0.85;fill:#008294;" d="M38.3,38.7l0.2,0.2c0.4,0.4,1,0.4,1.4,0l0.2-0.2c0.4-0.4,0.4-1,0-1.4L40,37
	c-0.4-0.4-1-0.4-1.4,0l-0.2,0.2C37.9,37.7,37.9,38.3,38.3,38.7z"/>
<path style="opacity:0.85;fill:#008294;" d="M42.7,38.7l0.2,0.2c0.4,0.4,1,0.4,1.4,0l0.2-0.2c0.4-0.4,0.4-1,0-1.4L44.3,37
	c-0.4-0.4-1-0.4-1.4,0l-0.2,0.2C42.3,37.7,42.3,38.3,42.7,38.7z"/>
<path style="opacity:0.85;fill:#008294;" d="M40.5,36.5l0.2,0.2c0.4,0.4,1,0.4,1.4,0l0.2-0.2c0.4-0.4,0.4-1,0-1.4l-0.2-0.2
	c-0.4-0.4-1-0.4-1.4,0l-0.2,0.2C40.1,35.5,40.1,36.1,40.5,36.5z"/>
<path style="opacity:0.85;fill:#008294;" d="M44.8,36.5l0.2,0.2c0.4,0.4,1,0.4,1.4,0l0.2-0.2c0.4-0.4,0.4-1,0-1.4l-0.2-0.2
	c-0.4-0.4-1-0.4-1.4,0l-0.2,0.2C44.5,35.5,44.5,36.1,44.8,36.5z"/>
<path style="opacity:0.85;fill:#008294;" d="M42.7,34.3l0.2,0.2c0.4,0.4,1,0.4,1.4,0l0.2-0.2c0.4-0.4,0.4-1,0-1.4l-0.2-0.2
	c-0.4-0.4-1-0.4-1.4,0l-0.2,0.2C42.3,33.3,42.3,33.9,42.7,34.3z"/>
<path style="opacity:0.85;fill:#008294;" d="M47,34.3l0.2,0.2c0.4,0.4,1,0.4,1.4,0l0.2-0.2c0.4-0.4,0.4-1,0-1.4l-0.2-0.2
	c-0.4-0.4-1-0.4-1.4,0L47,32.9C46.7,33.3,46.7,33.9,47,34.3z"/>
<path style="opacity:0.85;fill:#008294;" d="M44.8,32.1l0.2,0.2c0.4,0.4,1,0.4,1.4,0l0.2-0.2c0.4-0.4,0.4-1,0-1.4l-0.2-0.2
	c-0.4-0.4-1-0.4-1.4,0l-0.2,0.2C44.5,31.1,44.5,31.7,44.8,32.1z"/>
<path style="opacity:0.85;fill:#008294;" d="M53.5,40.8l0.2,0.2c0.4,0.4,1,0.4,1.4,0l0.2-0.2c0.4-0.4,0.4-1,0-1.4l-0.2-0.2
	c-0.4-0.4-1-0.4-1.4,0l-0.2,0.2C53.1,39.8,53.1,40.4,53.5,40.8z"/>
<path style="opacity:0.85;fill:#008294;" d="M51.4,38.7l0.2,0.2c0.4,0.4,1,0.4,1.4,0l0.2-0.2c0.4-0.4,0.4-1,0-1.4L53.1,37
	c-0.4-0.4-1-0.4-1.4,0l-0.2,0.2C51,37.7,51,38.3,51.4,38.7z"/>
<path style="opacity:0.85;fill:#008294;" d="M49.2,36.5l0.2,0.2c0.4,0.4,1,0.4,1.4,0l0.2-0.2c0.4-0.4,0.4-1,0-1.4l-0.2-0.2
	c-0.4-0.4-1-0.4-1.4,0l-0.2,0.2C48.8,35.5,48.8,36.1,49.2,36.5z"/>
<path style="opacity:0.85;fill:#008294;" d="M42.7,30l0.2,0.2c0.4,0.4,1,0.4,1.4,0l0.2-0.2c0.4-0.4,0.4-1,0-1.4l-0.2-0.2
	c-0.4-0.4-1-0.4-1.4,0l-0.2,0.2C42.3,28.9,42.3,29.6,42.7,30z"/>
<path style="opacity:0.85;fill:#008294;" d="M38.2,25.7l0.2,0.2c0.4,0.4,1,0.4,1.4,0l0.2-0.2c0.4-0.4,0.4-1,0-1.4L39.9,24
	c-0.4-0.4-1-0.4-1.4,0l-0.2,0.2C37.8,24.6,37.8,25.3,38.2,25.7z"/>
<path style="opacity:0.85;fill:#008294;" d="M36.1,23.4l0.2,0.2c0.4,0.4,1,0.4,1.4,0l0.2-0.2c0.4-0.4,0.4-1,0-1.4l-0.2-0.2
	c-0.4-0.4-1-0.4-1.4,0L36.1,22C35.7,22.4,35.7,23,36.1,23.4z"/>
<path style="opacity:0.85;fill:#008294;" d="M40.5,27.8l0.2,0.2c0.4,0.4,1,0.4,1.4,0l0.2-0.2c0.4-0.4,0.4-1,0-1.4l-0.2-0.2
	c-0.4-0.4-1-0.4-1.4,0l-0.2,0.2C40.1,26.7,40.1,27.4,40.5,27.8z"/>
<path style="opacity:0.85;fill:#008294;" d="M25.1,16.8l0.2,0.2c0.4,0.4,1,0.4,1.4,0l0.2-0.2c0.4-0.4,0.4-1,0-1.4l-0.2-0.2
	c-0.4-0.4-1-0.4-1.4,0l-0.2,0.2C24.8,15.8,24.8,16.4,25.1,16.8z"/>
<path style="opacity:0.85;fill:#008294;" d="M23,19l0.2,0.2c0.4,0.4,1,0.4,1.4,0l0.2-0.2c0.4-0.4,0.4-1,0-1.4l-0.2-0.2
	c-0.4-0.4-1-0.4-1.4,0L23,17.5C22.6,17.9,22.6,18.6,23,19z"/>
<path style="opacity:0.85;fill:#008294;" d="M20.8,21.2l0.2,0.2c0.4,0.4,1,0.4,1.4,0l0.2-0.2c0.4-0.4,0.4-1,0-1.4l-0.2-0.2
	c-0.4-0.4-1-0.4-1.4,0l-0.2,0.2C20.4,20.2,20.4,20.8,20.8,21.2z"/>
<path style="opacity:0.85;fill:#008294;" d="M27.4,19l0.2,0.2c0.4,0.4,1,0.4,1.4,0l0.2-0.2c0.4-0.4,0.4-1,0-1.4L29,17.3
	c-0.4-0.4-1-0.4-1.4,0l-0.2,0.2C27,18,27,18.6,27.4,19z"/>
<path style="opacity:0.85;fill:#008294;" d="M25.2,21.1l0.2,0.2c0.4,0.4,1,0.4,1.4,0l0.2-0.2c0.4-0.4,0.4-1,0-1.4l-0.2-0.2
	c-0.4-0.4-1-0.4-1.4,0l-0.2,0.2C24.8,20.1,24.8,20.8,25.2,21.1z"/>
<path style="opacity:0.85;fill:#008294;" d="M23,23.4l0.2,0.2c0.4,0.4,1,0.4,1.4,0l0.2-0.2c0.4-0.4,0.4-1,0-1.4l-0.2-0.2
	c-0.4-0.4-1-0.4-1.4,0L23,21.9C22.6,22.3,22.6,23,23,23.4z"/>
<path style="opacity:0.85;fill:#008294;" d="M20.7,25.6l0.2,0.2c0.4,0.4,1,0.4,1.4,0l0.2-0.2c0.4-0.4,0.4-1,0-1.4l-0.2-0.2
	c-0.4-0.4-1-0.4-1.4,0l-0.2,0.2C20.3,24.6,20.3,25.2,20.7,25.6z"/>
<path style="opacity:0.85;fill:#008294;" d="M18.6,27.8l0.2,0.2c0.4,0.4,1,0.4,1.4,0l0.2-0.2c0.4-0.4,0.4-1,0-1.4l-0.2-0.2
	c-0.4-0.4-1-0.4-1.4,0l-0.2,0.2C18.2,26.7,18.2,27.4,18.6,27.8z"/>
<path style="opacity:0.85;fill:#008294;" d="M16.4,30l0.2,0.2c0.4,0.4,1,0.4,1.4,0l0.2-0.2c0.4-0.4,0.4-1,0-1.4L18,28.3
	c-0.4-0.4-1-0.4-1.4,0l-0.2,0.2C16,28.9,16,29.6,16.4,30z"/>
<path style="opacity:0.85;fill:#008294;" d="M18.5,23.4l0.2,0.2c0.4,0.4,1,0.4,1.4,0l0.2-0.2c0.4-0.4,0.4-1,0-1.4l-0.2-0.2
	c-0.4-0.4-1-0.4-1.4,0L18.5,22C18.2,22.4,18.2,23,18.5,23.4z"/>
<path style="opacity:0.85;fill:#008294;" d="M16.4,25.6l0.2,0.2c0.4,0.4,1,0.4,1.4,0l0.2-0.2c0.4-0.4,0.4-1,0-1.4L18,23.9
	c-0.4-0.4-1-0.4-1.4,0l-0.2,0.2C16,24.5,16,25.2,16.4,25.6z"/>
<path style="opacity:0.85;fill:#008294;" d="M14.2,27.8l0.2,0.2c0.4,0.4,1,0.4,1.4,0l0.2-0.2c0.4-0.4,0.4-1,0-1.4l-0.2-0.2
	c-0.4-0.4-1-0.4-1.4,0l-0.2,0.2C13.8,26.7,13.8,27.4,14.2,27.8z"/>
<path style="opacity:0.85;fill:#008294;" d="M14.2,32.1l0.2,0.2c0.4,0.4,1,0.4,1.4,0l0.2-0.2c0.4-0.4,0.4-1,0-1.4l-0.2-0.2
	c-0.4-0.4-1-0.4-1.4,0l-0.2,0.2C13.8,31.1,13.8,31.7,14.2,32.1z"/>
<path style="opacity:0.85;fill:#008294;" d="M29.7,14.2c-1.5-1.5-2.8,0-2.8,0s1,1,1.1,1.1c0.1,0.1,0.4,0.2,0.6,0
	C28.7,15.1,29.7,14.2,29.7,14.2z"/>
<path style="opacity:0.85;fill:#008294;" d="M29.5,16.8l0.2,0.2c0.4,0.4,1,0.4,1.4,0l0.2-0.2c0.4-0.4,0.4-1,0-1.4l-0.2-0.2
	c-0.4-0.4-1-0.4-1.4,0l-0.2,0.2C29.1,15.8,29.1,16.4,29.5,16.8z"/>
<path style="opacity:0.85;fill:#008294;" d="M21.9,14.1l0.2,0.2c0.4,0.4,1,0.4,1.4,0l0.2-0.2c0.4-0.4,0.4-1,0-1.4l-0.2-0.2
	c-0.4-0.4-1-0.4-1.4,0l-0.2,0.2C21.5,13.1,21.5,13.7,21.9,14.1z"/>
<path style="opacity:0.85;fill:#008294;" d="M19.7,16.2l0.2,0.2c0.4,0.4,1,0.4,1.4,0l0.2-0.2c0.4-0.4,0.4-1,0-1.4l-0.2-0.2
	c-0.4-0.4-1-0.4-1.4,0l-0.2,0.2C19.3,15.2,19.3,15.9,19.7,16.2z"/>
<path style="opacity:0.85;fill:#008294;" d="M17.5,18.5l0.2,0.2c0.4,0.4,1,0.4,1.4,0l0.2-0.2c0.4-0.4,0.4-1,0-1.4l-0.2-0.2
	c-0.4-0.4-1-0.4-1.4,0L17.5,17C17.1,17.4,17.1,18.1,17.5,18.5z"/>
<path style="opacity:0.85;fill:#008294;" d="M15.3,20.7l0.2,0.2c0.4,0.4,1,0.4,1.4,0l0.2-0.2c0.4-0.4,0.4-1,0-1.4L16.9,19
	c-0.4-0.4-1-0.4-1.4,0l-0.2,0.2C14.9,19.7,14.9,20.3,15.3,20.7z"/>
<path style="opacity:0.85;fill:#008294;" d="M13.1,22.8l0.2,0.2c0.4,0.4,1,0.4,1.4,0l0.2-0.2c0.4-0.4,0.4-1,0-1.4l-0.2-0.2
	c-0.4-0.4-1-0.4-1.4,0l-0.2,0.2C12.7,21.8,12.7,22.4,13.1,22.8z"/>
<path style="opacity:0.85;fill:#008294;" d="M10.9,25.1l0.2,0.2c0.4,0.4,1,0.4,1.4,0l0.2-0.2c0.4-0.4,0.4-1,0-1.4l-0.2-0.2
	c-0.4-0.4-1-0.4-1.4,0l-0.2,0.2C10.5,24,10.5,24.7,10.9,25.1z"/>
<path style="fill:#158598;" d="M19.7,11.8l0.2,0.2c0.4,0.4,1,0.4,1.4,0l0.2-0.2c0.4-0.4,0.4-1,0-1.4l-0.2-0.2c-0.4-0.4-1-0.4-1.4,0
	l-0.2,0.2C19.3,10.8,19.3,11.4,19.7,11.8z"/>
<path style="opacity:0.85;fill:#008294;" d="M17.5,14l0.2,0.2c0.4,0.4,1,0.4,1.4,0l0.2-0.2c0.4-0.4,0.4-1,0-1.4l-0.2-0.2
	c-0.4-0.4-1-0.4-1.4,0l-0.2,0.2C17.1,13,17.1,13.6,17.5,14z"/>
<path style="opacity:0.85;fill:#008294;" d="M15.3,16.2l0.2,0.2c0.4,0.4,1,0.4,1.4,0l0.2-0.2c0.4-0.4,0.4-1,0-1.4L17,14.6
	c-0.4-0.4-1-0.4-1.4,0l-0.2,0.2C14.9,15.2,14.9,15.8,15.3,16.2z"/>
<path style="opacity:0.85;fill:#008294;" d="M13.1,18.4l0.2,0.2c0.4,0.4,1,0.4,1.4,0l0.2-0.2c0.4-0.4,0.4-1,0-1.4l-0.2-0.2
	c-0.4-0.4-1-0.4-1.4,0L13.1,17C12.7,17.4,12.7,18.1,13.1,18.4z"/>
<path style="opacity:0.85;fill:#008294;" d="M10.9,20.6l0.2,0.2c0.4,0.4,1,0.4,1.4,0l0.2-0.2c0.4-0.4,0.4-1,0-1.4l-0.2-0.2
	c-0.4-0.4-1-0.4-1.4,0l-0.2,0.2C10.5,19.6,10.5,20.2,10.9,20.6z"/>
<path style="opacity:0.85;fill:#008294;" d="M8.7,22.8L9,23c0.4,0.4,1,0.4,1.4,0l0.2-0.2c0.4-0.4,0.4-1,0-1.4l-0.2-0.2
	c-0.4-0.4-1-0.4-1.4,0l-0.2,0.2C8.3,21.8,8.3,22.4,8.7,22.8z"/>
<path style="fill:#9E1D21;" d="M22.3,48.9c0,0,1.3-1.3,1.4-1.4c0.3-0.3,0.6,0.1,0.5,0c-0.5-0.5,1.4,1.4,1.4,1.4S23.9,50.6,22.3,48.9
	z"/>
<path style="fill:#9E1D21;" d="M21.9,45.1c0,0,1.3,1.3,1.4,1.4c0.3,0.3-0.1,0.6,0,0.5c0.5-0.5-1.4,1.4-1.4,1.4S20.2,46.7,21.9,45.1z
	"/>
<path style="fill:#9E1D21;" d="M15.7,46.7c0,0,1.3-1.3,1.4-1.4c0.3-0.3,0.6,0.1,0.5,0c-0.5-0.5,1.4,1.4,1.4,1.4S17.3,48.4,15.7,46.7
	z"/>
<path style="fill:#9E1D21;" d="M15.2,42.9c0,0,1.3,1.3,1.4,1.4c0.3,0.3-0.1,0.6,0,0.5c0.5-0.5-1.4,1.4-1.4,1.4S13.6,44.5,15.2,42.9z
	"/>
<path style="fill:#9E1D21;" d="M9,44.5c0,0,1.3-1.3,1.4-1.4c0.3-0.3,0.6,0.1,0.5,0c-0.5-0.5,1.4,1.4,1.4,1.4S10.6,46.1,9,44.5z"/>
<path style="fill:#9E1D21;" d="M8.6,40.7c0,0,1.3,1.3,1.4,1.4c0.3,0.3-0.1,0.6,0,0.5c0.5-0.5-1.4,1.4-1.4,1.4S6.9,42.3,8.6,40.7z"/>
<path style="fill:#9E1D21;" d="M28.9,51.1c0,0,1.3-1.3,1.4-1.4c0.3-0.3,0.6,0.1,0.5,0c-0.5-0.5,1.4,1.4,1.4,1.4S30.5,52.7,28.9,51.1
	z"/>
<path style="fill:#9E1D21;" d="M28.4,47.2c0,0,1.3,1.3,1.4,1.4c0.3,0.3-0.1,0.6,0,0.5c0.5-0.5-1.4,1.4-1.4,1.4S26.8,48.8,28.4,47.2z
	"/>
<path style="fill:#9E1D21;" d="M25.2,47.4l0.2,0.2c0.4,0.4,1,0.4,1.4,0l0.2-0.2c0.4-0.4,0.4-1,0-1.4l-0.2-0.2c-0.4-0.4-1-0.4-1.4,0
	L25.2,46C24.8,46.4,24.8,47.1,25.2,47.4z"/>
<path style="fill:#9E1D21;" d="M23,45.2l0.2,0.2c0.4,0.4,1,0.4,1.4,0l0.2-0.2c0.4-0.4,0.4-1,0-1.4l-0.2-0.2c-0.4-0.4-1-0.4-1.4,0
	L23,43.8C22.6,44.2,22.6,44.9,23,45.2z"/>
<path style="fill:#9E1D21;" d="M20.9,43.1l0.2,0.2c0.4,0.4,1,0.4,1.4,0l0.2-0.2c0.4-0.4,0.4-1,0-1.4l-0.2-0.2c-0.4-0.4-1-0.4-1.4,0
	l-0.2,0.2C20.5,42,20.5,42.7,20.9,43.1z"/>
<path style="fill:#9E1D21;" d="M18.7,40.9l0.2,0.2c0.4,0.4,1,0.4,1.4,0l0.2-0.2c0.4-0.4,0.4-1,0-1.4l-0.2-0.2c-0.4-0.4-1-0.4-1.4,0
	l-0.2,0.2C18.3,39.9,18.3,40.5,18.7,40.9z"/>
<path style="fill:#9E1D21;" d="M18.7,45.3l0.2,0.2c0.4,0.4,1,0.4,1.4,0l0.2-0.2c0.4-0.4,0.4-1,0-1.4l-0.2-0.2c-0.4-0.4-1-0.4-1.4,0
	l-0.2,0.2C18.3,44.3,18.3,44.9,18.7,45.3z"/>
<path style="fill:#9E1D21;" d="M16.5,43.1l0.2,0.2c0.4,0.4,1,0.4,1.4,0l0.2-0.2c0.4-0.4,0.4-1,0-1.4l-0.2-0.2c-0.4-0.4-1-0.4-1.4,0
	l-0.2,0.2C16.1,42.1,16.1,42.7,16.5,43.1z"/>
<path style="fill:#9E1D21;" d="M24.7,42.7c1.5-1.5,2.8,0,2.8,0s-1,1-1.1,1.1c-0.2,0.2-0.4,0.1-0.5,0C25.8,43.8,24.7,42.7,24.7,42.7z
	"/>
<path style="fill:#158598;" d="M27.3,41.9c-0.3-0.3-0.9-0.8-0.9-0.9c-0.1-0.1-0.3-0.2-0.5,0c-0.2,0.2-1.2,1.2-1.2,1.2
	C25.9,40.9,26.9,41.6,27.3,41.9z"/>
<path style="fill:#9E1D21;" d="M25.9,39.4c1.5-1.5,0-2.8,0-2.8s-1,1-1.1,1.1c-0.2,0.2-0.1,0.4,0,0.5C24.8,38.4,25.9,39.4,25.9,39.4z
	"/>
<path style="fill:#158598;" d="M26.6,36.8c0.3,0.3,0.8,0.9,0.9,0.9c0.1,0.1,0.2,0.3,0,0.5c-0.2,0.2-1.2,1.2-1.2,1.2
	C27.6,38.2,27,37.2,26.6,36.8z"/>
<path style="fill:#9E1D21;" d="M22.5,36.1c1.5-1.5,2.8,0,2.8,0s-1,1-1.1,1.1c-0.2,0.2-0.4,0.1-0.5,0C23.6,37.2,22.5,36.1,22.5,36.1z
	"/>
<path style="fill:#158598;" d="M25.1,35.4c-0.3-0.3-0.9-0.8-0.9-0.9c-0.1-0.1-0.3-0.2-0.5,0c-0.2,0.2-1.2,1.2-1.2,1.2
	C23.8,34.4,24.7,35,25.1,35.4z"/>
<path style="fill:#9E1D21;" d="M23.6,32.8c1.5-1.5,0-2.8,0-2.8s-1,1-1.1,1.1c-0.2,0.2-0.1,0.4,0,0.5C22.5,31.8,23.6,32.8,23.6,32.8z
	"/>
<path style="fill:#158598;" d="M24.3,30.2c0.3,0.3,0.8,0.9,0.9,0.9c0.1,0.1,0.2,0.3,0,0.5c-0.2,0.2-1.2,1.2-1.2,1.2
	C25.3,31.6,24.7,30.6,24.3,30.2z"/>
<path style="fill:#9E1D21;" d="M20.2,29.5c1.5-1.5,2.8,0,2.8,0s-1,1-1.1,1.1c-0.2,0.2-0.4,0.1-0.5,0C21.3,30.6,20.2,29.5,20.2,29.5z
	"/>
<path style="opacity:0.85;fill:#008294;" d="M22.8,28.8c-0.3-0.3-0.9-0.8-0.9-0.9c-0.1-0.1-0.3-0.2-0.5,0C21.2,28,20.2,29,20.2,29
	C21.5,27.8,22.4,28.4,22.8,28.8z"/>
<path style="fill:#9E1D21;" d="M37.9,33.4c1.5,1.5,2.8,0,2.8,0s-1-1-1.1-1.1c-0.2-0.2-0.4-0.1-0.5,0C39,32.3,37.9,33.4,37.9,33.4z"
	/>
<path style="opacity:0.85;fill:#008294;" d="M40.5,34.2c-0.3,0.3-0.9,0.8-0.9,0.9c-0.1,0.1-0.3,0.2-0.5,0c-0.2-0.2-1.2-1.2-1.2-1.2
	C39.2,35.1,40.1,34.5,40.5,34.2z"/>
<path style="fill:#9E1D21;" d="M41.2,30.1c1.5,1.5,0,2.8,0,2.8s-1-1-1.1-1.1c-0.2-0.2-0.1-0.4,0-0.5C40.2,31.1,41.2,30.1,41.2,30.1z
	"/>
<path style="opacity:0.85;fill:#008294;" d="M42,32.6c0.3-0.3,0.8-0.9,0.9-0.9c0.1-0.1,0.2-0.3,0-0.5c-0.2-0.2-1.2-1.2-1.2-1.2
	C43,31.3,42.4,32.2,42,32.6z"/>
<path style="fill:#9E1D21;" d="M36.1,32.2l0.2,0.2c0.4,0.4,1,0.4,1.4,0l0.2-0.2c0.4-0.4,0.4-1,0-1.4l-0.2-0.2c-0.4-0.4-1-0.4-1.4,0
	l-0.2,0.2C35.7,31.1,35.7,31.8,36.1,32.2z"/>
<path style="fill:#9E1D21;" d="M23,40.9l0.2,0.2c0.4,0.4,1,0.4,1.4,0l0.2-0.2c0.4-0.4,0.4-1,0-1.4l-0.2-0.2c-0.4-0.4-1-0.4-1.4,0
	L23,39.5C22.6,39.9,22.6,40.5,23,40.9z"/>
<path style="fill:#9E1D21;" d="M20.8,38.7l0.2,0.2c0.4,0.4,1,0.4,1.4,0l0.2-0.2c0.4-0.4,0.4-1,0-1.4l-0.2-0.2c-0.4-0.4-1-0.4-1.4,0
	l-0.2,0.2C20.4,37.7,20.4,38.4,20.8,38.7z"/>
<path style="fill:#9E1D21;" d="M16.4,38.6l0.2,0.2c0.4,0.4,1,0.4,1.4,0l0.2-0.2c0.4-0.4,0.4-1,0-1.4L18,36.9c-0.4-0.4-1-0.4-1.4,0
	l-0.2,0.2C16,37.6,16,38.2,16.4,38.6z"/>
<path style="fill:#9E1D21;" d="M14.2,36.4l0.2,0.2c0.4,0.4,1,0.4,1.4,0l0.2-0.2c0.4-0.4,0.4-1,0-1.4l-0.2-0.2c-0.4-0.4-1-0.4-1.4,0
	L14.2,35C13.8,35.4,13.8,36.1,14.2,36.4z"/>
<path style="fill:#9E1D21;" d="M14.2,40.8l0.2,0.2c0.4,0.4,1,0.4,1.4,0l0.2-0.2c0.4-0.4,0.4-1,0-1.4l-0.2-0.2c-0.4-0.4-1-0.4-1.4,0
	l-0.2,0.2C13.8,39.8,13.8,40.5,14.2,40.8z"/>
<path style="fill:#9E1D21;" d="M12,38.7l0.2,0.2c0.4,0.4,1,0.4,1.4,0l0.2-0.2c0.4-0.4,0.4-1,0-1.4L13.7,37c-0.4-0.4-1-0.4-1.4,0
	L12,37.3C11.6,37.7,11.6,38.3,12,38.7z"/>
<path style="fill:#9E1D21;" d="M12,43.1l0.2,0.2c0.4,0.4,1,0.4,1.4,0l0.2-0.2c0.4-0.4,0.4-1,0-1.4l-0.2-0.2c-0.4-0.4-1-0.4-1.4,0
	L12,41.6C11.6,42,11.6,42.7,12,43.1z"/>
<path style="fill:#9E1D21;" d="M9.8,40.9l0.2,0.2c0.4,0.4,1,0.4,1.4,0l0.2-0.2c0.4-0.4,0.4-1,0-1.4l-0.2-0.2c-0.4-0.4-1-0.4-1.4,0
	l-0.2,0.2C9.4,39.9,9.4,40.5,9.8,40.9z"/>
<path style="fill:#9E1D21;" d="M18.6,36.5l0.2,0.2c0.4,0.4,1,0.4,1.4,0l0.2-0.2c0.4-0.4,0.4-1,0-1.4l-0.2-0.2c-0.4-0.4-1-0.4-1.4,0
	l-0.2,0.2C18.2,35.5,18.2,36.1,18.6,36.5z"/>
<path style="fill:#9E1D21;" d="M16.4,34.3l0.2,0.2c0.4,0.4,1,0.4,1.4,0l0.2-0.2c0.4-0.4,0.4-1,0-1.4L18,32.6c-0.4-0.4-1-0.4-1.4,0
	l-0.2,0.2C16,33.3,16,33.9,16.4,34.3z"/>
<path style="fill:#9E1D21;" d="M20.8,34.3l0.2,0.2c0.4,0.4,1,0.4,1.4,0l0.2-0.2c0.4-0.4,0.4-1,0-1.4l-0.2-0.2c-0.4-0.4-1-0.4-1.4,0
	l-0.2,0.2C20.4,33.3,20.4,33.9,20.8,34.3z"/>
<path style="fill:#9E1D21;" d="M18.5,32.1l0.2,0.2c0.4,0.4,1,0.4,1.4,0l0.2-0.2c0.4-0.4,0.4-1,0-1.4l-0.2-0.2c-0.4-0.4-1-0.4-1.4,0
	l-0.2,0.2C18.1,31.1,18.1,31.7,18.5,32.1z"/>
<path style="fill:#9E1D21;" d="M34,29.9l0.2,0.2c0.4,0.4,1,0.4,1.4,0l0.2-0.2c0.4-0.4,0.4-1,0-1.4l-0.2-0.2c-0.4-0.4-1-0.4-1.4,0
	L34,28.5C33.6,28.9,33.6,29.6,34,29.9z"/>
<path style="fill:#9E1D21;" d="M31.8,27.8L32,28c0.4,0.4,1,0.4,1.4,0l0.2-0.2c0.4-0.4,0.4-1,0-1.4l-0.2-0.2c-0.4-0.4-1-0.4-1.4,0
	l-0.2,0.2C31.4,26.7,31.4,27.4,31.8,27.8z"/>
<path style="fill:#9E1D21;" d="M29.5,25.5l0.2,0.2c0.4,0.4,1,0.4,1.4,0l0.2-0.2c0.4-0.4,0.4-1,0-1.4l-0.2-0.2c-0.4-0.4-1-0.4-1.4,0
	l-0.2,0.2C29.1,24.5,29.1,25.1,29.5,25.5z"/>
<path style="fill:#9E1D21;" d="M38.3,30.1l0.2,0.2c0.4,0.4,1,0.4,1.4,0l0.2-0.2c0.4-0.4,0.4-1,0-1.4L40,28.4c-0.4-0.4-1-0.4-1.4,0
	l-0.2,0.2C37.9,29,37.9,29.7,38.3,30.1z"/>
<path style="fill:#9E1D21;" d="M36.2,27.8l0.2,0.2c0.4,0.4,1,0.4,1.4,0l0.2-0.2c0.4-0.4,0.4-1,0-1.4l-0.2-0.2c-0.4-0.4-1-0.4-1.4,0
	l-0.2,0.2C35.8,26.8,35.8,27.4,36.2,27.8z"/>
<path style="fill:#9E1D21;" d="M34,25.7l0.2,0.2c0.4,0.4,1,0.4,1.4,0l0.2-0.2c0.4-0.4,0.4-1,0-1.4L35.6,24c-0.4-0.4-1-0.4-1.4,0
	L34,24.3C33.6,24.6,33.6,25.3,34,25.7z"/>
<path style="fill:#9E1D21;" d="M31.7,23.4l0.2,0.2c0.4,0.4,1,0.4,1.4,0l0.2-0.2c0.4-0.4,0.4-1,0-1.4l-0.2-0.2c-0.4-0.4-1-0.4-1.4,0
	L31.7,22C31.3,22.4,31.3,23,31.7,23.4z"/>
<path style="fill:#9E1D21;" d="M29.5,21.1l0.2,0.2c0.4,0.4,1,0.4,1.4,0l0.2-0.2c0.4-0.4,0.4-1,0-1.4l-0.2-0.2c-0.4-0.4-1-0.4-1.4,0
	l-0.2,0.2C29.1,20.1,29.1,20.7,29.5,21.1z"/>
<path style="fill:#9E1D21;" d="M33.8,21.2l0.2,0.2c0.4,0.4,1,0.4,1.4,0l0.2-0.2c0.4-0.4,0.4-1,0-1.4l-0.2-0.2c-0.4-0.4-1-0.4-1.4,0
	l-0.2,0.2C33.4,20.2,33.4,20.9,33.8,21.2z"/>
<path style="fill:#9E1D21;" d="M31.6,19l0.2,0.2c0.4,0.4,1,0.4,1.4,0l0.2-0.2c0.4-0.4,0.4-1,0-1.4l-0.2-0.2c-0.4-0.4-1-0.4-1.4,0
	l-0.2,0.2C31.2,18,31.2,18.7,31.6,19z"/>
<path style="fill:#9E1D21;" d="M36,19.1l0.2,0.2c0.4,0.4,1,0.4,1.4,0l0.2-0.2c0.4-0.4,0.4-1,0-1.4l-0.2-0.2c-0.4-0.4-1-0.4-1.4,0
	L36,17.7C35.6,18.1,35.6,18.7,36,19.1z"/>
<path style="fill:#9E1D21;" d="M33.8,16.9l0.2,0.2c0.4,0.4,1,0.4,1.4,0l0.2-0.2c0.4-0.4,0.4-1,0-1.4l-0.2-0.2c-0.4-0.4-1-0.4-1.4,0
	l-0.2,0.2C33.4,15.8,33.4,16.5,33.8,16.9z"/>
<path style="fill:#9E1D21;" d="M38.2,16.9l0.2,0.2c0.4,0.4,1,0.4,1.4,0l0.2-0.2c0.4-0.4,0.4-1,0-1.4l-0.2-0.2c-0.4-0.4-1-0.4-1.4,0
	l-0.2,0.2C37.8,15.9,37.8,16.5,38.2,16.9z"/>
<path style="fill:#9E1D21;" d="M38.2,21.3l0.2,0.2c0.4,0.4,1,0.4,1.4,0l0.2-0.2c0.4-0.4,0.4-1,0-1.4l-0.2-0.2c-0.4-0.4-1-0.4-1.4,0
	l-0.2,0.2C37.8,20.3,37.8,20.9,38.2,21.3z"/>
<path style="fill:#9E1D21;" d="M40.4,19.2l0.2,0.2c0.4,0.4,1,0.4,1.4,0l0.2-0.2c0.4-0.4,0.4-1,0-1.4l-0.2-0.2c-0.4-0.4-1-0.4-1.4,0
	l-0.2,0.2C40,18.2,40,18.8,40.4,19.2z"/>
<path style="fill:#9E1D21;" d="M40.4,23.6l0.2,0.2c0.4,0.4,1,0.4,1.4,0l0.2-0.2c0.4-0.4,0.4-1,0-1.4l-0.2-0.2c-0.4-0.4-1-0.4-1.4,0
	l-0.2,0.2C40,22.5,40,23.2,40.4,23.6z"/>
<path style="fill:#9E1D21;" d="M42.6,21.3l0.2,0.2c0.4,0.4,1,0.4,1.4,0l0.2-0.2c0.4-0.4,0.4-1,0-1.4l-0.2-0.2c-0.4-0.4-1-0.4-1.4,0
	l-0.2,0.2C42.2,20.3,42.2,21,42.6,21.3z"/>
<path style="fill:#9E1D21;" d="M42.6,25.7l0.2,0.2c0.4,0.4,1,0.4,1.4,0l0.2-0.2c0.4-0.4,0.4-1,0-1.4L44.2,24c-0.4-0.4-1-0.4-1.4,0
	l-0.2,0.2C42.2,24.6,42.2,25.3,42.6,25.7z"/>
<path style="fill:#9E1D21;" d="M44.8,23.5l0.2,0.2c0.4,0.4,1,0.4,1.4,0l0.2-0.2c0.4-0.4,0.4-1,0-1.4l-0.2-0.2c-0.4-0.4-1-0.4-1.4,0
	l-0.2,0.2C44.4,22.5,44.4,23.1,44.8,23.5z"/>
<path style="fill:#9E1D21;" d="M44.8,27.9l0.2,0.2c0.4,0.4,1,0.4,1.4,0l0.2-0.2c0.4-0.4,0.4-1,0-1.4l-0.2-0.2c-0.4-0.4-1-0.4-1.4,0
	l-0.2,0.2C44.4,26.8,44.4,27.5,44.8,27.9z"/>
<path style="fill:#9E1D21;" d="M47,25.7l0.2,0.2c0.4,0.4,1,0.4,1.4,0l0.2-0.2c0.4-0.4,0.4-1,0-1.4L48.6,24c-0.4-0.4-1-0.4-1.4,0
	L47,24.3C46.6,24.7,46.6,25.3,47,25.7z"/>
<path style="fill:#9E1D21;" d="M47,30.1l0.2,0.2c0.4,0.4,1,0.4,1.4,0l0.2-0.2c0.4-0.4,0.4-1,0-1.4l-0.2-0.2c-0.4-0.4-1-0.4-1.4,0
	L47,28.6C46.6,29,46.6,29.7,47,30.1z"/>
<path style="fill:#9E1D21;" d="M49.1,27.9l0.2,0.2c0.4,0.4,1,0.4,1.4,0l0.2-0.2c0.4-0.4,0.4-1,0-1.4l-0.2-0.2c-0.4-0.4-1-0.4-1.4,0
	l-0.2,0.2C48.7,26.8,48.7,27.5,49.1,27.9z"/>
<path style="fill:#9E1D21;" d="M49.1,32.2l0.2,0.2c0.4,0.4,1,0.4,1.4,0l0.2-0.2c0.4-0.4,0.4-1,0-1.4l-0.2-0.2c-0.4-0.4-1-0.4-1.4,0
	l-0.2,0.2C48.7,31.2,48.7,31.8,49.1,32.2z"/>
<path style="fill:#9E1D21;" d="M43.1,13.8L42.9,14c-0.4,0.4-1,0.4-1.4,0l-0.2-0.2c-0.4-0.4-0.4-1,0-1.4l0.2-0.2c0.4-0.4,1-0.4,1.4,0
	l0.2,0.2C43.5,12.8,43.5,13.4,43.1,13.8z"/>
<path style="fill:#9E1D21;" d="M45.3,16L45,16.2c-0.4,0.4-1,0.4-1.4,0L43.4,16c-0.4-0.4-0.4-1,0-1.4l0.2-0.2c0.4-0.4,1-0.4,1.4,0
	l0.2,0.2C45.7,14.9,45.7,15.6,45.3,16z"/>
<path style="fill:#9E1D21;" d="M47.5,18.2l-0.2,0.2c-0.4,0.4-1,0.4-1.4,0l-0.2-0.2c-0.4-0.4-0.4-1,0-1.4l0.2-0.2
	c0.4-0.4,1-0.4,1.4,0l0.2,0.2C47.9,17.2,47.9,17.8,47.5,18.2z"/>
<path style="fill:#9E1D21;" d="M49.7,20.4l-0.2,0.2c-0.4,0.4-1,0.4-1.4,0l-0.2-0.2c-0.4-0.4-0.4-1,0-1.4l0.2-0.2
	c0.4-0.4,1-0.4,1.4,0l0.2,0.2C50.1,19.4,50.1,20,49.7,20.4z"/>
<path style="fill:#9E1D21;" d="M51.9,22.6l-0.2,0.2c-0.4,0.4-1,0.4-1.4,0L50,22.6c-0.4-0.4-0.4-1,0-1.4l0.2-0.2c0.4-0.4,1-0.4,1.4,0
	l0.2,0.2C52.3,21.5,52.3,22.2,51.9,22.6z"/>
<path style="fill:#9E1D21;" d="M54.1,24.8L53.8,25c-0.4,0.4-1,0.4-1.4,0l-0.2-0.2c-0.4-0.4-0.4-1,0-1.4l0.2-0.2c0.4-0.4,1-0.4,1.4,0
	l0.2,0.2C54.5,23.7,54.5,24.4,54.1,24.8z"/>
<path style="fill:#9E1D21;" d="M45.3,11.6l-0.2,0.2c-0.4,0.4-1,0.4-1.4,0l-0.2-0.2c-0.4-0.4-0.4-1,0-1.4l0.2-0.2
	c0.4-0.4,1-0.4,1.4,0l0.2,0.2C45.7,10.5,45.7,11.2,45.3,11.6z"/>
<path style="fill:#9E1D21;" d="M47.5,13.7L47.3,14c-0.4,0.4-1,0.4-1.4,0l-0.2-0.2c-0.4-0.4-0.4-1,0-1.4l0.2-0.2c0.4-0.4,1-0.4,1.4,0
	l0.2,0.2C47.9,12.7,47.9,13.3,47.5,13.7z"/>
<path style="fill:#9E1D21;" d="M49.7,15.9l-0.2,0.2c-0.4,0.4-1,0.4-1.4,0l-0.2-0.2c-0.4-0.4-0.4-1,0-1.4l0.2-0.2
	c0.4-0.4,1-0.4,1.4,0l0.2,0.2C50.1,14.9,50.1,15.5,49.7,15.9z"/>
<path style="fill:#9E1D21;" d="M52,18.2l-0.2,0.2c-0.4,0.4-1,0.4-1.4,0l-0.2-0.2c-0.4-0.4-0.4-1,0-1.4l0.2-0.2c0.4-0.4,1-0.4,1.4,0
	l0.2,0.2C52.3,17.1,52.3,17.8,52,18.2z"/>
<path style="fill:#9E1D21;" d="M54.1,20.3l-0.2,0.2c-0.4,0.4-1,0.4-1.4,0l-0.2-0.2c-0.4-0.4-0.4-1,0-1.4l0.2-0.2
	c0.4-0.4,1-0.4,1.4,0l0.2,0.2C54.5,19.3,54.5,19.9,54.1,20.3z"/>
<path style="fill:#9E1D21;" d="M56.3,22.5l-0.2,0.2c-0.4,0.4-1,0.4-1.4,0l-0.2-0.2c-0.4-0.4-0.4-1,0-1.4l0.2-0.2
	c0.4-0.4,1-0.4,1.4,0l0.2,0.2C56.7,21.5,56.7,22.1,56.3,22.5z"/>
<path style="opacity:0.9;fill:#9E1D21;" d="M12.1,54.8v6H6c0,0-6,0-6-6c0-6,0-6,0-6h6.1v4.9c0,0,0,1.1,1.3,1.1S12.1,54.8,12.1,54.8z
	"/>
<path style="opacity:0.85;fill:#008294;" d="M54.6,54.8v6h6.2c0,0,6,0,6-6c0-6,0-6,0-6h-6.1v4.9c0,0,0,1.1-1.3,1.1
	S54.6,54.8,54.6,54.8z"/>
<path style="opacity:0.85;fill:#008294;" d="M12.1,6.2v-6H6c0,0-6,0-6,6c0,6,0,6,0,6h6.1V7.3c0,0,0-1.1,1.3-1.1S12.1,6.2,12.1,6.2z"
	/>
<path style="opacity:0.9;fill:#9E1D21;" d="M54.6,6.2v-6h6.2c0,0,6,0,6,6c0,6,0,6,0,6h-6.1V7.3c0,0,0-1.1-1.3-1.1S54.6,6.2,54.6,6.2
	z"/>
<path style="opacity:0.85;fill:#008294;" d="M27.4,40.9l0.2,0.2c0.4,0.4,1,0.4,1.4,0l0.2-0.2c0.4-0.4,0.4-1,0-1.4L29,39.2
	c-0.4-0.4-1-0.4-1.4,0l-0.2,0.2C27,39.9,27,40.5,27.4,40.9z"/>
<path style="opacity:0.85;fill:#008294;" d="M51.4,43.1l0.2,0.2c0.4,0.4,1,0.4,1.4,0l0.2-0.2c0.4-0.4,0.4-1,0-1.4l-0.2-0.2
	c-0.4-0.4-1-0.4-1.4,0l-0.2,0.2C51,42,51,42.7,51.4,43.1z"/>
<path style="opacity:0.85;fill:#008294;" d="M49.2,40.9l0.2,0.2c0.4,0.4,1,0.4,1.4,0l0.2-0.2c0.4-0.4,0.4-1,0-1.4l-0.2-0.2
	c-0.4-0.4-1-0.4-1.4,0l-0.2,0.2C48.8,39.9,48.8,40.5,49.2,40.9z"/>
<path style="opacity:0.85;fill:#008294;" d="M47,38.7l0.2,0.2c0.4,0.4,1,0.4,1.4,0l0.2-0.2c0.4-0.4,0.4-1,0-1.4l-0.2-0.2
	c-0.4-0.4-1-0.4-1.4,0L47,37.3C46.7,37.7,46.7,38.3,47,38.7z"/>
<path style="fill:#36374C;" d="M94.2,18.6h4.2v25.7c0,4.1-3.3,6-6.7,6c-4.2,0-6.4-2.4-6.4-5.5c0,0,0-1.5,0.4-2.3c1.3,0,2.5,0,3.8,0
	c-0.3,0.6-0.3,1.5-0.3,1.8c0,1.6,1.2,2.4,2.5,2.4c1.4,0,2.6-0.8,2.6-2.6V18.6z M93.4,13.6c0,1.6,1.2,2.9,2.9,2.9
	c1.6,0,2.9-1.3,2.9-2.9s-1.3-2.9-2.9-2.9C94.6,10.7,93.4,12,93.4,13.6z"/>
<g>
	<path style="fill:#36374C;" d="M117.8,37.7c-0.7,1-1.7,1.7-2.9,2.2c-1.2,0.5-2.5,0.7-3.7,0.7c-0.8,0-1.6-0.1-2.5-0.3
		c-0.8-0.2-1.6-0.6-2.2-1.1c-0.7-0.5-1.2-1.1-1.6-1.9c-0.4-0.8-0.6-1.7-0.6-2.9c0-2.1,0.7-3.9,2.2-5.1c1.5-1.3,3.7-1.9,6.5-1.9
		c0.5,0,0.9,0,1.5,0c0.5,0,1,0.1,1.5,0.1c0.5,0,0.9,0.1,1.2,0.1c0.3,0,0.6,0.1,0.7,0.1v-0.7c0-1.5-0.4-2.5-1.3-3.2
		c-0.9-0.6-2.1-1-3.7-1c-1.5,0-2.7,0.2-3.6,0.6c-0.9,0.4-1.6,0.8-2.2,1.3l-1.8-2.6c0.3-0.3,0.8-0.6,1.2-0.9c0.5-0.3,1.1-0.5,1.7-0.8
		c0.7-0.2,1.4-0.4,2.2-0.6c0.8-0.2,1.8-0.2,2.9-0.2c2.6,0,4.6,0.6,6.1,1.9c1.5,1.2,2.2,3,2.2,5.3v11.6c0,0.7,0,1.3,0,1.8h-3.6
		L117.8,37.7z M117.8,30.6c-0.1,0-0.3-0.1-0.7-0.1c-0.3,0-0.7-0.1-1.1-0.1c-0.4,0-0.9-0.1-1.4-0.1c-0.5,0-1,0-1.4,0
		c-1.1,0-2,0.1-2.6,0.4c-0.7,0.3-1.2,0.6-1.6,1c-0.4,0.4-0.6,0.8-0.8,1.3c-0.1,0.5-0.2,0.9-0.2,1.3c0,1.1,0.4,1.9,1.1,2.5
		c0.7,0.6,1.8,0.8,3.1,0.8c0.7,0,1.4-0.1,2.1-0.4c0.7-0.3,1.3-0.6,1.8-1c0.5-0.4,0.9-0.9,1.2-1.5c0.3-0.6,0.5-1.2,0.5-1.8V30.6z"/>
	<path style="fill:#36374C;" d="M128.4,23.4h-3.6v-3.2h3.6v-6.5h3.9v6.5h5.8v3.2h-5.8v9.8c0,1.6,0.2,2.7,0.7,3.3
		c0.5,0.6,1.2,0.9,2.1,0.9c0.7,0,1.4-0.1,1.8-0.3c0.5-0.2,1-0.6,1.5-1l1.8,2.4c-0.8,0.8-1.7,1.4-2.5,1.7c-0.9,0.4-1.9,0.5-3.1,0.5
		c-2.1,0-3.7-0.6-4.6-1.7c-1-1.1-1.5-2.9-1.5-5.4V23.4z"/>
	<path style="fill:#36374C;" d="M155.6,37.7c-0.7,1-1.7,1.7-2.9,2.2c-1.2,0.5-2.5,0.7-3.7,0.7c-0.8,0-1.6-0.1-2.5-0.3
		c-0.8-0.2-1.6-0.6-2.2-1.1c-0.7-0.5-1.2-1.1-1.6-1.9c-0.4-0.8-0.6-1.7-0.6-2.9c0-2.1,0.7-3.9,2.2-5.1c1.5-1.3,3.7-1.9,6.5-1.9
		c0.5,0,0.9,0,1.5,0c0.5,0,1,0.1,1.5,0.1c0.5,0,0.9,0.1,1.2,0.1c0.3,0,0.6,0.1,0.7,0.1v-0.7c0-1.5-0.4-2.5-1.3-3.2
		c-0.9-0.6-2.1-1-3.7-1c-1.5,0-2.7,0.2-3.6,0.6c-0.9,0.4-1.6,0.8-2.2,1.3l-1.8-2.6c0.3-0.3,0.8-0.6,1.2-0.9c0.5-0.3,1.1-0.5,1.7-0.8
		c0.7-0.2,1.4-0.4,2.2-0.6c0.8-0.2,1.8-0.2,2.9-0.2c2.6,0,4.6,0.6,6.1,1.9c1.5,1.2,2.2,3,2.2,5.3v11.6c0,0.7,0,1.3,0,1.8h-3.6
		L155.6,37.7z M155.6,30.6c-0.1,0-0.3-0.1-0.7-0.1c-0.3,0-0.7-0.1-1.1-0.1c-0.4,0-0.9-0.1-1.4-0.1c-0.5,0-1,0-1.4,0
		c-1.1,0-2,0.1-2.6,0.4c-0.7,0.3-1.2,0.6-1.6,1c-0.4,0.4-0.6,0.8-0.8,1.3c-0.1,0.5-0.2,0.9-0.2,1.3c0,1.1,0.4,1.9,1.1,2.5
		c0.7,0.6,1.8,0.8,3.1,0.8c0.7,0,1.4-0.1,2.1-0.4c0.7-0.3,1.3-0.6,1.8-1c0.5-0.4,0.9-0.9,1.2-1.5c0.3-0.6,0.5-1.2,0.5-1.8V30.6z"/>
</g>
<path style="fill:#9E1D21;" d="M174.4,39.8v-18c0-0.6,0-1.3,0-1.9h3.7l0.1,3.2c0.2-0.3,0.5-0.7,0.9-1.1c0.4-0.4,0.8-0.8,1.4-1.1
	c0.5-0.3,1.1-0.6,1.8-0.9c0.7-0.2,1.5-0.4,2.4-0.4c0.4,0,0.8,0,1.2,0.1c0.4,0.1,0.7,0.1,1,0.3l-0.9,3.6c-0.5-0.2-1.2-0.3-2-0.3
	c-0.8,0-1.6,0.2-2.3,0.5c-0.7,0.3-1.3,0.8-1.8,1.3c-0.5,0.6-0.9,1.2-1.2,2c-0.3,0.7-0.5,1.5-0.5,2.4v10.5H174.4z"/>
<path style="fill:#9E1D21;" d="M189.9,19.8h3.9v11.7c0,1.9,0.4,3.3,1.2,4.1c0.8,0.8,1.9,1.3,3.3,1.3c1.1,0,2-0.2,2.8-0.7
	c0.7-0.5,1.3-1.1,1.8-1.8c0.5-0.7,0.8-1.6,1-2.5c0.2-0.9,0.3-1.9,0.3-2.9v-9.3h3.9v17.9c0,0.6,0,1.3,0,2h-3.7l-0.1-3
	c-0.3,0.3-0.6,0.7-0.9,1.1c-0.4,0.4-0.8,0.8-1.4,1.1s-1.2,0.6-1.9,0.8c-0.7,0.2-1.5,0.3-2.4,0.3c-2.6,0-4.5-0.8-5.8-2.3
	c-1.2-1.5-1.8-3.6-1.8-6.2V19.8z"/>
<path style="opacity:0.85;fill:#008294;" d="M34,38.6l0.2,0.2c0.4,0.4,1,0.4,1.4,0l0.2-0.2c0.4-0.4,0.4-1,0-1.4l-0.2-0.2
	c-0.4-0.4-1-0.4-1.4,0L34,37.2C33.7,37.6,33.7,38.2,34,38.6z"/>
</svg>
