<?xml version="1.0" encoding="utf-8"?>
<!-- Generator: Adobe Illustrator 19.2.1, SVG Export Plug-In . SVG Version: 6.00 Build 0)  -->
<svg version="1.1" id="Layer_1" xmlns="http://www.w3.org/2000/svg" xmlns:xlink="http://www.w3.org/1999/xlink" x="0px" y="0px"
	 viewBox="0 0 123 40" style="enable-background:new 0 0 123 40;" xml:space="preserve">
<circle style="fill:#9E1D20;" cx="81.5" cy="27" r="3"/>
<path style="fill:#36374C;" d="M9.3,8.1h4.2v25.5c0,4-3.3,6-6.7,6c-4.2,0-6.4-2.4-6.4-5.5c0,0,0-1.5,0.4-2.3c1.2,0,2.5,0,3.8,0
	c-0.3,0.6-0.3,1.5-0.3,1.8c0,1.6,1.2,2.4,2.5,2.4c1.4,0,2.6-0.8,2.6-2.6V8.1z M8.5,3.2c0,1.6,1.2,2.9,2.9,2.9s2.9-1.2,2.9-2.9
	S13,0.3,11.3,0.3S8.5,1.6,8.5,3.2z"/>
<path style="fill:#36374C;" d="M32.8,27.1c-0.7,1-1.7,1.7-2.9,2.2c-1.2,0.5-2.4,0.7-3.7,0.7c-0.8,0-1.6-0.1-2.4-0.3
	c-0.8-0.2-1.5-0.6-2.2-1.1c-0.7-0.5-1.2-1.1-1.6-1.9c-0.4-0.8-0.6-1.7-0.6-2.9c0-2.1,0.7-3.8,2.2-5.1c1.5-1.3,3.6-1.9,6.5-1.9
	c0.5,0,0.9,0,1.4,0c0.5,0,1,0.1,1.4,0.1c0.5,0,0.9,0.1,1.2,0.1c0.3,0,0.6,0.1,0.7,0.1v-0.7c0-1.5-0.4-2.5-1.3-3.2
	c-0.9-0.6-2.1-1-3.6-1c-1.5,0-2.7,0.2-3.6,0.6c-0.9,0.4-1.6,0.8-2.2,1.3l-1.8-2.6c0.3-0.3,0.8-0.6,1.2-0.9c0.5-0.3,1-0.5,1.7-0.8
	c0.7-0.2,1.4-0.4,2.2-0.6c0.8-0.2,1.8-0.2,2.9-0.2c2.6,0,4.6,0.6,6,1.9c1.5,1.2,2.2,3,2.2,5.3v11.5c0,0.7,0,1.3,0,1.7h-3.6
	L32.8,27.1z M32.8,20.1c-0.1,0-0.3-0.1-0.7-0.1c-0.3,0-0.7-0.1-1.1-0.1c-0.4,0-0.9-0.1-1.4-0.1c-0.5,0-1,0-1.4,0
	c-1.1,0-2,0.1-2.6,0.4c-0.7,0.3-1.2,0.6-1.6,1c-0.4,0.4-0.6,0.8-0.8,1.3c-0.1,0.5-0.2,0.9-0.2,1.3c0,1.1,0.4,1.9,1.1,2.4
	c0.7,0.6,1.8,0.8,3.1,0.8c0.7,0,1.4-0.1,2.1-0.4c0.7-0.3,1.3-0.6,1.8-1c0.5-0.4,0.9-0.9,1.2-1.5c0.3-0.6,0.5-1.1,0.5-1.7V20.1z"/>
<path style="fill:#36374C;" d="M43.4,12.9h-3.6V9.7h3.6V3.2h3.8v6.5H53v3.2h-5.8v9.8c0,1.6,0.2,2.7,0.7,3.3c0.5,0.6,1.2,0.9,2.1,0.9
	c0.7,0,1.3-0.1,1.8-0.3c0.5-0.2,1-0.6,1.4-1l1.7,2.3c-0.8,0.8-1.7,1.4-2.5,1.7c-0.9,0.4-1.9,0.5-3.1,0.5c-2.1,0-3.6-0.6-4.6-1.7
	c-1-1.1-1.5-2.9-1.5-5.3V12.9z"/>
<path style="fill:#36374C;" d="M70.4,27.1c-0.7,1-1.7,1.7-2.9,2.2c-1.2,0.5-2.4,0.7-3.7,0.7c-0.8,0-1.6-0.1-2.4-0.3
	c-0.8-0.2-1.5-0.6-2.2-1.1c-0.7-0.5-1.2-1.1-1.6-1.9c-0.4-0.8-0.6-1.7-0.6-2.9c0-2.1,0.7-3.8,2.2-5.1c1.5-1.3,3.6-1.9,6.5-1.9
	c0.5,0,0.9,0,1.4,0c0.5,0,1,0.1,1.4,0.1c0.5,0,0.9,0.1,1.2,0.1c0.3,0,0.6,0.1,0.7,0.1v-0.7c0-1.5-0.4-2.5-1.3-3.2
	c-0.9-0.6-2.1-1-3.6-1c-1.5,0-2.7,0.2-3.6,0.6c-0.9,0.4-1.6,0.8-2.2,1.3l-1.8-2.6c0.3-0.3,0.8-0.6,1.2-0.9c0.5-0.3,1-0.5,1.7-0.8
	c0.7-0.2,1.4-0.4,2.2-0.6c0.8-0.2,1.8-0.2,2.9-0.2c2.6,0,4.6,0.6,6,1.9c1.5,1.2,2.2,3,2.2,5.3v11.5c0,0.7,0,1.3,0,1.7h-3.6
	L70.4,27.1z M70.4,20.1c-0.1,0-0.3-0.1-0.7-0.1c-0.3,0-0.7-0.1-1.1-0.1c-0.4,0-0.9-0.1-1.4-0.1c-0.5,0-1,0-1.4,0
	c-1.1,0-2,0.1-2.6,0.4c-0.7,0.3-1.2,0.6-1.6,1c-0.4,0.4-0.6,0.8-0.8,1.3c-0.1,0.5-0.2,0.9-0.2,1.3c0,1.1,0.4,1.9,1.1,2.4
	c0.7,0.6,1.8,0.8,3.1,0.8c0.7,0,1.4-0.1,2.1-0.4c0.7-0.3,1.3-0.6,1.8-1c0.5-0.4,0.9-0.9,1.2-1.5c0.3-0.6,0.5-1.1,0.5-1.7V20.1z"/>
<path style="fill:#9E1D20;" d="M89.2,29.2v-18c0-0.6,0-1.3,0-1.9h3.7l0.1,3.2c0.2-0.3,0.5-0.7,0.9-1.1c0.4-0.4,0.8-0.8,1.3-1.1
	c0.5-0.3,1.1-0.6,1.8-0.9c0.7-0.2,1.5-0.4,2.4-0.4c0.4,0,0.8,0,1.2,0.1c0.4,0.1,0.7,0.1,1,0.3l-0.9,3.6c-0.5-0.2-1.2-0.3-2-0.3
	c-0.8,0-1.6,0.2-2.3,0.5c-0.7,0.3-1.3,0.7-1.8,1.3c-0.5,0.6-0.9,1.2-1.2,1.9c-0.3,0.7-0.4,1.5-0.4,2.4v10.5H89.2z"/>
<path style="fill:#9E1D20;" d="M104.6,9.4h3.8V21c0,1.9,0.4,3.2,1.2,4.1c0.8,0.8,1.9,1.3,3.3,1.3c1.1,0,2-0.2,2.8-0.7
	c0.7-0.5,1.3-1,1.8-1.8c0.5-0.7,0.8-1.6,1-2.5c0.2-0.9,0.3-1.9,0.3-2.8V9.4h3.8v17.9c0,0.6,0,1.3,0,2h-3.7l-0.1-3
	c-0.3,0.3-0.6,0.7-0.9,1.1c-0.4,0.4-0.8,0.8-1.4,1.1s-1.2,0.6-1.9,0.8c-0.7,0.2-1.5,0.3-2.4,0.3c-2.6,0-4.5-0.7-5.7-2.2
	c-1.2-1.5-1.8-3.5-1.8-6.1V9.4z"/>
</svg>
