<svg id="Layer_1" xmlns="http://www.w3.org/2000/svg" viewBox="0 0 230 230"><style>.st0,.st1{opacity:.9;fill:#9e1d21;enable-background:new}.st1{opacity:.85;fill:#008294}</style><path class="st0" d="M42.1 209.3V230H0v-41.4h20.7v17s0 3.4 4.4 3.4c4.8.3 17 .3 17 .3z"/><path class="st1" d="M187.9 209.3V230H230v-41.4h-20.7v17s0 3.4-4.4 3.4c-4.8.3-17 .3-17 .3zM42.1 20.7V0H0v41.4h20.7v-17s0-3.5 4.4-3.5 17-.2 17-.2z"/><path class="st0" d="M187.9 20.7V0H230v41.4h-20.7v-17s0-3.5-4.4-3.5c-4.1-.2-17-.2-17-.2z"/></svg>