<svg xmlns="http://www.w3.org/2000/svg" viewBox="0 0 100 91"><path d="M64.4 73l-2.2-2.2c-.3-.3-.9 0-.6 0L59.4 73s2.5 2.5 5 0z" opacity=".85" fill="#008294"/><path d="M42.1 68.7c2.2-2.2 0-4 0-4l-1.9 1.9c-.3.3 0 .6 0 .6.1 0 1.9 1.5 1.9 1.5z" fill="#9e1d21"/><path d="M43.1 64.7c.6.3 1.2 1.2 1.2 1.2s.3.6 0 .6l-1.9 1.9c2.2-1.5 1.3-3.1.7-3.7z" fill="#158598"/><path d="M42.7 31.9c-2.2 2.2 0 4 0 4l2.2-2.2-2.2-1.8z" fill="#9e1d21"/><path d="M42.4 31.3c-2.5 2.5 0 5 0 5L40 33.7l2.4-2.4zM19.8 41.5c-2.2 2.2 0 4 0 4l1.5-1.5c.3-.3.3-.6 0-.9-.2-.1-1.5-1.6-1.5-1.6z" opacity=".85" fill="#008294"/><path d="M78 41.5c2.2 2.2 0 4 0 4l-2.2-2.2 2.2-1.8zM53.3 21.1c2.2-2.2 4 0 4 0l-2.2 2.2-1.8-2.2z" fill="#9e1d21"/><path d="M44.3 51.4l.3.3c.6.6 1.5.6 2.2 0l.3-.3c.6-.6.6-1.5 0-2.2l-.3-.3c-.6-.6-1.5-.6-2.2 0l-.3.3c-.6.6-.6 1.6 0 2.2zM40.9 54.5l.3.3c.6.6 1.5.6 2.2 0l.3-.3c.6-.6.6-1.5 0-2.2l-.3-.3c-.6-.6-1.5-.6-2.2 0l-.3.3c-.6.9-.6 1.9 0 2.2zM37.8 51.4l.3.3c.6.6 1.5.6 2.2 0l.3-.3c.6-.6.6-1.5 0-2.2l-.3-.3c-.6-.6-1.5-.6-2.2 0l-.3.3c-.6.6-.6 1.6 0 2.2zM40.9 48l.3.3c.6.6 1.5.6 2.2 0l.3-.3c.6-.6.6-1.5 0-2.2l-.3-.3c-.6-.6-1.5-.6-2.2 0l-.3.3c-.6.6-.6 1.6 0 2.2zM37.5 44.6l.3.3c.6.6 1.5.6 2.2 0l.3-.3c.6-.6.6-1.5 0-2.2l-.3-.3c-.6-.6-1.5-.6-2.2 0l-.3.3c-.3.9-.3 1.6 0 2.2zM34.4 41.5l.3.3c.6.6 1.5.6 2.2 0l.3-.3c.6-.6.6-1.5 0-2.2l-.3-.3c-.6-.6-1.5-.6-2.2 0l-.3.3c-.6.6-.6 1.6 0 2.2zM37.8 38.1l.3.3c.6.6 1.5.6 2.2 0l.3-.3c.6-.6.6-1.5 0-2.2l-.6-.3c-.6-.6-1.5-.6-2.2 0l-.3.3c-.3.6-.3 1.6.3 2.2zM40.9 41.5l.3.3c.6.6 1.5.6 2.2 0l.3-.3c.6-.6.6-1.5 0-2.2l-.3-.3c-.6-.6-1.5-.6-2.2 0l-.3.3c-.6.6-.6 1.6 0 2.2zM44.3 44.6l.3.3c.6.6 1.5.6 2.2 0l.3-.3c.6-.6.6-1.5 0-2.2l-.3-.3c-.6-.6-1.5-.6-2.2 0l-.3.3c-.6.9-.6 1.9 0 2.2z" opacity=".85" fill="#008294"/><path d="M47.7 48l.3.3c.6.6 1.5.6 2.2 0l.3-.3c.6-.6.6-1.5 0-2.2l-.3-.3c-.6-.6-1.5-.6-2.2 0l-.3.3c-.6.6-.6 1.6 0 2.2z" fill="#158598"/><path d="M50.8 51.1l.3.3c.6.6 1.5.6 2.2 0l.3-.3c.6-.6.6-1.5 0-2.2l-.3-.3c-.6-.6-1.5-.6-2.2 0l-.3.3c-.6.9-.6 1.9 0 2.2zM54.2 54.5l.3.3c.6.6 1.5.6 2.2 0l.3-.3c.6-.6.6-1.5 0-2.2l-.3-.3c-.6-.6-1.5-.6-2.2 0l-.3.3c-.6.6-.6 1.6 0 2.2zM47.4 54.5l.3.3c.6.6 1.5.6 2.2 0l.3-.3c.6-.6.6-1.5 0-2.2l-.3-.3c-.6-.6-1.5-.6-2.2 0l-.3.3c-.6.6-.6 1.6 0 2.2zM44.3 57.9l.3.3c.6.6 1.5.6 2.2 0l.3-.3c.6-.6.6-1.5 0-2.2l-.3-.3c-.6-.6-1.5-.6-2.2 0l-.3.3c-.6.6-.6 1.6 0 2.2zM47.4 61l.3.3c.6.6 1.5.6 2.2 0l.3-.3c.6-.6.6-1.5 0-2.2l-.3-.3c-.6-.6-1.5-.6-2.2 0l-.3.3c-.6.9-.6 1.9 0 2.2zM44.3 64.4l.3.3c.6.6 1.5.6 2.2 0l.3-.3c.6-.6.6-1.5 0-2.2l-.3-.3c-.6-.6-1.5-.6-2.2 0l-.3.3c-.6.6-.6 1.6 0 2.2zM47.4 67.5l.3.3c.6.6 1.5.6 2.2 0l.3-.3c.6-.6.6-1.5 0-2.2l-.3-.3c-.6-.6-1.5-.6-2.2 0l-.3.3c-.6.6-.6 1.6 0 2.2zM44.3 70.9l.3.3c.6.6 1.5.6 2.2 0l.3-.3c.6-.6.6-1.5 0-2.2l-.3-.3c-.6-.6-1.5-.6-2.2 0l-.3.3c-.6.6-.6 1.6 0 2.2zM47.4 74l.3.3c.6.6 1.5.6 2.2 0l.3-.3c.6-.6.6-1.5 0-2.2l-.3-.3c-.6-.6-1.5-.6-2.2 0l-.3.3c-.6.9-.6 1.9 0 2.2zM50.8 70.9l.3.3c.6.6 1.5.6 2.2 0l.3-.3c.6-.6.6-1.5 0-2.2l-.3-.3c-.6-.6-1.5-.6-2.2 0l-.3.3c-.6.6-.6 1.6 0 2.2zM50.8 64.4l.3.3c.6.6 1.5.6 2.2 0l.3-.3c.6-.6.6-1.5 0-2.2l-.3-.3c-.6-.6-1.5-.6-2.2 0l-.3.3c-.6.6-.6 1.6 0 2.2zM53.9 67.5l.3.3c.6.6 1.5.6 2.2 0l.3-.3c.6-.6.6-1.5 0-2.2l-.3-.3c-.6-.6-1.5-.6-2.2 0l-.3.3c-.6.9-.6 1.9 0 2.2zM57.3 70.9l.3.3c.6.6 1.5.6 2.2 0l.3-.3c.6-.6.6-1.5 0-2.2l-.3-.3c-.6-.6-1.5-.6-2.2 0l-.3.3c-.6.6-.6 1.6 0 2.2zM60.4 67.5l.3.3c.6.6 1.5.6 2.2 0l.3-.3c.6-.6.6-1.5 0-2.2l-.3-.3c-.6-.6-1.5-.6-2.2 0l-.3.3c-.6.6-.6 1.6 0 2.2zM65 67.5l-2.2 2.2c-.3.3 0 .9 0 .6l2.2 2.2s2.5-2.9 0-5zM74.3 69.9l-2.2-2.2c-.3-.3-.9 0-.6 0l-2.2 2.2s2.5 2.5 5 0zM74.9 64.1l-2.2 2.2c-.3.3 0 .9 0 .6l2.2 2.2s2.5-2.6 0-5zM84.2 66.5L82 64.3c-.3-.3-.9 0-.6 0l-2.2 2.2s2.5 2.5 5 0zM84.8 60.7l-2.2 2.2c-.3.3 0 .9 0 .6l2.2 2.2s2.5-2.6 0-5zM54.5 76.1l-2.2-2.2c-.3-.3-.9 0-.6 0l-2.2 2.2s2.5 2.5 5 0zM55.1 70.6l-2.2 2.2c-.3.3 0 .9 0 .6l2.2 2.2s2.5-2.6 0-5zM57.3 64.4l.3.3c.6.6 1.5.6 2.2 0l.3-.3c.6-.6.6-1.5 0-2.2l-.3-.3c-.6-.6-1.5-.6-2.2 0l-.3.3c-.6.6-.6 1.6 0 2.2zM63.8 64.1l.3.3c.6.6 1.5.6 2.2 0l.3-.3c.6-.6.6-1.5 0-2.2l-.3-.3c-.6-.6-1.5-.6-2.2 0l-.3.3c-.6.9-.6 1.9 0 2.2zM67.2 67.5l.3.3c.6.6 1.5.6 2.2 0l.3-.3c.6-.6.6-1.5 0-2.2l-.3-.3c-.6-.6-1.5-.6-2.2 0l-.3.3c-.6.6-.6 1.6 0 2.2zM70.3 64.1l.3.3c.6.6 1.5.6 2.2 0l.3-.3c.6-.6.6-1.5 0-2.2l-.3-.3c-.6-.6-1.5-.6-2.2 0l-.3.3c-.6.9-.6 1.9 0 2.2zM67.2 61l.3.3c.6.6 1.5.6 2.2 0l.3-.3c.6-.6.6-1.5 0-2.2l-.3-.3c-.6-.6-1.5-.6-2.2 0l-.3.3c-.6.6-.6 1.6 0 2.2zM53.9 61l.3.3c.6.6 1.5.6 2.2 0l.3-.3c.6-.6.6-1.5 0-2.2l-.3-.3c-.6-.6-1.5-.6-2.2 0l-.3.3c-.6.6-.6 1.6 0 2.2zM60.7 61l.3.3c.6.6 1.5.6 2.2 0l.3-.3c.6-.6.6-1.5 0-2.2l-.3-.3c-.6-.6-1.5-.6-2.2 0l-.3.3c-.6.6-.6 1.6 0 2.2zM57.3 57.6l.3.3c.6.6 1.5.6 2.2 0l.3-.3c.6-.6.6-1.5 0-2.2l-.3-.3c-.6-.6-1.5-.6-2.2 0l-.3.3c-.6.9-.6 1.9 0 2.2zM63.8 57.6l.3.3c.6.6 1.5.6 2.2 0l.3-.3c.6-.6.6-1.5 0-2.2l-.3-.3c-.6-.6-1.5-.6-2.2 0l-.3.3c-.6.9-.6 1.9 0 2.2zM60.7 54.5l.3.3c.6.6 1.5.6 2.2 0l.3-.3c.6-.6.6-1.5 0-2.2l-.3-.3c-.6-.6-1.5-.6-2.2 0l-.3.3c-.6.6-.6 1.6 0 2.2zM67.2 54.5l.3.3c.6.6 1.5.6 2.2 0l.3-.3c.6-.6.6-1.5 0-2.2l-.3-.3c-.6-.6-1.5-.6-2.2 0l-.3.3c-.6.6-.6 1.6 0 2.2zM63.8 51.1l.3.3c.6.6 1.5.6 2.2 0l.3-.3c.6-.6.6-1.5 0-2.2l-.3-.3c-.6-.6-1.5-.6-2.2 0l-.3.3c-.6.9-.6 1.9 0 2.2zM70.3 51.1l.6.6c.6.6 1.5.6 2.2 0l.3-.3c.6-.6.6-1.5 0-2.2l-.6-.6c-.6-.6-1.5-.6-2.2 0l-.3.3c-.6.9-.6 1.9 0 2.2zM67.2 48l.3.3c.6.6 1.5.6 2.2 0l.3-.3c.6-.6.6-1.5 0-2.2l-.3-.3c-.6-.6-1.5-.6-2.2 0l-.3.3c-.6.6-.6 1.6 0 2.2zM79.9 61l.3.3c.6.6 1.5.6 2.2 0l.3-.3c.6-.6.6-1.5 0-2.2l-.3-.3c-.6-.6-1.5-.6-2.2 0l-.3.3c-.3.6-.3 1.6 0 2.2zM76.8 57.6l.3.3c.6.6 1.5.6 2.2 0l.3-.3c.6-.6.6-1.5 0-2.2l-.3-.3c-.6-.6-1.5-.6-2.2 0l-.3.3c-.6.9-.6 1.9 0 2.2zM73.7 54.5l.3.3c.6.6 1.5.6 2.2 0l.3-.3c.6-.6.6-1.5 0-2.2l-.3-.3c-.6-.6-1.5-.6-2.2 0l-.3.3c-.6.6-.6 1.6 0 2.2zM63.8 44.6l.3.3c.6.6 1.5.6 2.2 0l.3-.3c.6-.6.6-1.5 0-2.2l-.3-.3c-.6-.6-1.5-.6-2.2 0l-.3.3c-.6.9-.6 1.9 0 2.2zM57.3 38.4l.3.3c.6.6 1.5.6 2.2 0l.3-.3c.6-.6.6-1.5 0-2.2l-.3-.3c-.6-.6-1.5-.6-2.2 0l-.3.3c-.6.6-.6 1.6 0 2.2zM53.9 35l.3.3c.6.6 1.5.6 2.2 0l.3-.3c.6-.6.6-1.5 0-2.2l-.3-.3c-.6-.6-1.5-.6-2.2 0l-.3.3c-.6.6-.6 1.6 0 2.2zM60.7 41.5l.3.3c.6.6 1.5.6 2.2 0l.3-.3c.6-.6.6-1.5 0-2.2l-.3-.3c-.6-.6-1.5-.6-2.2 0l-.3.3c-.6.6-.6 1.6 0 2.2zM37.8 25.1l.3.3c.6.6 1.5.6 2.2 0l.3-.3c.6-.6.6-1.5 0-2.2l-.3-.3c-.6-.6-1.5-.6-2.2 0l-.3.3c-.6.6-.6 1.6 0 2.2zM34.4 28.2l.3.3c.6.6 1.5.6 2.2 0l.3-.3c.6-.6.6-1.5 0-2.2l-.3-.3c-.6-.6-1.5-.6-2.2 0l-.3.3c-.6.9-.6 1.9 0 2.2zM31.3 31.6l.3.3c.6.6 1.5.6 2.2 0l.3-.3c.6-.6.6-1.5 0-2.2l-.3-.3c-.6-.6-1.5-.6-2.2 0l-.3.3c-.6.6-.6 1.6 0 2.2zM40.9 28.5l.3.3c.6.6 1.5.6 2.2 0l.3-.3c.6-.6.6-1.5 0-2.2l-.3-.3c-.6-.6-1.5-.6-2.2 0l-.3.3c-.6.6-.6 1.6 0 2.2zM37.8 31.6l.3.3c.6.6 1.5.6 2.2 0l.3-.3c.6-.6.6-1.5 0-2.2l-.3-.3c-.6-.6-1.5-.6-2.2 0l-.3.3c-.6.6-.6 1.6 0 2.2zM34.4 35l.3.3c.6.6 1.5.6 2.2 0l.3-.3c.6-.6.6-1.5 0-2.2l-.3-.3c-.6-.6-1.5-.6-2.2 0l-.3.3c-.6.6-.6 1.6 0 2.2zM31 38.1l.3.3c.6.6 1.5.6 2.2 0l.3-.3c.6-.6.6-1.5 0-2.2l-.3-.3c-.6-.6-1.5-.6-2.2 0l-.3.6c-.6.6-.6 1.6 0 1.9zM27.9 41.5l.3.3c.6.6 1.5.6 2.2 0l.3-.3c.6-.6.6-1.5 0-2.2l-.3-.3c-.6-.6-1.5-.6-2.2 0l-.3.3c-.6.6-.6 1.6 0 2.2zM24.5 44.6l.3.3c.6.6 1.5.6 2.2 0l.3-.3c.6-.6.6-1.5 0-2.2l-.3-.3c-.6-.6-1.5-.6-2.2 0l-.3.6c-.6.6-.6 1.6 0 1.9zM27.9 35l.3.3c.6.6 1.5.6 2.2 0l.3-.3c.6-.6.6-1.5 0-2.2l-.3-.3c-.6-.6-1.5-.6-2.2 0l-.3.3c-.6.6-.6 1.6 0 2.2zM24.5 38.1l.3.3c.6.6 1.5.6 2.2 0l.3-.3c.6-.6.6-1.5 0-2.2l-.3-.3c-.6-.6-1.5-.6-2.2 0l-.3.6c-.6.3-.6 1.3 0 1.9zM21.4 41.5l.3.3c.6.6 1.5.6 2.2 0l.3-.3c.6-.6.6-1.5 0-2.2l-.3-.3c-.6-.6-1.5-.6-2.2 0l-.3.3c-.6.6-.6 1.6 0 2.2zM21.4 48l.3.3c.6.6 1.5.6 2.2 0l.3-.3c.6-.6.6-1.5 0-2.2l-.3-.3c-.6-.6-1.5-.6-2.2 0l-.3.3c-.6.6-.6 1.6 0 2.2zM44.3 21.1c-2.2-2.2-4 0-4 0l1.5 1.5c.3.3.6.3.9 0 .4 0 1.6-1.5 1.6-1.5zM44.3 25.1l.3.3c.6.6 1.5.6 2.2 0l.3-.3c.6-.6.6-1.5 0-2.2l-.3-.3c-.6-.6-1.5-.6-2.2 0l-.3.3c-.6.6-.6 1.6 0 2.2zM32.8 21.1l.3.3c.6.6 1.5.6 2.2 0l.3-.3c.6-.6.6-1.5 0-2.2l-.3-.3c-.6-.6-1.5-.6-2.2 0l-.3.3c-.6.6-.6 1.5 0 2.2zM29.4 24.1l.3.3c.6.6 1.5.6 2.2 0l.3-.3c.6-.6.6-1.5 0-2.2l-.3-.3c-.6-.6-1.5-.6-2.2 0l-.3.4c-.3.6-.3 1.5 0 2.1zM26.3 27.6l.3.3c.6.6 1.5.6 2.2 0l.3-.3c.6-.6.6-1.5 0-2.2l-.3-.3c-.6-.6-1.5-.6-2.2 0l-.3.3c-.6.6-.6 1.5 0 2.2zM22.9 31l.3.3c.6.6 1.5.6 2.2 0l.3-.3c.6-.6.6-1.5 0-2.2l-.3-.3c-.6-.6-1.5-.6-2.2 0l-.3.3c-.6.6-.6 1.5 0 2.2zM19.8 34.1l.3.3c.6.6 1.5.6 2.2 0l.3-.3c.6-.6.6-1.5 0-2.2l-.3-.3c-.6-.6-1.5-.6-2.2 0l-.3.3c-.6.6-.6 1.5 0 2.2zM16.4 37.5l.3.3c.6.6 1.5.6 2.2 0l.3-.3c.6-.6.6-1.5 0-2.2l-.3-.3c-.6-.6-1.5-.6-2.2 0l-.3.3c-.6.6-.6 1.5 0 2.2z" opacity=".85" fill="#008294"/><path d="M29.4 17.7l.3.3c.6.6 1.5.6 2.2 0l.6-.3c.6-.6.6-1.5 0-2.2l-.3-.3c-.6-.6-1.5-.6-2.2 0l-.3.3c-.9.6-.9 1.5-.3 2.2z" fill="#158598"/><path d="M26.3 20.7l.3.3c.6.6 1.5.6 2.2 0l.3-.3c.6-.6.6-1.5 0-2.2l-.3-.3c-.6-.6-1.5-.6-2.2 0l-.3.3c-.6 1-.6 1.9 0 2.2zM22.9 24.1l.3.3c.6.6 1.5.6 2.2 0l.3-.3c.6-.6.6-1.5 0-2.2l-.3-.3c-.6-.6-1.5-.6-2.2 0l-.3.4c-.6.6-.6 1.5 0 2.1zM19.5 27.6l.3.3c.6.6 1.5.6 2.2 0l.3-.3c.6-.6.6-1.5 0-2.2l-.3-.3c-.6-.6-1.5-.6-2.2 0l-.3.3c-.6.6-.6 1.5 0 2.2zM16.4 30.6l.3.3c.6.6 1.5.6 2.2 0l.3-.3c.6-.6.6-1.5 0-2.2l-.3-.3c-.6-.6-1.5-.6-2.2 0l-.3.3c-.6.7-.6 1.6 0 2.2zM13 34.1l.3.3c.6.6 1.5.6 2.2 0l.3-.3c.6-.6.6-1.5 0-2.2l-.3-.3c-.6-.6-1.5-.6-2.2 0l-.3.3c-.6.6-.6 1.5 0 2.2z" opacity=".85" fill="#008294"/><path d="M33.5 73l2.2-2.2c.3-.3.9 0 .6 0l2.2 2.2s-2.6 2.5-5 0zM32.8 67.2l2.2 2.2c.3.3 0 .9 0 .6l-2.2 2.2s-2.4-2.6 0-5zM23.6 69.6l2.2-2.2c.3-.3.9 0 .6 0l2.2 2.2s-2.6 2.5-5 0zM22.9 64.1l2.2 2.2c.3.3 0 .9 0 .6l-2.2 2.2s-2.4-2.6 0-5zM13.7 66.2l2.2-2.2c.3-.3.9 0 .6 0l2.2 2.2s-2.6 2.5-5 0zM13 60.7l2.2 2.2c.3.3 0 .9 0 .6L13 65.7s-2.4-2.6 0-5zM43.4 76.1l2.2-2.2c.3-.3.9 0 .6 0l2.2 2.2s-2.9 2.5-5 0zM42.4 70.6l2.2 2.2c.3.3 0 .9 0 .6l-2.2 2.2s-2.4-2.6 0-5zM37.8 70.9l.3.3c.6.6 1.5.6 2.2 0l.3-.3c.6-.6.6-1.5 0-2.2l-.3-.3c-.6-.6-1.5-.6-2.2 0l-.3.3c-.6.6-.6 1.6 0 2.2zM34.4 67.5l.3.3c.6.6 1.5.6 2.2 0l.3-.3c.6-.6.6-1.5 0-2.2l-.3-.3c-.6-.6-1.5-.6-2.2 0l-.3.3c-.6.6-.6 1.6 0 2.2zM31.3 64.4l.3.3c.6.6 1.5.6 2.2 0l.3-.3c.6-.6.6-1.5 0-2.2l-.3-.3c-.6-.6-1.5-.6-2.2 0l-.3.3c-.6.6-.6 1.6 0 2.2zM27.9 61l.3.3c.6.6 1.5.6 2.2 0l.3-.3c.6-.6.6-1.5 0-2.2l-.3-.3c-.6-.6-1.5-.6-2.2 0l-.3.3c-.6.6-.6 1.6 0 2.2zM27.9 67.5l.3.3c.6.6 1.5.6 2.2 0l.3-.3c.6-.6.6-1.5 0-2.2l-.3-.3c-.6-.6-1.5-.6-2.2 0l-.3.3c-.6.6-.6 1.6 0 2.2zM24.8 64.4l.3.3c.6.6 1.5.6 2.2 0l.3-.3c.6-.6.6-1.5 0-2.2l-.3-.3c-.6-.6-1.5-.6-2.2 0l-.3.3c-.6.6-.6 1.6 0 2.2zM37.2 63.8c2.2-2.2 4 0 4 0l-1.9 1.9c-.4.4-.6 0-.6 0 0-.4-1.5-1.9-1.5-1.9z" fill="#9e1d21"/><path d="M40.9 62.5c-.3-.6-1.2-1.2-1.2-1.2s-.7-.3-.7 0l-1.9 1.9c1.9-2.2 3.2-1.3 3.8-.7z" fill="#158598"/><path d="M38.7 58.8c2.2-2.2 0-4 0-4l-1.9 1.9c-.3.3 0 .6 0 .6.4 0 1.9 1.5 1.9 1.5z" fill="#9e1d21"/><path d="M40 55.1c.6.3 1.2 1.2 1.2 1.2s.3.6 0 .6l-1.9 1.9c2.2-1.9 1.3-3.1.7-3.7z" fill="#158598"/><path d="M33.8 53.9c2.2-2.2 4 0 4 0l-1.9 1.9c-.4.4-.6 0-.6 0 0-.4-1.5-1.9-1.5-1.9z" fill="#9e1d21"/><path d="M37.5 52.9c-.3-.6-1.2-1.2-1.2-1.2s-.6-.3-.6 0c-.3 0-1.9 1.5-1.9 1.5 1.8-1.8 3.4-.9 3.7-.3z" fill="#158598"/><path d="M35.3 48.9c2.2-2.2 0-4 0-4l-1.9 1.9c-.3.3 0 .6 0 .6.4 0 1.9 1.5 1.9 1.5z" fill="#9e1d21"/><path d="M36.6 45.2c.6.3 1.2 1.2 1.2 1.2s.3.6 0 .6l-1.9 1.9c2.2-1.9 1.3-3.1.7-3.7z" fill="#158598"/><path d="M30.4 44c2.2-2.2 4 0 4 0l-1.9 1.9c-.3.3-.6 0-.6 0L30.4 44z" fill="#9e1d21"/><path d="M34.1 43c-.3-.6-1.2-1.2-1.2-1.2s-.6-.3-.6 0l-1.9 1.9c1.8-2.2 3.4-1.3 3.7-.7z" opacity=".85" fill="#008294"/><path d="M56.7 49.8c2.2 2.2 4 0 4 0l-1.9-1.9c-.3-.3-.6 0-.6 0 0 .4-1.5 1.9-1.5 1.9z" fill="#9e1d21"/><path d="M60.7 51.1c-.3.6-1.2 1.2-1.2 1.2s-.6.3-.6 0c-.4-.3-1.9-1.8-1.9-1.8 1.5 1.8 3.1 1.2 3.7.6z" opacity=".85" fill="#008294"/><path d="M61.6 44.9c2.2 2.2 0 4 0 4L59.7 47c-.3-.3 0-.6 0-.6.4 0 1.9-1.5 1.9-1.5z" fill="#9e1d21"/><path d="M62.9 48.6c.6-.3 1.2-1.2 1.2-1.2s.3-.6 0-.6l-1.9-1.9c2.2 1.8 1.3 3.1.7 3.7z" opacity=".85" fill="#008294"/><path d="M54.2 48l.3.3c.6.6 1.5.6 2.2 0l.3-.3c.6-.6.6-1.5 0-2.2l-.3-.3c-.6-.6-1.5-.6-2.2 0l-.3.3c-.6.6-.6 1.6 0 2.2zM34.4 61l.3.3c.6.6 1.5.6 2.2 0l.3-.3c.6-.6.6-1.5 0-2.2l-.3-.3c-.6-.6-1.5-.6-2.2 0l-.3.3c-.6.6-.6 1.6 0 2.2zM31.3 57.9l.3.3c.6.6 1.5.6 2.2 0l.3-.3c.6-.6.6-1.5 0-2.2l-.3-.3c-.6-.6-1.5-.6-2.2 0l-.3.3c-.6.6-.6 1.6 0 2.2zM24.5 57.6l.3.3c.6.6 1.5.6 2.2 0l.3-.3c.6-.6.6-1.5 0-2.2l-.3-.3c-.6-.6-1.5-.6-2.2 0l-.3.3c-.6.6-.6 1.5 0 2.2zM21.4 54.5l.3.3c.6.6 1.5.6 2.2 0l.3-.3c.6-.6.6-1.5 0-2.2l-.3-.3c-.6-.6-1.5-.6-2.2 0l-.3.3c-.6.6-.6 1.6 0 2.2zM21.4 61l.3.3c.6.6 1.5.6 2.2 0l.3-.3c.6-.6.6-1.5 0-2.2l-.3-.3c-.6-.6-1.5-.6-2.2 0l-.3.3c-.6.6-.6 1.6 0 2.2zM18 57.6l.3.3c.6.6 1.5.6 2.2 0l.3-.3c.6-.6.6-1.5 0-2.2l-.3-.3c-.6-.6-1.5-.6-2.2 0l-.3.3c-.6.9-.6 1.9 0 2.2zM18 64.4l.3.3c.6.6 1.5.6 2.2 0l.3-.3c.6-.6.6-1.5 0-2.2l-.3-.3c-.6-.6-1.5-.6-2.2 0l-.3.3c-.6.6-.6 1.6 0 2.2zM14.6 61l.3.3c.6.6 1.5.6 2.2 0l.3-.3c.6-.6.6-1.5 0-2.2l-.3-.3c-.6-.6-1.5-.6-2.2 0l-.3.3c-.3.6-.3 1.6 0 2.2zM27.9 54.5l.3.3c.6.6 1.5.6 2.2 0l.3-.3c.6-.6.6-1.5 0-2.2l-.3-.3c-.6-.6-1.5-.6-2.2 0l-.3.3c-.6.6-.6 1.6 0 2.2zM24.5 51.1l.3.3c.6.6 1.5.6 2.2 0l.3-.3c.6-.6.6-1.5 0-2.2l-.3-.3c-.6-.6-1.5-.6-2.2 0l-.3.6c-.6.6-.6 1.3 0 1.9zM31.3 51.1l.3.3c.6.6 1.5.6 2.2 0l.3-.3c.6-.6.6-1.5 0-2.2l-.3-.3c-.6-.6-1.5-.6-2.2 0l-.3.3c-.6.9-.6 1.9 0 2.2zM27.9 48l.3.3c.6.6 1.5.6 2.2 0l.3-.3c.6-.6.6-1.5 0-2.2l-.3-.3c-.6-.6-1.5-.6-2.2 0l-.3.3c-.6.6-.6 1.6 0 2.2zM50.8 44.6l.3.3c.6.6 1.5.6 2.2 0l.3-.3c.6-.6.6-1.5 0-2.2l-.3-.3c-.6-.6-1.5-.6-2.2 0l-.3.3c-.6.9-.6 1.6 0 2.2zM47.7 41.5l.3.3c.6.6 1.5.6 2.2 0l.3-.3c.6-.6.6-1.5 0-2.2l-.3-.3c-.6-.6-1.5-.6-2.2 0l-.3.3c-.6.6-.6 1.6 0 2.2zM44.3 38.1l.3.3c.6.6 1.5.6 2.2 0l.3-.3c.6-.6.6-1.5 0-2.2l-.3-.3c-.6-.6-1.5-.6-2.2 0l-.3.3c-.6.6-.6 1.6 0 2.2zM57.3 44.9l.3.3c.6.6 1.5.6 2.2 0l.3-.3c.6-.6.6-1.5 0-2.2l-.3-.3c-.6-.6-1.5-.6-2.2 0l-.3.3c-.6.6-.6 1.6 0 2.2zM54.2 41.5l.3.3c.6.6 1.5.6 2.2 0l.3-.3c.6-.6.6-1.5 0-2.2l-.3-.3c-.6-.6-1.5-.6-2.2 0l-.3.3c-.6.6-.6 1.6 0 2.2zM50.8 38.4l.3.3c.6.6 1.5.6 2.2 0l.3-.3c.6-.6.6-1.5 0-2.2l-.3-.3c-.6-.6-1.5-.6-2.2 0l-.3.3c-.6.6-.6 1.6 0 2.2zM47.4 35l.3.3c.6.6 1.5.6 2.2 0l.3-.3c.6-.6.6-1.5 0-2.2l-.3-.3c-.6-.6-1.5-.6-2.2 0l-.3.3c-.6.6-.6 1.6 0 2.2zM44.3 31.6l.3.3c.6.6 1.5.6 2.2 0l.3-.3c.6-.6.6-1.5 0-2.2l-.3-.3c-.6-.6-1.5-.6-2.2 0l-.3.3c-.6.6-.6 1.6 0 2.2zM50.5 31.6l.3.3c.6.6 1.5.6 2.2 0l.3-.3c.6-.6.6-1.5 0-2.2l-.3-.3c-.6-.6-1.5-.6-2.2 0l-.3.3c-.6.9-.6 1.9 0 2.2zM47.4 28.5l.3.3c.6.6 1.5.6 2.2 0l.3-.3c.6-.6.6-1.5 0-2.2l-.3-.3c-.6-.6-1.5-.6-2.2 0l-.3.3c-.6.6-.6 1.6 0 2.2zM53.9 28.5l.3.3c.6.6 1.5.6 2.2 0l.3-.3c.6-.6.6-1.5 0-2.2l-.3-.3c-.6-.6-1.5-.6-2.2 0l-.3.3c-.6.6-.6 1.6 0 2.2zM50.5 25.1l.3.3c.6.6 1.5.6 2.2 0l.3-.3c.6-.6.6-1.5 0-2.2l-.3-.3c-.6-.6-1.5-.6-2.2 0l-.3.3c-.6.6-.6 1.6 0 2.2zM57 25.1l.3.3c.6.6 1.5.6 2.2 0l.3-.3c.6-.6.6-1.5 0-2.2l-.3-.3c-.6-.6-1.5-.6-2.2 0l-.3.3c-.6.9-.6 1.9 0 2.2zM57.3 31.9l.3.3c.6.6 1.5.6 2.2 0l.3-.3c.6-.6.6-1.5 0-2.2l-.3-.3c-.6-.6-1.5-.6-2.2 0l-.3.3c-.6.6-.6 1.6 0 2.2zM60.4 28.5l.3.3c.6.6 1.5.6 2.2 0l.3-.3c.6-.6.6-1.5 0-2.2l-.3-.3c-.6-.6-1.5-.6-2.2 0l-.3.3c-.6.9-.6 1.9 0 2.2zM60.4 35l.3.3c.6.6 1.5.6 2.2 0l.3-.3c.6-.6.6-1.5 0-2.2l-.3-.3c-.6-.6-1.5-.6-2.2 0l-.3.6c-.6.6-.6 1.6 0 1.9zM63.8 31.9l.3.3c.6.6 1.5.6 2.2 0l.3-.3c.6-.6.6-1.5 0-2.2l-.3-.3c-.6-.6-1.5-.6-2.2 0l-.3.3c-.6.6-.6 1.6 0 2.2zM63.8 38.4l.3.3c.6.6 1.5.6 2.2 0l.3-.3c.6-.6.6-1.5 0-2.2l-.3-.3c-.6-.6-1.5-.6-2.2 0l-.3.3c-.6.6-.6 1.6 0 2.2zM66.9 35l.3.3c.6.6 1.5.6 2.2 0l.3-.3c.6-.6.6-1.5 0-2.2l-.3-.3c-.6-.6-1.5-.6-2.2 0l-.3.6c-.6.3-.6 1.3 0 1.9zM66.9 41.5l.3.3c.6.6 1.5.6 2.2 0l.3-.3c.6-.6.6-1.5 0-2.2l-.3-.3c-.6-.6-1.5-.6-2.2 0l-.3.3c-.6.6-.6 1.6 0 2.2zM70.3 38.4l.3.3c.6.6 1.5.6 2.2 0l.3-.3c.6-.6.6-1.5 0-2.2l-.3-.3c-.6-.6-1.5-.6-2.2 0l-.3.3c-.6.6-.6 1.6 0 2.2zM70.3 44.9l.3.3c.6.6 1.5.6 2.2 0l.3-.3c.6-.6.6-1.5 0-2.2l-.3-.3c-.6-.6-1.5-.6-2.2 0l-.3.3c-.6.6-.6 1.6 0 2.2zM73.4 41.5l.3.3c.6.6 1.5.6 2.2 0l.3-.3c.6-.6.6-1.5 0-2.2l-.3-.3c-.6-.6-1.5-.6-2.2 0l-.3.3c-.6.6-.6 1.6 0 2.2zM73.4 48l.6.6c.6.6 1.5.6 2.2 0l.3-.3c.6-.6.6-1.5 0-2.2l-.6-.6c-.6-.6-1.5-.6-2.2 0l-.3.3c-.6.6-.6 1.6 0 2.2zM64.4 20.4l-.3.3c-.6.6-1.5.6-2.2 0l-.3-.3c-.6-.6-.6-1.5 0-2.2l.3-.3c.6-.6 1.5-.6 2.2 0l.3.3c.6 1 .6 1.9 0 2.2zM67.8 23.8l-.3.3c-.6.6-1.5.6-2.2 0l-.3-.3c-.6-.6-.6-1.5 0-2.2l.3-.3c.6-.6 1.5-.6 2.2 0l.3.3c.6.7.6 1.6 0 2.2zM70.9 27.2l-.3.3c-.6.6-1.5.6-2.2 0l-.3-.3c-.6-.6-.6-1.5 0-2.2l.3-.3c.6-.6 1.5-.6 2.2 0l.3.3c.6.7.6 1.6 0 2.2zM74.3 30.3l-.3.7c-.6.6-1.5.6-2.2 0l-.3-.3c-.6-.6-.6-1.5 0-2.2l.3-.3c.6-.6 1.5-.6 2.2 0l.3.3c.6.6.6 1.5 0 1.8zM77.7 33.7l-.6.3c-.6.6-1.5.6-2.2 0l-.3-.3c-.6-.6-.6-1.5 0-2.2l.3-.3c.6-.6 1.5-.6 2.2 0l.3.3c.9.7.9 1.6.3 2.2zM80.8 36.8l-.3.3c-.6.6-1.5.6-2.2 0l-.3-.3c-.6-.6-.6-1.5 0-2.2l.3-.3c.6-.6 1.5-.6 2.2 0l.3.3c.6 1 .6 1.9 0 2.2zM67.8 17.3l-.3.3c-.6.6-1.5.6-2.2 0l-.3-.3c-.6-.6-.6-1.5 0-2.2l.3-.3c.6-.6 1.5-.6 2.2 0l.3.3c.6.7.6 1.6 0 2.2zM71.2 20.4l-.6.3c-.6.6-1.5.6-2.2 0l-.3-.3c-.6-.6-.6-1.5 0-2.2l.3-.3c.6-.6 1.5-.6 2.2 0l.3.3c.6.7.6 1.6.3 2.2zM74.3 23.8l-.3.3c-.6.6-1.5.6-2.2 0l-.3-.3c-.6-.6-.6-1.5 0-2.2l.3-.3c.6-.6 1.5-.6 2.2 0l.3.3c.6.7.6 1.6 0 2.2zM77.7 26.9l-.3.3c-.6.6-1.5.6-2.2 0l-.3-.3c-.6-.6-.6-1.5 0-2.2l.3-.3c.6-.6 1.5-.6 2.2 0l.3.3c.6 1 .6 1.9 0 2.2zM80.8 30.3l-.3.3c-.6.6-1.5.6-2.2 0l-.3-.3c-.6-.6-.6-1.5 0-2.2l.3-.3c.6-.6 1.5-.6 2.2 0l.3.3c.6.7.6 1.6 0 2.2zM84.2 33.7l-.3.3c-.6.6-1.5.6-2.2 0l-.3-.3c-.6-.6-.6-1.5 0-2.2l.3-.3c.6-.6 1.5-.6 2.2 0l.3.3c.6.7.6 1.6 0 2.2z" fill="#9e1d21"/><path d="M18.3 81.7v9H9s-9 0-9-9v-9h9v7.4s0 1.5 1.9 1.5c2.1.1 7.4.1 7.4.1z" opacity=".9" fill="#9e1d21"/><path d="M81.7 81.7v9H91s9 0 9-9v-9h-9v7.4s0 1.5-1.9 1.5c-2.1.1-7.4.1-7.4.1zM18.3 9.3v-9H9s-9 0-9 9v9h9v-7.4s0-1.5 1.9-1.5 7.4-.1 7.4-.1z" opacity=".85" fill="#008294"/><path d="M81.7 9.3v-9H91s9 0 9 9v9h-9v-7.4s0-1.5-1.9-1.5c-1.8-.1-7.4-.1-7.4-.1z" opacity=".9" fill="#9e1d21"/><path d="M40.9 61l.3.3c.6.6 1.5.6 2.2 0l.3-.3c.6-.6.6-1.5 0-2.2l-.3-.3c-.6-.6-1.5-.6-2.2 0l-.3.3c-.6.6-.6 1.6 0 2.2zM76.8 64.4l.3.3c.6.6 1.5.6 2.2 0l.3-.3c.6-.6.6-1.5 0-2.2l-.3-.3c-.6-.6-1.5-.6-2.2 0l-.3.3c-.6.6-.6 1.6 0 2.2zM73.7 61l.3.3c.6.6 1.5.6 2.2 0l.3-.3c.6-.6.6-1.5 0-2.2l-.3-.3c-.6-.6-1.5-.6-2.2 0l-.3.3c-.6.6-.6 1.6 0 2.2zM70.3 57.9l.3.3c.6.6 1.5.6 2.2 0l.3-.3c.6-.6.6-1.5 0-2.2l-.3-.3c-.6-.6-1.5-.6-2.2 0l-.3.3c-.6.6-.6 1.6 0 2.2zM50.8 57.6l.3.3c.6.6 1.5.6 2.2 0l.3-.3c.6-.6.6-1.5 0-2.2l-.3-.3c-.6-.6-1.5-.6-2.2 0l-.3.3c-.3.6-.3 1.5 0 2.2z" opacity=".85" fill="#008294"/></svg>