<svg xmlns="http://www.w3.org/2000/svg" viewBox="35 0 100 30"><circle cx="115.1" cy="18.4" r="1.5" fill="#9e1d20"/><path d="M80.3 9.3h2v12.3c0 2-1.6 2.9-3.2 2.9-2 0-3.1-1.2-3.1-2.6 0 0 0-.7.2-1.1H78c-.1.3-.2.7-.2.9 0 .8.6 1.1 1.2 1.1.7 0 1.3-.4 1.3-1.3V9.3zm-.4-2.4c0 .8.6 1.4 1.4 1.4s1.4-.6 1.4-1.4-.7-1.4-1.4-1.4-1.4.6-1.4 1.4z" fill="#36374c"/><g fill="#36374c"><path d="M91.6 18.4c-.4.5-.8.8-1.4 1.1s-1.2.4-1.8.4c-.4 0-.8-.1-1.2-.2-.4-.1-.8-.3-1.1-.5-.3-.2-.6-.6-.8-.9s-.3-.8-.3-1.4c0-1 .4-1.9 1.1-2.5s1.8-.9 3.1-.9h2.4v-.4c0-.7-.2-1.2-.7-1.5-.4-.3-1-.5-1.8-.5s-1.3.1-1.7.3-.8.4-1.1.6l-.9-1.3c.2-.1.4-.3.6-.4.2-.1.5-.3.8-.4.3-.1.7-.2 1.1-.3.4-.1.9-.1 1.4-.1 1.2 0 2.2.3 2.9.9s1.1 1.5 1.1 2.5v6.5h-1.7v-1zm0-3.3c-.1 0-.2 0-.3-.1-.2 0-.3 0-.5-.1h-1.4c-.5 0-1 .1-1.3.2-.3.1-.6.3-.8.5-.2.2-.3.4-.4.6-.1.2-.1.4-.1.7 0 .5.2.9.5 1.2.4.3.9.4 1.5.4.4 0 .7-.1 1-.2.3-.1.6-.3.9-.5.2-.2.4-.4.6-.7.2-.3.2-.6.2-.8l.1-1.2zM96.7 11.6H95V10h1.7V6.9h1.9V10h2.8v1.6h-2.8v4.7c0 .8.1 1.3.4 1.6.2.3.6.4 1 .4s.7-.1.9-.2c.2-.1.5-.3.7-.5l.8 1.1c-.4.4-.8.7-1.2.8-.4.2-.9.3-1.5.3-1 0-1.8-.3-2.2-.8-.5-.6-.7-1.4-.7-2.6l-.1-4.8zM109.8 18.4c-.4.5-.8.8-1.4 1.1s-1.2.4-1.8.4c-.4 0-.8-.1-1.2-.2-.4-.1-.8-.3-1.1-.5-.3-.2-.6-.6-.8-.9s-.3-.8-.3-1.4c0-1 .4-1.9 1.1-2.5s1.8-.9 3.1-.9h2.4v-.4c0-.7-.2-1.2-.7-1.5-.4-.3-1-.5-1.8-.5-.7 0-1.3.1-1.7.3s-.8.4-1.1.6l-.9-1.3c.2-.1.4-.3.6-.4.2-.1.5-.3.8-.4.3-.1.7-.2 1.1-.3.4-.1.9-.1 1.4-.1 1.2 0 2.2.3 2.9.9.7.6 1.1 1.5 1.1 2.5v6.5h-1.7v-1zm0-3.3c-.1 0-.2 0-.3-.1-.2 0-.3 0-.5-.1h-1.4c-.5 0-1 .1-1.3.2-.3.1-.6.3-.8.5s-.3.4-.4.6c-.1.2-.1.4-.1.7 0 .5.2.9.5 1.2.4.3.9.4 1.5.4.4 0 .7-.1 1-.2s.6-.3.9-.5c.2-.2.4-.4.6-.7.2-.3.2-.6.2-.8l.1-1.2z"/></g><path d="M118.8 19.5v-8.7-.9h1.8l.1 1.6c.1-.2.3-.3.4-.6.2-.2.4-.4.7-.6.3-.2.6-.3.9-.4.3-.1.7-.2 1.2-.2h.6c.2 0 .3.1.5.1l-.4 1.7c-.2-.1-.6-.1-1-.1s-.8.1-1.1.2l-.9.6-.6.9c-.1.4-.2.7-.2 1.1v5.1l-2 .2zM126.3 9.8h1.9v5.6c0 .9.2 1.6.6 2s.9.6 1.6.6c.5 0 1-.1 1.3-.3.4-.2.6-.5.9-.9.2-.4.4-.8.5-1.2.1-.5.1-.9.1-1.4V9.8h1.9v9.6h-1.8l-.1-1.4c-.1.2-.3.3-.5.5s-.4.4-.7.5c-.3.2-.6.3-.9.4s-.7.2-1.2.2c-1.3 0-2.2-.4-2.8-1.1-.6-.7-.9-1.7-.9-3l.1-5.7z" fill="#9e1d20"/><path d="M55.9 23.9l-.7-.7c-.1-.1-.3 0-.2 0l-.7.7s.8.8 1.6 0z" opacity=".85" fill="#008294"/><path d="M48.7 22.5c.7-.7 0-1.3 0-1.3l-.6.6c-.1.1 0 .2 0 .2l.6.5z" fill="#9e1d21"/><path d="M49 21.2c.2.1.4.4.4.4s.1.2 0 .2l-.6.6c.7-.5.4-1 .2-1.2z" fill="#158598"/><path d="M48.9 10.6c-.7.7 0 1.3 0 1.3l.7-.7-.7-.6z" fill="#9e1d21"/><path d="M48.8 10.4c-.8.8 0 1.6 0 1.6l-.8-.8.8-.8zM41.5 13.7c-.7.7 0 1.3 0 1.3l.5-.5c.1-.1.1-.2 0-.3-.1 0-.5-.5-.5-.5z" opacity=".85" fill="#008294"/><path d="M60.3 13.7c.7.7 0 1.3 0 1.3l-.7-.7.7-.6zM52.3 7.1c.7-.7 1.3 0 1.3 0l-.7.7-.6-.7z" fill="#9e1d21"/><path d="M49.4 16.9l.1.1c.2.2.5.2.7 0l.1-.1c.2-.2.2-.5 0-.7l-.1-.1c-.2-.2-.5-.2-.7 0l-.1.1c-.2.2-.2.5 0 .7zM48.3 17.9l.1.1c.2.2.5.2.7 0l.1-.1c.2-.2.2-.5 0-.7l-.1-.1c-.2-.2-.5-.2-.7 0l-.1.1c-.2.3-.2.6 0 .7zM47.3 16.9l.1.1c.2.2.5.2.7 0l.1-.1c.2-.2.2-.5 0-.7l-.1-.1c-.2-.2-.5-.2-.7 0l-.1.1c-.2.2-.2.5 0 .7zM48.3 15.8l.1.1c.2.2.5.2.7 0l.1-.1c.2-.2.2-.5 0-.7l-.1-.1c-.2-.2-.5-.2-.7 0l-.1.1c-.2.2-.2.5 0 .7zM47.2 14.7l.1.1c.2.2.5.2.7 0l.1-.1c.2-.2.2-.5 0-.7l-.1-.1c-.2-.2-.5-.2-.7 0l-.1.1c-.1.3-.1.5 0 .7zM46.2 13.7l.1.1c.2.2.5.2.7 0l.1-.1c.2-.2.2-.5 0-.7l-.1-.1c-.2-.2-.5-.2-.7 0l-.1.1c-.2.2-.2.5 0 .7zM47.3 12.6l.1.1c.2.2.5.2.7 0l.1-.1c.2-.2.2-.5 0-.7l-.2-.1c-.2-.2-.5-.2-.7 0l-.1.1c-.1.2-.1.5.1.7zM48.3 13.7l.1.1c.2.2.5.2.7 0l.1-.1c.2-.2.2-.5 0-.7l-.1-.1c-.2-.2-.5-.2-.7 0l-.1.1c-.2.2-.2.5 0 .7zM49.4 14.7l.1.1c.2.2.5.2.7 0l.1-.1c.2-.2.2-.5 0-.7l-.1-.1c-.2-.2-.5-.2-.7 0l-.1.1c-.2.3-.2.6 0 .7z" opacity=".85" fill="#008294"/><path d="M50.5 15.8l.1.1c.2.2.5.2.7 0l.1-.1c.2-.2.2-.5 0-.7l-.1-.1c-.2-.2-.5-.2-.7 0l-.1.1c-.2.2-.2.5 0 .7z" fill="#158598"/><path d="M51.5 16.8l.1.1c.2.2.5.2.7 0l.1-.1c.2-.2.2-.5 0-.7l-.1-.1c-.2-.2-.5-.2-.7 0l-.1.1c-.2.3-.2.6 0 .7zM52.6 17.9l.1.1c.2.2.5.2.7 0l.1-.1c.2-.2.2-.5 0-.7l-.1-.1c-.2-.2-.5-.2-.7 0l-.1.1c-.2.2-.2.5 0 .7zM50.4 17.9l.1.1c.2.2.5.2.7 0l.1-.1c.2-.2.2-.5 0-.7l-.1-.1c-.2-.2-.5-.2-.7 0l-.1.1c-.2.2-.2.5 0 .7zM49.4 19l.1.1c.2.2.5.2.7 0l.1-.1c.2-.2.2-.5 0-.7l-.1-.1c-.2-.2-.5-.2-.7 0l-.1.1c-.2.2-.2.5 0 .7zM50.4 20l.1.1c.2.2.5.2.7 0l.1-.1c.2-.2.2-.5 0-.7l-.1-.1c-.2-.2-.5-.2-.7 0l-.1.1c-.2.3-.2.6 0 .7zM49.4 21.1l.1.1c.2.2.5.2.7 0l.1-.1c.2-.2.2-.5 0-.7l-.1-.1c-.2-.2-.5-.2-.7 0l-.1.1c-.2.2-.2.5 0 .7zM50.4 22.1l.1.1c.2.2.5.2.7 0l.1-.1c.2-.2.2-.5 0-.7l-.1-.1c-.2-.2-.5-.2-.7 0l-.1.1c-.2.2-.2.5 0 .7zM49.4 23.2l.1.1c.2.2.5.2.7 0l.1-.1c.2-.2.2-.5 0-.7l-.1-.1c-.2-.2-.5-.2-.7 0l-.1.1c-.2.2-.2.5 0 .7zM50.4 24.2l.1.1c.2.2.5.2.7 0l.1-.1c.2-.2.2-.5 0-.7l-.1-.1c-.2-.2-.5-.2-.7 0l-.1.1c-.2.3-.2.6 0 .7zM51.5 23.2l.1.1c.2.2.5.2.7 0l.1-.1c.2-.2.2-.5 0-.7l-.1-.1c-.2-.2-.5-.2-.7 0l-.1.1c-.2.2-.2.5 0 .7zM51.5 21.1l.1.1c.2.2.5.2.7 0l.1-.1c.2-.2.2-.5 0-.7l-.1-.1c-.2-.2-.5-.2-.7 0l-.1.1c-.2.2-.2.5 0 .7zM52.5 22.1l.1.1c.2.2.5.2.7 0l.1-.1c.2-.2.2-.5 0-.7l-.1-.1c-.2-.2-.5-.2-.7 0l-.1.1c-.2.3-.2.6 0 .7zM53.6 23.2l.1.1c.2.2.5.2.7 0l.1-.1c.2-.2.2-.5 0-.7l-.1-.1c-.2-.2-.5-.2-.7 0l-.1.1c-.2.2-.2.5 0 .7zM54.6 22.1l.1.1c.2.2.5.2.7 0l.1-.1c.2-.2.2-.5 0-.7l-.1-.1c-.2-.2-.5-.2-.7 0l-.1.1c-.2.2-.2.5 0 .7zM56.1 22.1l-.7.7c-.1.1 0 .3 0 .2l.7.7s.8-.9 0-1.6zM59.1 22.9l-.7-.7c-.1-.1-.3 0-.2 0l-.7.7s.8.8 1.6 0zM59.3 21l-.7.7c-.1.1 0 .3 0 .2l.7.7s.8-.8 0-1.6zM62.3 21.8l-.7-.7c-.1-.1-.3 0-.2 0l-.7.7s.8.8 1.6 0zM62.5 19.9l-.7.7c-.1.1 0 .3 0 .2l.7.7s.8-.8 0-1.6zM52.7 24.9l-.7-.7c-.1-.1-.3 0-.2 0l-.7.7s.8.8 1.6 0zM52.9 23.1l-.7.7c-.1.1 0 .3 0 .2l.7.7s.8-.8 0-1.6zM53.6 21.1l.1.1c.2.2.5.2.7 0l.1-.1c.2-.2.2-.5 0-.7l-.1-.1c-.2-.2-.5-.2-.7 0l-.1.1c-.2.2-.2.5 0 .7zM55.7 21l.1.1c.2.2.5.2.7 0l.1-.1c.2-.2.2-.5 0-.7l-.1-.1c-.2-.2-.5-.2-.7 0l-.1.1c-.2.3-.2.6 0 .7zM56.8 22.1l.1.1c.2.2.5.2.7 0l.1-.1c.2-.2.2-.5 0-.7l-.1-.1c-.2-.2-.5-.2-.7 0l-.1.1c-.2.2-.2.5 0 .7zM57.8 21l.1.1c.2.2.5.2.7 0l.1-.1c.2-.2.2-.5 0-.7l-.1-.1c-.2-.2-.5-.2-.7 0l-.1.1c-.2.3-.2.6 0 .7zM56.8 20l.1.1c.2.2.5.2.7 0l.1-.1c.2-.2.2-.5 0-.7l-.1-.1c-.2-.2-.5-.2-.7 0l-.1.1c-.2.2-.2.5 0 .7zM52.5 20l.1.1c.2.2.5.2.7 0l.1-.1c.2-.2.2-.5 0-.7l-.1-.1c-.2-.2-.5-.2-.7 0l-.1.1c-.2.2-.2.5 0 .7zM54.7 20l.1.1c.2.2.5.2.7 0l.1-.1c.2-.2.2-.5 0-.7l-.1-.1c-.2-.2-.5-.2-.7 0l-.1.1c-.2.2-.2.5 0 .7zM53.6 18.9l.1.1c.2.2.5.2.7 0l.1-.1c.2-.2.2-.5 0-.7l-.1-.1c-.2-.2-.5-.2-.7 0l-.1.1c-.2.3-.2.6 0 .7zM55.7 18.9l.1.1c.2.2.5.2.7 0l.1-.1c.2-.2.2-.5 0-.7l-.1-.1c-.2-.2-.5-.2-.7 0l-.1.1c-.2.3-.2.6 0 .7zM54.7 17.9l.1.1c.2.2.5.2.7 0l.1-.1c.2-.2.2-.5 0-.7l-.1-.1c-.2-.2-.5-.2-.7 0l-.1.1c-.2.2-.2.5 0 .7zM56.8 17.9l.1.1c.2.2.5.2.7 0l.1-.1c.2-.2.2-.5 0-.7l-.1-.1c-.2-.2-.5-.2-.7 0l-.1.1c-.2.2-.2.5 0 .7zM55.7 16.8l.1.1c.2.2.5.2.7 0l.1-.1c.2-.2.2-.5 0-.7l-.1-.1c-.2-.2-.5-.2-.7 0l-.1.1c-.2.3-.2.6 0 .7zM57.8 16.8l.2.2c.2.2.5.2.7 0l.1-.1c.2-.2.2-.5 0-.7l-.2-.2c-.2-.2-.5-.2-.7 0l-.1.1c-.2.3-.2.6 0 .7zM56.8 15.8l.1.1c.2.2.5.2.7 0l.1-.1c.2-.2.2-.5 0-.7l-.1-.1c-.2-.2-.5-.2-.7 0l-.1.1c-.2.2-.2.5 0 .7zM60.9 20l.1.1c.2.2.5.2.7 0l.1-.1c.2-.2.2-.5 0-.7l-.1-.1c-.2-.2-.5-.2-.7 0l-.1.1c-.1.2-.1.5 0 .7zM59.9 18.9l.1.1c.2.2.5.2.7 0l.1-.1c.2-.2.2-.5 0-.7l-.1-.1c-.2-.2-.5-.2-.7 0l-.1.1c-.2.3-.2.6 0 .7zM58.9 17.9l.1.1c.2.2.5.2.7 0l.1-.1c.2-.2.2-.5 0-.7l-.1-.1c-.2-.2-.5-.2-.7 0l-.1.1c-.2.2-.2.5 0 .7zM55.7 14.7l.1.1c.2.2.5.2.7 0l.1-.1c.2-.2.2-.5 0-.7l-.1-.1c-.2-.2-.5-.2-.7 0l-.1.1c-.2.3-.2.6 0 .7zM53.6 12.7l.1.1c.2.2.5.2.7 0l.1-.1c.2-.2.2-.5 0-.7l-.1-.1c-.2-.2-.5-.2-.7 0l-.1.1c-.2.2-.2.5 0 .7zM52.5 11.6l.1.1c.2.2.5.2.7 0l.1-.1c.2-.2.2-.5 0-.7l-.1-.1c-.2-.2-.5-.2-.7 0l-.1.1c-.2.2-.2.5 0 .7zM54.7 13.7l.1.1c.2.2.5.2.7 0l.1-.1c.2-.2.2-.5 0-.7l-.1-.1c-.2-.2-.5-.2-.7 0l-.1.1c-.2.2-.2.5 0 .7zM47.3 8.4l.1.1c.2.2.5.2.7 0l.1-.1c.2-.2.2-.5 0-.7l-.1-.1c-.2-.2-.5-.2-.7 0l-.1.1c-.2.2-.2.5 0 .7zM46.2 9.4l.1.1c.2.2.5.2.7 0l.1-.1c.2-.2.2-.5 0-.7l-.1-.1c-.2-.2-.5-.2-.7 0l-.1.1c-.2.3-.2.6 0 .7zM45.2 10.5l.1.1c.2.2.5.2.7 0l.1-.1c.2-.2.2-.5 0-.7l-.1-.1c-.2-.2-.5-.2-.7 0l-.1.1c-.2.2-.2.5 0 .7zM48.3 9.5l.1.1c.2.2.5.2.7 0l.1-.1c.2-.2.2-.5 0-.7l-.1-.1c-.2-.2-.5-.2-.7 0l-.1.1c-.2.2-.2.5 0 .7zM47.3 10.5l.1.1c.2.2.5.2.7 0l.1-.1c.2-.2.2-.5 0-.7l-.1-.1c-.2-.2-.5-.2-.7 0l-.1.1c-.2.2-.2.5 0 .7zM46.2 11.6l.1.1c.2.2.5.2.7 0l.1-.1c.2-.2.2-.5 0-.7l-.1-.1c-.2-.2-.5-.2-.7 0l-.1.1c-.2.2-.2.5 0 .7zM45.1 12.6l.1.1c.2.2.5.2.7 0l.1-.1c.2-.2.2-.5 0-.7l-.1-.1c-.2-.2-.5-.2-.7 0l-.1.2c-.2.2-.2.5 0 .6zM44.1 13.7l.1.1c.2.2.5.2.7 0l.1-.1c.2-.2.2-.5 0-.7l-.1-.1c-.2-.2-.5-.2-.7 0l-.1.1c-.2.2-.2.5 0 .7zM43 14.7l.1.1c.2.2.5.2.7 0l.1-.1c.2-.2.2-.5 0-.7l-.1-.1c-.2-.2-.5-.2-.7 0l-.1.2c-.2.2-.2.5 0 .6zM44.1 11.6l.1.1c.2.2.5.2.7 0l.1-.1c.2-.2.2-.5 0-.7l-.1-.1c-.2-.2-.5-.2-.7 0l-.1.1c-.2.2-.2.5 0 .7zM43 12.6l.1.1c.2.2.5.2.7 0l.1-.1c.2-.2.2-.5 0-.7l-.1-.1c-.2-.2-.5-.2-.7 0l-.1.2c-.2.1-.2.4 0 .6zM42 13.7l.1.1c.2.2.5.2.7 0l.1-.1c.2-.2.2-.5 0-.7l-.1-.1c-.2-.2-.5-.2-.7 0l-.1.1c-.2.2-.2.5 0 .7zM42 15.8l.1.1c.2.2.5.2.7 0l.1-.1c.2-.2.2-.5 0-.7l-.1-.1c-.2-.2-.5-.2-.7 0l-.1.1c-.2.2-.2.5 0 .7zM49.4 7.1c-.7-.7-1.3 0-1.3 0l.5.5c.1.1.2.1.3 0 .1 0 .5-.5.5-.5zM49.4 8.4l.1.1c.2.2.5.2.7 0l.1-.1c.2-.2.2-.5 0-.7l-.1-.1c-.2-.2-.5-.2-.7 0l-.1.1c-.2.2-.2.5 0 .7zM45.7 7.1l.1.1c.2.2.5.2.7 0l.1-.1c.2-.2.2-.5 0-.7l-.1-.1c-.2-.2-.5-.2-.7 0l-.1.1c-.2.2-.2.5 0 .7zM44.6 8.1l.1.1c.2.2.5.2.7 0l.1-.1c.2-.2.2-.5 0-.7l-.1-.1c-.2-.2-.5-.2-.7 0l-.1.1c-.1.2-.1.5 0 .7zM43.6 9.2l.1.1c.2.2.5.2.7 0l.1-.1c.2-.2.2-.5 0-.7l-.1-.1c-.2-.2-.5-.2-.7 0l-.1.1c-.2.2-.2.5 0 .7zM42.5 10.3l.1.1c.2.2.5.2.7 0l.1-.1c.2-.2.2-.5 0-.7l-.1-.1c-.2-.2-.5-.2-.7 0l-.1.1c-.2.2-.2.5 0 .7zM41.5 11.3l.1.1c.2.2.5.2.7 0l.1-.1c.2-.2.2-.5 0-.7l-.1-.1c-.2-.2-.5-.2-.7 0l-.1.1c-.2.2-.2.5 0 .7zM40.4 12.4l.1.1c.2.2.5.2.7 0l.1-.1c.2-.2.2-.5 0-.7l-.1-.1c-.2-.2-.5-.2-.7 0l-.1.1c-.2.2-.2.5 0 .7z" opacity=".85" fill="#008294"/><path d="M44.6 6l.1.1c.2.2.5.2.7 0l.2-.1c.2-.2.2-.5 0-.7l-.1-.1c-.2-.2-.5-.2-.7 0l-.1.1c-.3.2-.3.5-.1.7z" fill="#158598"/><path d="M43.6 7l.1.1c.2.2.5.2.7 0l.1-.1c.2-.2.2-.5 0-.7l-.1-.1c-.2-.2-.5-.2-.7 0l-.1.1c-.2.3-.2.6 0 .7zM42.5 8.1l.1.1c.2.2.5.2.7 0l.1-.1c.2-.2.2-.5 0-.7l-.1-.1c-.2-.2-.5-.2-.7 0l-.1.1c-.2.2-.2.5 0 .7zM41.4 9.2l.1.1c.2.2.5.2.7 0l.1-.1c.2-.2.2-.5 0-.7l-.1-.1c-.2-.2-.5-.2-.7 0l-.1.1c-.2.2-.2.5 0 .7zM40.4 10.2l.1.1c.2.2.5.2.7 0l.1-.1c.2-.2.2-.5 0-.7l-.1-.1c-.2-.2-.5-.2-.7 0l-.1.1c-.2.2-.2.5 0 .7zM39.3 11.3l.1.1c.2.2.5.2.7 0l.1-.1c.2-.2.2-.5 0-.7l-.1-.1c-.2-.2-.5-.2-.7 0l-.1.1c-.2.2-.2.5 0 .7z" opacity=".85" fill="#008294"/><path d="M45.9 23.9l.7-.7c.1-.1.3 0 .2 0l.7.7s-.8.8-1.6 0zM45.7 22l.7.7c.1.1 0 .3 0 .2l-.7.7s-.8-.8 0-1.6zM42.7 22.8l.7-.7c.1-.1.3 0 .2 0l.7.7s-.8.8-1.6 0zM42.5 21l.7.7c.1.1 0 .3 0 .2l-.7.7s-.8-.8 0-1.6zM39.5 21.7l.7-.7c.1-.1.3 0 .2 0l.7.7s-.8.8-1.6 0zM39.3 19.9l.7.7c.1.1 0 .3 0 .2l-.7.7s-.8-.8 0-1.6zM49.1 24.9l.7-.7c.1-.1.3 0 .2 0l.7.7s-.9.8-1.6 0zM48.8 23.1l.7.7c.1.1 0 .3 0 .2l-.7.7s-.8-.8 0-1.6zM47.3 23.2l.1.1c.2.2.5.2.7 0l.1-.1c.2-.2.2-.5 0-.7l-.1-.1c-.2-.2-.5-.2-.7 0l-.1.1c-.2.2-.2.5 0 .7zM46.2 22.1l.1.1c.2.2.5.2.7 0l.1-.1c.2-.2.2-.5 0-.7l-.1-.1c-.2-.2-.5-.2-.7 0l-.1.1c-.2.2-.2.5 0 .7zM45.2 21.1l.1.1c.2.2.5.2.7 0l.1-.1c.2-.2.2-.5 0-.7l-.1-.1c-.2-.2-.5-.2-.7 0l-.1.1c-.2.2-.2.5 0 .7zM44.1 20l.1.1c.2.2.5.2.7 0l.1-.1c.2-.2.2-.5 0-.7l-.1-.1c-.2-.2-.5-.2-.7 0l-.1.1c-.2.2-.2.5 0 .7zM44.1 22.1l.1.1c.2.2.5.2.7 0l.1-.1c.2-.2.2-.5 0-.7l-.1-.1c-.2-.2-.5-.2-.7 0l-.1.1c-.2.2-.2.5 0 .7zM43.1 21.1l.1.1c.2.2.5.2.7 0l.1-.1c.2-.2.2-.5 0-.7l-.1-.1c-.2-.2-.5-.2-.7 0l-.1.1c-.2.2-.2.5 0 .7zM47.1 20.9c.7-.7 1.3 0 1.3 0l-.6.6c-.1.1-.2 0-.2 0 0-.1-.5-.6-.5-.6z" fill="#9e1d21"/><path d="M48.3 20.5c-.1-.2-.4-.4-.4-.4s-.2-.1-.2 0l-.6.6c.6-.7 1-.4 1.2-.2z" fill="#158598"/><path d="M47.6 19.3c.7-.7 0-1.3 0-1.3l-.6.6c-.1.1 0 .2 0 .2.1 0 .6.5.6.5z" fill="#9e1d21"/><path d="M48 18.1c.2.1.4.4.4.4s.1.2 0 .2l-.6.6c.7-.6.4-1 .2-1.2z" fill="#158598"/><path d="M46 17.7c.7-.7 1.3 0 1.3 0l-.6.6c-.1.1-.2 0-.2 0 0-.1-.5-.6-.5-.6z" fill="#9e1d21"/><path d="M47.2 17.4c-.1-.2-.4-.4-.4-.4s-.2-.1-.2 0c-.1 0-.6.5-.6.5.6-.6 1.1-.3 1.2-.1z" fill="#158598"/><path d="M46.5 16.1c.7-.7 0-1.3 0-1.3l-.6.6c-.1.1 0 .2 0 .2.1 0 .6.5.6.5z" fill="#9e1d21"/><path d="M46.9 14.9c.2.1.4.4.4.4s.1.2 0 .2l-.6.6c.7-.6.4-1 .2-1.2z" fill="#158598"/><path d="M44.9 14.5c.7-.7 1.3 0 1.3 0l-.6.6c-.1.1-.2 0-.2 0l-.5-.6z" fill="#9e1d21"/><path d="M46.1 14.2c-.1-.2-.4-.4-.4-.4s-.2-.1-.2 0l-.6.6c.6-.7 1.1-.4 1.2-.2z" opacity=".85" fill="#008294"/><path d="M53.4 16.4c.7.7 1.3 0 1.3 0l-.6-.6c-.1-.1-.2 0-.2 0 0 .1-.5.6-.5.6z" fill="#9e1d21"/><path d="M54.7 16.8c-.1.2-.4.4-.4.4s-.2.1-.2 0l-.6-.6c.5.6 1 .4 1.2.2z" opacity=".85" fill="#008294"/><path d="M55 14.8c.7.7 0 1.3 0 1.3l-.6-.6c-.1-.1 0-.2 0-.2.1 0 .6-.5.6-.5z" fill="#9e1d21"/><path d="M55.4 16c.2-.1.4-.4.4-.4s.1-.2 0-.2l-.6-.6c.7.6.4 1 .2 1.2z" opacity=".85" fill="#008294"/><path d="M52.6 15.8l.1.1c.2.2.5.2.7 0l.1-.1c.2-.2.2-.5 0-.7l-.1-.1c-.2-.2-.5-.2-.7 0l-.1.1c-.2.2-.2.5 0 .7zM46.2 20l.1.1c.2.2.5.2.7 0l.1-.1c.2-.2.2-.5 0-.7l-.1-.1c-.2-.2-.5-.2-.7 0l-.1.1c-.2.2-.2.5 0 .7zM45.2 19l.1.1c.2.2.5.2.7 0l.1-.1c.2-.2.2-.5 0-.7l-.1-.1c-.2-.2-.5-.2-.7 0l-.1.1c-.2.2-.2.5 0 .7zM43 18.9l.1.1c.2.2.5.2.7 0l.1-.1c.2-.2.2-.5 0-.7l-.1-.1c-.2-.2-.5-.2-.7 0l-.1.1c-.2.2-.2.5 0 .7zM42 17.9l.1.1c.2.2.5.2.7 0l.1-.1c.2-.2.2-.5 0-.7l-.1-.1c-.2-.2-.5-.2-.7 0l-.1.1c-.2.2-.2.5 0 .7zM42 20l.1.1c.2.2.5.2.7 0l.1-.1c.2-.2.2-.5 0-.7l-.1-.1c-.2-.2-.5-.2-.7 0l-.1.1c-.2.2-.2.5 0 .7zM40.9 18.9l.1.1c.2.2.5.2.7 0l.1-.1c.2-.2.2-.5 0-.7l-.1-.1c-.2-.2-.5-.2-.7 0l-.1.1c-.2.3-.2.6 0 .7zM40.9 21.1l.1.1c.2.2.5.2.7 0l.1-.1c.2-.2.2-.5 0-.7l-.1-.1c-.2-.2-.5-.2-.7 0l-.1.1c-.2.2-.2.5 0 .7zM39.8 20l.1.1c.2.2.5.2.7 0l.1-.1c.2-.2.2-.5 0-.7l-.1-.1c-.2-.2-.5-.2-.7 0l-.1.1c-.1.2-.1.5 0 .7zM44.1 17.9l.1.1c.2.2.5.2.7 0l.1-.1c.2-.2.2-.5 0-.7l-.1-.1c-.2-.2-.5-.2-.7 0l-.1.1c-.2.2-.2.5 0 .7zM43 16.8l.1.1c.2.2.5.2.7 0l.1-.1c.2-.2.2-.5 0-.7l-.1-.1c-.2-.2-.5-.2-.7 0l-.1.2c-.2.2-.2.4 0 .6zM45.2 16.8l.1.1c.2.2.5.2.7 0l.1-.1c.2-.2.2-.5 0-.7L46 16c-.2-.2-.5-.2-.7 0l-.1.1c-.2.3-.2.6 0 .7zM44.1 15.8l.1.1c.2.2.5.2.7 0l.1-.1c.2-.2.2-.5 0-.7l-.1-.1c-.2-.2-.5-.2-.7 0l-.1.1c-.2.2-.2.5 0 .7zM51.5 14.7l.1.1c.2.2.5.2.7 0l.1-.1c.2-.2.2-.5 0-.7l-.1-.1c-.2-.2-.5-.2-.7 0l-.1.1c-.2.3-.2.5 0 .7zM50.5 13.7l.1.1c.2.2.5.2.7 0l.1-.1c.2-.2.2-.5 0-.7l-.1-.1c-.2-.2-.5-.2-.7 0l-.1.1c-.2.2-.2.5 0 .7zM49.4 12.6l.1.1c.2.2.5.2.7 0l.1-.1c.2-.2.2-.5 0-.7l-.1-.1c-.2-.2-.5-.2-.7 0l-.1.1c-.2.2-.2.5 0 .7zM53.6 14.8l.1.1c.2.2.5.2.7 0l.1-.1c.2-.2.2-.5 0-.7l-.1-.1c-.2-.2-.5-.2-.7 0l-.1.1c-.2.2-.2.5 0 .7zM52.6 13.7l.1.1c.2.2.5.2.7 0l.1-.1c.2-.2.2-.5 0-.7l-.1-.1c-.2-.2-.5-.2-.7 0l-.1.1c-.2.2-.2.5 0 .7zM51.5 12.7l.1.1c.2.2.5.2.7 0l.1-.1c.2-.2.2-.5 0-.7l-.1-.1c-.2-.2-.5-.2-.7 0l-.1.1c-.2.2-.2.5 0 .7zM50.4 11.6l.1.1c.2.2.5.2.7 0l.1-.1c.2-.2.2-.5 0-.7l-.1-.1c-.2-.2-.5-.2-.7 0l-.1.1c-.2.2-.2.5 0 .7zM49.4 10.5l.1.1c.2.2.5.2.7 0l.1-.1c.2-.2.2-.5 0-.7l-.1-.1c-.2-.2-.5-.2-.7 0l-.1.1c-.2.2-.2.5 0 .7zM51.4 10.5l.1.1c.2.2.5.2.7 0l.1-.1c.2-.2.2-.5 0-.7l-.1-.1c-.2-.2-.5-.2-.7 0l-.1.1c-.2.3-.2.6 0 .7zM50.4 9.5l.1.1c.2.2.5.2.7 0l.1-.1c.2-.2.2-.5 0-.7l-.1-.1c-.2-.2-.5-.2-.7 0l-.1.1c-.2.2-.2.5 0 .7zM52.5 9.5l.1.1c.2.2.5.2.7 0l.1-.1c.2-.2.2-.5 0-.7l-.1-.1c-.2-.2-.5-.2-.7 0l-.1.1c-.2.2-.2.5 0 .7zM51.4 8.4l.1.1c.2.2.5.2.7 0l.1-.1c.2-.2.2-.5 0-.7l-.1-.1c-.2-.2-.5-.2-.7 0l-.1.1c-.2.2-.2.5 0 .7zM53.5 8.4l.1.1c.2.2.5.2.7 0l.1-.1c.2-.2.2-.5 0-.7l-.1-.1c-.2-.2-.5-.2-.7 0l-.1.1c-.2.3-.2.6 0 .7zM53.6 10.6l.1.1c.2.2.5.2.7 0l.1-.1c.2-.2.2-.5 0-.7l-.1-.1c-.2-.2-.5-.2-.7 0l-.1.1c-.2.2-.2.5 0 .7zM54.6 9.5l.1.1c.2.2.5.2.7 0l.1-.1c.2-.2.2-.5 0-.7l-.1-.1c-.2-.2-.5-.2-.7 0l-.1.1c-.2.3-.2.6 0 .7zM54.6 11.6l.1.1c.2.2.5.2.7 0l.1-.1c.2-.2.2-.5 0-.7l-.1-.1c-.2-.2-.5-.2-.7 0l-.1.2c-.2.2-.2.5 0 .6zM55.7 10.6l.1.1c.2.2.5.2.7 0l.1-.1c.2-.2.2-.5 0-.7l-.1-.1c-.2-.2-.5-.2-.7 0l-.1.1c-.2.2-.2.5 0 .7zM55.7 12.7l.1.1c.2.2.5.2.7 0l.1-.1c.2-.2.2-.5 0-.7l-.1-.1c-.2-.2-.5-.2-.7 0l-.1.1c-.2.2-.2.5 0 .7zM56.7 11.6l.1.1c.2.2.5.2.7 0l.1-.1c.2-.2.2-.5 0-.7l-.1-.1c-.2-.2-.5-.2-.7 0l-.1.2c-.2.1-.2.4 0 .6zM56.7 13.7l.1.1c.2.2.5.2.7 0l.1-.1c.2-.2.2-.5 0-.7l-.1-.1c-.2-.2-.5-.2-.7 0l-.1.1c-.2.2-.2.5 0 .7zM57.8 12.7l.1.1c.2.2.5.2.7 0l.1-.1c.2-.2.2-.5 0-.7l-.1-.1c-.2-.2-.5-.2-.7 0l-.1.1c-.2.2-.2.5 0 .7zM57.8 14.8l.1.1c.2.2.5.2.7 0l.1-.1c.2-.2.2-.5 0-.7l-.1-.1c-.2-.2-.5-.2-.7 0l-.1.1c-.2.2-.2.5 0 .7zM58.8 13.7l.1.1c.2.2.5.2.7 0l.1-.1c.2-.2.2-.5 0-.7l-.1-.1c-.2-.2-.5-.2-.7 0l-.1.1c-.2.2-.2.5 0 .7zM58.8 15.8l.2.2c.2.2.5.2.7 0l.1-.1c.2-.2.2-.5 0-.7l-.2-.2c-.2-.2-.5-.2-.7 0l-.1.1c-.2.2-.2.5 0 .7zM55.9 6.9l-.1.1c-.2.2-.5.2-.7 0l-.1-.1c-.2-.2-.2-.5 0-.7l.1-.1c.2-.2.5-.2.7 0l.1.1c.2.3.2.6 0 .7zM57 8l-.1.1c-.2.2-.5.2-.7 0l-.1-.1c-.2-.2-.2-.5 0-.7l.1-.1c.2-.2.5-.2.7 0l.1.1c.2.2.2.5 0 .7zM58 9.1l-.1.1c-.2.2-.5.2-.7 0l-.1-.1c-.2-.2-.2-.5 0-.7l.1-.1c.2-.2.5-.2.7 0l.1.1c.2.2.2.5 0 .7zM59.1 10.1l-.1.2c-.2.2-.5.2-.7 0l-.1-.1c-.2-.2-.2-.5 0-.7l.1-.1c.2-.2.5-.2.7 0l.1.1c.2.2.2.5 0 .6zM60.2 11.2l-.2.1c-.2.2-.5.2-.7 0l-.1-.1c-.2-.2-.2-.5 0-.7l.1-.1c.2-.2.5-.2.7 0l.1.1c.3.2.3.5.1.7zM61.2 12.2l-.1.1c-.2.2-.5.2-.7 0l-.1-.1c-.2-.2-.2-.5 0-.7l.1-.1c.2-.2.5-.2.7 0l.1.1c.2.3.2.6 0 .7zM57 5.9l-.1.1c-.2.2-.5.2-.7 0l-.1-.1c-.2-.2-.2-.5 0-.7l.1-.1c.2-.2.5-.2.7 0l.1.1c.2.2.2.5 0 .7zM58.1 6.9l-.2.1c-.2.2-.5.2-.7 0l-.1-.1c-.2-.2-.2-.5 0-.7l.1-.1c.2-.2.5-.2.7 0l.1.1c.2.2.2.5.1.7zM59.1 8l-.1.1c-.2.2-.5.2-.7 0l-.1-.1c-.2-.2-.2-.5 0-.7l.1-.1c.2-.2.5-.2.7 0l.1.1c.2.2.2.5 0 .7zM60.2 9l-.1.1c-.2.2-.5.2-.7 0l-.1-.1c-.2-.2-.2-.5 0-.7l.1-.1c.2-.2.5-.2.7 0l.1.1c.2.3.2.6 0 .7zM61.2 10.1l-.1.1c-.2.2-.5.2-.7 0l-.1-.1c-.2-.2-.2-.5 0-.7l.1-.1c.2-.2.5-.2.7 0l.1.1c.2.2.2.5 0 .7zM62.3 11.2l-.1.1c-.2.2-.5.2-.7 0l-.1-.1c-.2-.2-.2-.5 0-.7l.1-.1c.2-.2.5-.2.7 0l.1.1c.2.2.2.5 0 .7z" fill="#9e1d21"/><path d="M41 26.7v2.9h-3s-2.9 0-2.9-2.9v-2.9H38v2.4s0 .5.6.5H41z" opacity=".9" fill="#9e1d21"/><path d="M61.5 26.7v2.9h3s2.9 0 2.9-2.9v-2.9h-2.9v2.4s0 .5-.6.5h-2.4zM41 3.3V.4h-3s-2.9 0-2.9 2.9v2.9H38V3.8s0-.5.6-.5H41z" opacity=".85" fill="#008294"/><path d="M61.5 3.3V.4h3s2.9 0 2.9 2.9v2.9h-2.9V3.8s0-.5-.6-.5h-2.4z" opacity=".9" fill="#9e1d21"/><path d="M48.3 20l.1.1c.2.2.5.2.7 0l.1-.1c.2-.2.2-.5 0-.7l-.1-.1c-.2-.2-.5-.2-.7 0l-.1.1c-.2.2-.2.5 0 .7zM59.9 21.1l.1.1c.2.2.5.2.7 0l.1-.1c.2-.2.2-.5 0-.7l-.1-.1c-.2-.2-.5-.2-.7 0l-.1.1c-.2.2-.2.5 0 .7zM58.9 20l.1.1c.2.2.5.2.7 0l.1-.1c.2-.2.2-.5 0-.7l-.1-.1c-.2-.2-.5-.2-.7 0l-.1.1c-.2.2-.2.5 0 .7zM57.8 19l.1.1c.2.2.5.2.7 0l.1-.1c.2-.2.2-.5 0-.7l-.1-.1c-.2-.2-.5-.2-.7 0l-.1.1c-.2.2-.2.5 0 .7zM51.5 18.9l.1.1c.2.2.5.2.7 0l.1-.1c.2-.2.2-.5 0-.7l-.1-.1c-.2-.2-.5-.2-.7 0l-.1.1c-.1.2-.1.5 0 .7z" opacity=".85" fill="#008294"/></svg>