<svg xmlns="http://www.w3.org/2000/svg" viewBox="0 0 208 61"><circle cx="166.7" cy="37.6" r="3" fill="#9e1d21"/><path d="M43 49l-1.4-1.4c-.3-.3-.6.1-.5 0L39.7 49s1.7 1.6 3.3 0z" opacity=".85" fill="#008294"/><path d="M28 46c1.5-1.5 0-2.8 0-2.8l-1.1 1.1c-.2.2-.1.4 0 .5.1.1 1.1 1.2 1.1 1.2z" fill="#9e1d21"/><path d="M28.8 43.4c.3.3.8.9.9.9.1.1.2.3 0 .5S28.6 46 28.6 46c1.2-1.2.6-2.2.2-2.6z" fill="#158598"/><path d="M28.6 21.3c-1.5 1.5 0 2.8 0 2.8l1.4-1.4-1.4-1.4z" fill="#9e1d21"/><path d="M28.3 21c-1.7 1.7 0 3.3 0 3.3l-1.7-1.7 1.7-1.6zM13.2 27.9c-1.5 1.5 0 2.8 0 2.8l1.1-1.1c.1-.1.2-.4 0-.6l-1.1-1.1z" opacity=".85" fill="#008294"/><path d="M52.1 27.9c1.5 1.5 0 2.8 0 2.8l-1.4-1.4 1.4-1.4zM35.5 14.2c1.5-1.5 2.8 0 2.8 0l-1.4 1.4-1.4-1.4z" fill="#9e1d21"/><path d="M29.5 34.4l.2.2c.4.4 1 .4 1.4 0l.2-.2c.4-.4.4-1 0-1.4l-.2-.2c-.4-.4-1-.4-1.4 0l-.2.2c-.4.4-.4 1 0 1.4zM27.4 36.6l.2.2c.4.4 1 .4 1.4 0l.2-.2c.4-.4.4-1 0-1.4l-.2-.3c-.4-.4-1-.4-1.4 0l-.2.2c-.4.5-.4 1.1 0 1.5zM25.2 34.4l.2.2c.4.4 1 .4 1.4 0l.2-.2c.4-.4.4-1 0-1.4l-.2-.2c-.4-.4-1-.4-1.4 0l-.2.2c-.4.4-.4 1 0 1.4zM27.4 32.2l.2.2c.4.4 1 .4 1.4 0l.2-.2c.4-.4.4-1 0-1.4l-.2-.3c-.4-.4-1-.4-1.4 0l-.2.2c-.4.5-.4 1.1 0 1.5zM25.1 29.9l.2.2c.4.4 1 .4 1.4 0l.2-.2c.4-.4.4-1 0-1.4l-.2-.2c-.4-.4-1-.4-1.4 0l-.2.2c-.4.4-.4 1.1 0 1.4zM22.9 27.8l.2.2c.4.4 1 .4 1.4 0l.2-.2c.4-.4.4-1 0-1.4l-.2-.2c-.4-.4-1-.4-1.4 0l-.2.2c-.4.3-.4 1 0 1.4zM25.1 25.5l.2.2c.4.4 1 .4 1.4 0l.2-.2c.4-.4.4-1 0-1.4l-.2-.2c-.4-.4-1-.4-1.4 0l-.2.2c-.3.4-.3 1 0 1.4zM27.3 27.7l.2.2c.4.4 1 .4 1.4 0l.2-.2c.4-.4.4-1 0-1.4l-.1-.2c-.4-.4-1-.4-1.4 0l-.2.2c-.5.4-.5 1-.1 1.4zM29.6 30l.2.2c.4.4 1 .4 1.4 0l.2-.2c.4-.4.4-1 0-1.4l-.2-.2c-.4-.4-1-.4-1.4 0l-.2.2c-.4.3-.4 1 0 1.4z" opacity=".85" fill="#008294"/><path d="M31.8 32.2l.2.2c.4.4 1 .4 1.4 0l.2-.2c.4-.4.4-1 0-1.4l-.2-.2c-.4-.4-1-.4-1.4 0l-.2.2c-.4.3-.4 1 0 1.4z" fill="#158598"/><path d="M33.9 34.3l.2.2c.4.4 1 .4 1.4 0l.2-.2c.4-.4.4-1 0-1.4l-.2-.2c-.4-.4-1-.4-1.4 0l-.2.2c-.3.4-.3 1 0 1.4zM36.1 36.5l.2.2c.4.4 1 .4 1.4 0l.2-.2c.4-.4.4-1 0-1.4l-.2-.2c-.4-.4-1-.4-1.4 0l-.2.2c-.4.4-.4 1 0 1.4zM31.7 36.5l.2.2c.4.4 1 .4 1.4 0l.2-.2c.4-.4.4-1 0-1.4l-.2-.2c-.4-.4-1-.4-1.4 0l-.2.2c-.4.4-.4 1.1 0 1.4zM29.5 38.7l.2.2c.4.4 1 .4 1.4 0l.2-.2c.4-.4.4-1 0-1.4l-.2-.2c-.4-.4-1-.4-1.4 0l-.2.2c-.4.4-.4 1.1 0 1.4zM31.7 40.9l.2.2c.4.4 1 .4 1.4 0l.2-.2c.4-.4.4-1 0-1.4l-.2-.2c-.4-.4-1-.4-1.4 0l-.2.2c-.4.4-.4 1 0 1.4zM29.6 43.1l.2.2c.4.4 1 .4 1.4 0l.2-.2c.4-.4.4-1 0-1.4l-.2-.2c-.4-.4-1-.4-1.4 0l-.2.2c-.4.4-.4 1 0 1.4zM31.7 45.3l.2.2c.4.4 1 .4 1.4 0l.2-.2c.4-.4.4-1 0-1.4l-.2-.2c-.4-.4-1-.4-1.4 0l-.2.2c-.4.3-.4 1 0 1.4zM29.5 47.5l.2.2c.4.4 1 .4 1.4 0l.2-.2c.4-.4.4-1 0-1.4l-.2-.2c-.4-.4-1-.4-1.4 0l-.2.1c-.4.4-.4 1.1 0 1.5zM31.7 49.7l.2.2c.4.4 1 .4 1.4 0l.2-.2c.4-.4.4-1 0-1.4l-.1-.3c-.4-.4-1-.4-1.4 0l-.2.2c-.5.4-.5 1.1-.1 1.5zM33.9 47.5l.2.2c.4.4 1 .4 1.4 0l.2-.2c.4-.4.4-1 0-1.4l-.2-.2c-.4-.4-1-.4-1.4 0l-.2.1c-.4.4-.4 1.1 0 1.5zM33.9 43.1l.2.2c.4.4 1 .4 1.4 0l.2-.2c.4-.4.4-1 0-1.4l-.2-.2c-.4-.4-1-.4-1.4 0l-.2.2c-.4.4-.4 1 0 1.4zM36.1 45.3l.2.2c.4.4 1 .4 1.4 0l.2-.2c.4-.4.4-1 0-1.4l-.2-.2c-.4-.4-1-.4-1.4 0l-.2.2c-.4.4-.4 1 0 1.4zM38.2 47.5l.2.2c.4.4 1 .4 1.4 0l.2-.2c.4-.4.4-1 0-1.4l-.2-.2c-.4-.4-1-.4-1.4 0l-.2.1c-.4.4-.4 1.1 0 1.5zM40.4 45.3l.2.2c.4.4 1 .4 1.4 0l.2-.2c.4-.4.4-1 0-1.4l-.2-.2c-.4-.4-1-.4-1.4 0l-.2.2c-.4.3-.4 1 0 1.4zM43.4 45.1L42 46.5c-.3.3.1.6 0 .5l1.4 1.4s1.7-1.7 0-3.3zM49.6 46.8l-1.4-1.4c-.3-.3-.6.1-.5 0l-1.4 1.4s1.7 1.6 3.3 0zM50.1 43l-1.4 1.4c-.3.3.1.6 0 .5l1.4 1.4s1.6-1.7 0-3.3zM56.3 44.5l-1.4-1.4c-.3-.3-.6.1-.5 0L53 44.5s1.7 1.7 3.3 0zM56.8 40.7l-1.4 1.4c-.3.3.1.6 0 .5l1.4 1.4s1.6-1.7 0-3.3zM36.4 51.1L35 49.7c-.3-.3-.6.1-.5 0l-1.4 1.4s1.7 1.7 3.3 0zM36.9 47.3l-1.4 1.4c-.3.3.1.6 0 .5l1.4 1.4s1.6-1.7 0-3.3zM38.3 43.1l.2.2c.4.4 1 .4 1.4 0l.2-.2c.4-.4.4-1 0-1.4l-.2-.2c-.4-.4-1-.4-1.4 0l-.2.2c-.4.4-.4 1 0 1.4zM42.7 43l.2.2c.4.4 1 .4 1.4 0l.2-.2c.4-.4.4-1 0-1.4l-.2-.2c-.4-.4-1-.4-1.4 0l-.2.2c-.4.4-.4 1 0 1.4zM44.8 45.2l.2.2c.4.4 1 .4 1.4 0l.2-.2c.4-.4.4-1 0-1.4l-.2-.2c-.4-.4-1-.4-1.4 0l-.2.2c-.3.4-.3 1 0 1.4zM47 43l.2.2c.4.4 1 .4 1.4 0l.2-.2c.4-.4.4-1 0-1.4l-.2-.2c-.4-.4-1-.4-1.4 0l-.2.2c-.3.4-.3 1 0 1.4zM44.8 40.8l.2.2c.4.4 1 .4 1.4 0l.2-.2c.4-.4.4-1 0-1.4l-.2-.2c-.4-.4-1-.4-1.4 0l-.2.2c-.3.4-.3 1.1 0 1.4zM36.1 40.9l.2.2c.4.4 1 .4 1.4 0l.2-.2c.4-.4.4-1 0-1.4l-.2-.2c-.4-.4-1-.4-1.4 0l-.2.2c-.4.4-.4 1 0 1.4zM40.5 40.9l.2.2c.4.4 1 .4 1.4 0l.2-.2c.4-.4.4-1 0-1.4l-.2-.2c-.4-.4-1-.4-1.4 0l-.2.2c-.4.4-.4 1 0 1.4zM38.3 38.7l.2.2c.4.4 1 .4 1.4 0l.2-.2c.4-.4.4-1 0-1.4L40 37c-.4-.4-1-.4-1.4 0l-.2.2c-.5.5-.5 1.1-.1 1.5zM42.7 38.7l.2.2c.4.4 1 .4 1.4 0l.2-.2c.4-.4.4-1 0-1.4l-.2-.3c-.4-.4-1-.4-1.4 0l-.2.2c-.4.5-.4 1.1 0 1.5zM40.5 36.5l.2.2c.4.4 1 .4 1.4 0l.2-.2c.4-.4.4-1 0-1.4l-.2-.2c-.4-.4-1-.4-1.4 0l-.2.2c-.4.4-.4 1 0 1.4zM44.8 36.5l.2.2c.4.4 1 .4 1.4 0l.2-.2c.4-.4.4-1 0-1.4l-.2-.2c-.4-.4-1-.4-1.4 0l-.2.2c-.3.4-.3 1 0 1.4zM42.7 34.3l.2.2c.4.4 1 .4 1.4 0l.2-.2c.4-.4.4-1 0-1.4l-.2-.2c-.4-.4-1-.4-1.4 0l-.2.2c-.4.4-.4 1 0 1.4zM47 34.3l.2.2c.4.4 1 .4 1.4 0l.2-.2c.4-.4.4-1 0-1.4l-.2-.2c-.4-.4-1-.4-1.4 0l-.2.2c-.3.4-.3 1 0 1.4zM44.8 32.1l.2.2c.4.4 1 .4 1.4 0l.2-.2c.4-.4.4-1 0-1.4l-.2-.2c-.4-.4-1-.4-1.4 0l-.2.2c-.3.4-.3 1 0 1.4zM53.5 40.8l.2.2c.4.4 1 .4 1.4 0l.2-.2c.4-.4.4-1 0-1.4l-.2-.2c-.4-.4-1-.4-1.4 0l-.2.2c-.4.4-.4 1 0 1.4zM51.4 38.7l.2.2c.4.4 1 .4 1.4 0l.2-.2c.4-.4.4-1 0-1.4l-.1-.3c-.4-.4-1-.4-1.4 0l-.2.2c-.5.5-.5 1.1-.1 1.5zM49.2 36.5l.2.2c.4.4 1 .4 1.4 0l.2-.2c.4-.4.4-1 0-1.4l-.2-.2c-.4-.4-1-.4-1.4 0l-.2.2c-.4.4-.4 1 0 1.4zM42.7 30l.2.2c.4.4 1 .4 1.4 0l.2-.2c.4-.4.4-1 0-1.4l-.2-.2c-.4-.4-1-.4-1.4 0l-.2.2c-.4.3-.4 1 0 1.4zM38.2 25.7l.2.2c.4.4 1 .4 1.4 0l.2-.2c.4-.4.4-1 0-1.4l-.1-.3c-.4-.4-1-.4-1.4 0l-.2.2c-.5.4-.5 1.1-.1 1.5zM36.1 23.4l.2.2c.4.4 1 .4 1.4 0l.2-.2c.4-.4.4-1 0-1.4l-.2-.2c-.4-.4-1-.4-1.4 0l-.2.2c-.4.4-.4 1 0 1.4zM40.5 27.8l.2.2c.4.4 1 .4 1.4 0l.2-.2c.4-.4.4-1 0-1.4l-.2-.2c-.4-.4-1-.4-1.4 0l-.2.2c-.4.3-.4 1 0 1.4zM25.1 16.8l.2.2c.4.4 1 .4 1.4 0l.2-.2c.4-.4.4-1 0-1.4l-.2-.2c-.4-.4-1-.4-1.4 0l-.2.2c-.3.4-.3 1 0 1.4zM23 19l.2.2c.4.4 1 .4 1.4 0l.2-.2c.4-.4.4-1 0-1.4l-.2-.2c-.4-.4-1-.4-1.4 0l-.2.1c-.4.4-.4 1.1 0 1.5zM20.8 21.2l.2.2c.4.4 1 .4 1.4 0l.2-.2c.4-.4.4-1 0-1.4l-.2-.2c-.4-.4-1-.4-1.4 0l-.2.2c-.4.4-.4 1 0 1.4zM27.4 19l.2.2c.4.4 1 .4 1.4 0l.2-.2c.4-.4.4-1 0-1.4l-.2-.3c-.4-.4-1-.4-1.4 0l-.2.2c-.4.5-.4 1.1 0 1.5zM25.2 21.1l.2.2c.4.4 1 .4 1.4 0l.2-.2c.4-.4.4-1 0-1.4l-.2-.2c-.4-.4-1-.4-1.4 0l-.2.2c-.4.4-.4 1.1 0 1.4zM23 23.4l.2.2c.4.4 1 .4 1.4 0l.2-.2c.4-.4.4-1 0-1.4l-.2-.2c-.4-.4-1-.4-1.4 0l-.2.1c-.4.4-.4 1.1 0 1.5zM20.7 25.6l.2.2c.4.4 1 .4 1.4 0l.2-.2c.4-.4.4-1 0-1.4l-.2-.2c-.4-.4-1-.4-1.4 0l-.2.2c-.4.4-.4 1 0 1.4zM18.6 27.8l.2.2c.4.4 1 .4 1.4 0l.2-.2c.4-.4.4-1 0-1.4l-.2-.2c-.4-.4-1-.4-1.4 0l-.2.2c-.4.3-.4 1 0 1.4zM16.4 30l.2.2c.4.4 1 .4 1.4 0l.2-.2c.4-.4.4-1 0-1.4l-.2-.3c-.4-.4-1-.4-1.4 0l-.2.2c-.4.4-.4 1.1 0 1.5zM18.5 23.4l.2.2c.4.4 1 .4 1.4 0l.2-.2c.4-.4.4-1 0-1.4l-.2-.2c-.4-.4-1-.4-1.4 0l-.2.2c-.3.4-.3 1 0 1.4zM16.4 25.6l.2.2c.4.4 1 .4 1.4 0l.2-.2c.4-.4.4-1 0-1.4l-.2-.3c-.4-.4-1-.4-1.4 0l-.2.2c-.4.4-.4 1.1 0 1.5zM14.2 27.8l.2.2c.4.4 1 .4 1.4 0l.2-.2c.4-.4.4-1 0-1.4l-.2-.2c-.4-.4-1-.4-1.4 0l-.2.2c-.4.3-.4 1 0 1.4zM14.2 32.1l.2.2c.4.4 1 .4 1.4 0l.2-.2c.4-.4.4-1 0-1.4l-.2-.2c-.4-.4-1-.4-1.4 0l-.2.2c-.4.4-.4 1 0 1.4zM29.7 14.2c-1.5-1.5-2.8 0-2.8 0l1.1 1.1c.1.1.4.2.6 0 .1-.2 1.1-1.1 1.1-1.1zM29.5 16.8l.2.2c.4.4 1 .4 1.4 0l.2-.2c.4-.4.4-1 0-1.4l-.2-.2c-.4-.4-1-.4-1.4 0l-.2.2c-.4.4-.4 1 0 1.4zM21.9 14.1l.2.2c.4.4 1 .4 1.4 0l.2-.2c.4-.4.4-1 0-1.4l-.2-.2c-.4-.4-1-.4-1.4 0l-.2.2c-.4.4-.4 1 0 1.4zM19.7 16.2l.2.2c.4.4 1 .4 1.4 0l.2-.2c.4-.4.4-1 0-1.4l-.2-.2c-.4-.4-1-.4-1.4 0l-.2.2c-.4.4-.4 1.1 0 1.4zM17.5 18.5l.2.2c.4.4 1 .4 1.4 0l.2-.2c.4-.4.4-1 0-1.4l-.2-.2c-.4-.4-1-.4-1.4 0l-.2.1c-.4.4-.4 1.1 0 1.5zM15.3 20.7l.2.2c.4.4 1 .4 1.4 0l.2-.2c.4-.4.4-1 0-1.4l-.2-.3c-.4-.4-1-.4-1.4 0l-.2.2c-.4.5-.4 1.1 0 1.5zM13.1 22.8l.2.2c.4.4 1 .4 1.4 0l.2-.2c.4-.4.4-1 0-1.4l-.2-.2c-.4-.4-1-.4-1.4 0l-.2.2c-.4.4-.4 1 0 1.4zM10.9 25.1l.2.2c.4.4 1 .4 1.4 0l.2-.2c.4-.4.4-1 0-1.4l-.2-.2c-.4-.4-1-.4-1.4 0l-.2.2c-.4.3-.4 1 0 1.4z" opacity=".85" fill="#008294"/><path d="M19.7 11.8l.2.2c.4.4 1 .4 1.4 0l.2-.2c.4-.4.4-1 0-1.4l-.2-.2c-.4-.4-1-.4-1.4 0l-.2.2c-.4.4-.4 1 0 1.4z" fill="#158598"/><path d="M17.5 14l.2.2c.4.4 1 .4 1.4 0l.2-.2c.4-.4.4-1 0-1.4l-.2-.2c-.4-.4-1-.4-1.4 0l-.2.2c-.4.4-.4 1 0 1.4zM15.3 16.2l.2.2c.4.4 1 .4 1.4 0l.2-.2c.4-.4.4-1 0-1.4l-.1-.2c-.4-.4-1-.4-1.4 0l-.2.2c-.5.4-.5 1-.1 1.4zM13.1 18.4l.2.2c.4.4 1 .4 1.4 0l.2-.2c.4-.4.4-1 0-1.4l-.2-.2c-.4-.4-1-.4-1.4 0l-.2.2c-.4.4-.4 1.1 0 1.4zM10.9 20.6l.2.2c.4.4 1 .4 1.4 0l.2-.2c.4-.4.4-1 0-1.4l-.2-.2c-.4-.4-1-.4-1.4 0l-.2.2c-.4.4-.4 1 0 1.4zM8.7 22.8l.3.2c.4.4 1 .4 1.4 0l.2-.2c.4-.4.4-1 0-1.4l-.2-.2c-.4-.4-1-.4-1.4 0l-.2.2c-.5.4-.5 1-.1 1.4z" opacity=".85" fill="#008294"/><path d="M22.3 48.9l1.4-1.4c.3-.3.6.1.5 0l1.4 1.4s-1.7 1.7-3.3 0zM21.9 45.1l1.4 1.4c.3.3-.1.6 0 .5l-1.4 1.4s-1.7-1.7 0-3.3zM15.7 46.7l1.4-1.4c.3-.3.6.1.5 0l1.4 1.4s-1.7 1.7-3.3 0zM15.2 42.9l1.4 1.4c.3.3-.1.6 0 .5l-1.4 1.4s-1.6-1.7 0-3.3zM9 44.5l1.4-1.4c.3-.3.6.1.5 0l1.4 1.4s-1.7 1.6-3.3 0zM8.6 40.7l1.4 1.4c.3.3-.1.6 0 .5L8.6 44s-1.7-1.7 0-3.3zM28.9 51.1l1.4-1.4c.3-.3.6.1.5 0l1.4 1.4s-1.7 1.6-3.3 0zM28.4 47.2l1.4 1.4c.3.3-.1.6 0 .5l-1.4 1.4s-1.6-1.7 0-3.3zM25.2 47.4l.2.2c.4.4 1 .4 1.4 0l.2-.2c.4-.4.4-1 0-1.4l-.2-.2c-.4-.4-1-.4-1.4 0l-.2.2c-.4.4-.4 1.1 0 1.4zM23 45.2l.2.2c.4.4 1 .4 1.4 0l.2-.2c.4-.4.4-1 0-1.4l-.2-.2c-.4-.4-1-.4-1.4 0l-.2.2c-.4.4-.4 1.1 0 1.4zM20.9 43.1l.2.2c.4.4 1 .4 1.4 0l.2-.2c.4-.4.4-1 0-1.4l-.2-.2c-.4-.4-1-.4-1.4 0l-.2.2c-.4.3-.4 1 0 1.4zM18.7 40.9l.2.2c.4.4 1 .4 1.4 0l.2-.2c.4-.4.4-1 0-1.4l-.2-.2c-.4-.4-1-.4-1.4 0l-.2.2c-.4.4-.4 1 0 1.4zM18.7 45.3l.2.2c.4.4 1 .4 1.4 0l.2-.2c.4-.4.4-1 0-1.4l-.2-.2c-.4-.4-1-.4-1.4 0l-.2.2c-.4.4-.4 1 0 1.4zM16.5 43.1l.2.2c.4.4 1 .4 1.4 0l.2-.2c.4-.4.4-1 0-1.4l-.2-.2c-.4-.4-1-.4-1.4 0l-.2.2c-.4.4-.4 1 0 1.4zM24.7 42.7c1.5-1.5 2.8 0 2.8 0l-1.1 1.1c-.2.2-.4.1-.5 0-.1 0-1.2-1.1-1.2-1.1z" fill="#9e1d21"/><path d="M27.3 41.9c-.3-.3-.9-.8-.9-.9-.1-.1-.3-.2-.5 0l-1.2 1.2c1.2-1.3 2.2-.6 2.6-.3z" fill="#158598"/><path d="M25.9 39.4c1.5-1.5 0-2.8 0-2.8l-1.1 1.1c-.2.2-.1.4 0 .5 0 .2 1.1 1.2 1.1 1.2z" fill="#9e1d21"/><path d="M26.6 36.8c.3.3.8.9.9.9.1.1.2.3 0 .5l-1.2 1.2c1.3-1.2.7-2.2.3-2.6z" fill="#158598"/><path d="M22.5 36.1c1.5-1.5 2.8 0 2.8 0l-1.1 1.1c-.2.2-.4.1-.5 0-.1 0-1.2-1.1-1.2-1.1z" fill="#9e1d21"/><path d="M25.1 35.4c-.3-.3-.9-.8-.9-.9-.1-.1-.3-.2-.5 0l-1.2 1.2c1.3-1.3 2.2-.7 2.6-.3z" fill="#158598"/><path d="M23.6 32.8c1.5-1.5 0-2.8 0-2.8l-1.1 1.1c-.2.2-.1.4 0 .5 0 .2 1.1 1.2 1.1 1.2z" fill="#9e1d21"/><path d="M24.3 30.2c.3.3.8.9.9.9.1.1.2.3 0 .5L24 32.8c1.3-1.2.7-2.2.3-2.6z" fill="#158598"/><path d="M20.2 29.5c1.5-1.5 2.8 0 2.8 0l-1.1 1.1c-.2.2-.4.1-.5 0-.1 0-1.2-1.1-1.2-1.1z" fill="#9e1d21"/><path d="M22.8 28.8c-.3-.3-.9-.8-.9-.9-.1-.1-.3-.2-.5 0-.2.1-1.2 1.1-1.2 1.1 1.3-1.2 2.2-.6 2.6-.2z" opacity=".85" fill="#008294"/><path d="M37.9 33.4c1.5 1.5 2.8 0 2.8 0l-1.1-1.1c-.2-.2-.4-.1-.5 0-.1 0-1.2 1.1-1.2 1.1z" fill="#9e1d21"/><path d="M40.5 34.2c-.3.3-.9.8-.9.9-.1.1-.3.2-.5 0l-1.2-1.2c1.3 1.2 2.2.6 2.6.3z" opacity=".85" fill="#008294"/><path d="M41.2 30.1c1.5 1.5 0 2.8 0 2.8l-1.1-1.1c-.2-.2-.1-.4 0-.5.1-.2 1.1-1.2 1.1-1.2z" fill="#9e1d21"/><path d="M42 32.6c.3-.3.8-.9.9-.9.1-.1.2-.3 0-.5L41.7 30c1.3 1.3.7 2.2.3 2.6z" opacity=".85" fill="#008294"/><path d="M36.1 32.2l.2.2c.4.4 1 .4 1.4 0l.2-.2c.4-.4.4-1 0-1.4l-.2-.2c-.4-.4-1-.4-1.4 0l-.2.2c-.4.3-.4 1 0 1.4zM23 40.9l.2.2c.4.4 1 .4 1.4 0l.2-.2c.4-.4.4-1 0-1.4l-.2-.2c-.4-.4-1-.4-1.4 0l-.2.2c-.4.4-.4 1 0 1.4zM20.8 38.7l.2.2c.4.4 1 .4 1.4 0l.2-.2c.4-.4.4-1 0-1.4l-.2-.2c-.4-.4-1-.4-1.4 0l-.2.2c-.4.4-.4 1.1 0 1.4zM16.4 38.6l.2.2c.4.4 1 .4 1.4 0l.2-.2c.4-.4.4-1 0-1.4l-.2-.3c-.4-.4-1-.4-1.4 0l-.2.2c-.4.5-.4 1.1 0 1.5zM14.2 36.4l.2.2c.4.4 1 .4 1.4 0l.2-.2c.4-.4.4-1 0-1.4l-.2-.2c-.4-.4-1-.4-1.4 0l-.2.2c-.4.4-.4 1.1 0 1.4zM14.2 40.8l.2.2c.4.4 1 .4 1.4 0l.2-.2c.4-.4.4-1 0-1.4l-.2-.2c-.4-.4-1-.4-1.4 0l-.2.2c-.4.4-.4 1.1 0 1.4zM12 38.7l.2.2c.4.4 1 .4 1.4 0l.2-.2c.4-.4.4-1 0-1.4l-.1-.3c-.4-.4-1-.4-1.4 0l-.3.3c-.4.4-.4 1 0 1.4zM12 43.1l.2.2c.4.4 1 .4 1.4 0l.2-.2c.4-.4.4-1 0-1.4l-.2-.2c-.4-.4-1-.4-1.4 0l-.2.1c-.4.4-.4 1.1 0 1.5zM9.8 40.9l.2.2c.4.4 1 .4 1.4 0l.2-.2c.4-.4.4-1 0-1.4l-.2-.2c-.4-.4-1-.4-1.4 0l-.2.2c-.4.4-.4 1 0 1.4zM18.6 36.5l.2.2c.4.4 1 .4 1.4 0l.2-.2c.4-.4.4-1 0-1.4l-.2-.2c-.4-.4-1-.4-1.4 0l-.2.2c-.4.4-.4 1 0 1.4zM16.4 34.3l.2.2c.4.4 1 .4 1.4 0l.2-.2c.4-.4.4-1 0-1.4l-.2-.3c-.4-.4-1-.4-1.4 0l-.2.2c-.4.5-.4 1.1 0 1.5zM20.8 34.3l.2.2c.4.4 1 .4 1.4 0l.2-.2c.4-.4.4-1 0-1.4l-.2-.2c-.4-.4-1-.4-1.4 0l-.2.2c-.4.4-.4 1 0 1.4zM18.5 32.1l.2.2c.4.4 1 .4 1.4 0l.2-.2c.4-.4.4-1 0-1.4l-.2-.2c-.4-.4-1-.4-1.4 0l-.2.2c-.4.4-.4 1 0 1.4zM34 29.9l.2.2c.4.4 1 .4 1.4 0l.2-.2c.4-.4.4-1 0-1.4l-.2-.2c-.4-.4-1-.4-1.4 0l-.2.2c-.4.4-.4 1.1 0 1.4zM31.8 27.8l.2.2c.4.4 1 .4 1.4 0l.2-.2c.4-.4.4-1 0-1.4l-.2-.2c-.4-.4-1-.4-1.4 0l-.2.2c-.4.3-.4 1 0 1.4zM29.5 25.5l.2.2c.4.4 1 .4 1.4 0l.2-.2c.4-.4.4-1 0-1.4l-.2-.2c-.4-.4-1-.4-1.4 0l-.2.2c-.4.4-.4 1 0 1.4zM38.3 30.1l.2.2c.4.4 1 .4 1.4 0l.2-.2c.4-.4.4-1 0-1.4l-.1-.3c-.4-.4-1-.4-1.4 0l-.2.2c-.5.4-.5 1.1-.1 1.5zM36.2 27.8l.2.2c.4.4 1 .4 1.4 0l.2-.2c.4-.4.4-1 0-1.4l-.2-.2c-.4-.4-1-.4-1.4 0l-.2.2c-.4.4-.4 1 0 1.4zM34 25.7l.2.2c.4.4 1 .4 1.4 0l.2-.2c.4-.4.4-1 0-1.4l-.2-.3c-.4-.4-1-.4-1.4 0l-.2.3c-.4.3-.4 1 0 1.4zM31.7 23.4l.2.2c.4.4 1 .4 1.4 0l.2-.2c.4-.4.4-1 0-1.4l-.2-.2c-.4-.4-1-.4-1.4 0l-.2.2c-.4.4-.4 1 0 1.4zM29.5 21.1l.2.2c.4.4 1 .4 1.4 0l.2-.2c.4-.4.4-1 0-1.4l-.2-.2c-.4-.4-1-.4-1.4 0l-.2.2c-.4.4-.4 1 0 1.4zM33.8 21.2l.2.2c.4.4 1 .4 1.4 0l.2-.2c.4-.4.4-1 0-1.4l-.2-.2c-.4-.4-1-.4-1.4 0l-.2.2c-.4.4-.4 1.1 0 1.4zM31.6 19l.2.2c.4.4 1 .4 1.4 0l.2-.2c.4-.4.4-1 0-1.4l-.2-.2c-.4-.4-1-.4-1.4 0l-.2.2c-.4.4-.4 1.1 0 1.4zM36 19.1l.2.2c.4.4 1 .4 1.4 0l.2-.2c.4-.4.4-1 0-1.4l-.2-.2c-.4-.4-1-.4-1.4 0l-.2.2c-.4.4-.4 1 0 1.4zM33.8 16.9l.2.2c.4.4 1 .4 1.4 0l.2-.2c.4-.4.4-1 0-1.4l-.2-.2c-.4-.4-1-.4-1.4 0l-.2.2c-.4.3-.4 1 0 1.4zM38.2 16.9l.2.2c.4.4 1 .4 1.4 0l.2-.2c.4-.4.4-1 0-1.4l-.2-.2c-.4-.4-1-.4-1.4 0l-.2.2c-.4.4-.4 1 0 1.4zM38.2 21.3l.2.2c.4.4 1 .4 1.4 0l.2-.2c.4-.4.4-1 0-1.4l-.2-.2c-.4-.4-1-.4-1.4 0l-.2.2c-.4.4-.4 1 0 1.4zM40.4 19.2l.2.2c.4.4 1 .4 1.4 0l.2-.2c.4-.4.4-1 0-1.4l-.2-.2c-.4-.4-1-.4-1.4 0l-.2.2c-.4.4-.4 1 0 1.4zM40.4 23.6l.2.2c.4.4 1 .4 1.4 0l.2-.2c.4-.4.4-1 0-1.4L42 22c-.4-.4-1-.4-1.4 0l-.2.2c-.4.3-.4 1 0 1.4zM42.6 21.3l.2.2c.4.4 1 .4 1.4 0l.2-.2c.4-.4.4-1 0-1.4l-.2-.2c-.4-.4-1-.4-1.4 0l-.2.2c-.4.4-.4 1.1 0 1.4zM42.6 25.7l.2.2c.4.4 1 .4 1.4 0l.2-.2c.4-.4.4-1 0-1.4l-.2-.3c-.4-.4-1-.4-1.4 0l-.2.2c-.4.4-.4 1.1 0 1.5zM44.8 23.5l.2.2c.4.4 1 .4 1.4 0l.2-.2c.4-.4.4-1 0-1.4l-.2-.2c-.4-.4-1-.4-1.4 0l-.2.2c-.4.4-.4 1 0 1.4zM44.8 27.9l.2.2c.4.4 1 .4 1.4 0l.2-.2c.4-.4.4-1 0-1.4l-.2-.2c-.4-.4-1-.4-1.4 0l-.2.2c-.4.3-.4 1 0 1.4zM47 25.7l.2.2c.4.4 1 .4 1.4 0l.2-.2c.4-.4.4-1 0-1.4l-.2-.3c-.4-.4-1-.4-1.4 0l-.2.3c-.4.4-.4 1 0 1.4zM47 30.1l.2.2c.4.4 1 .4 1.4 0l.2-.2c.4-.4.4-1 0-1.4l-.2-.2c-.4-.4-1-.4-1.4 0l-.2.1c-.4.4-.4 1.1 0 1.5zM49.1 27.9l.2.2c.4.4 1 .4 1.4 0l.2-.2c.4-.4.4-1 0-1.4l-.2-.2c-.4-.4-1-.4-1.4 0l-.2.2c-.4.3-.4 1 0 1.4zM49.1 32.2l.2.2c.4.4 1 .4 1.4 0l.2-.2c.4-.4.4-1 0-1.4l-.2-.2c-.4-.4-1-.4-1.4 0l-.2.2c-.4.4-.4 1 0 1.4zM43.1 13.8l-.2.2c-.4.4-1 .4-1.4 0l-.2-.2c-.4-.4-.4-1 0-1.4l.2-.2c.4-.4 1-.4 1.4 0l.2.2c.4.4.4 1 0 1.4zM45.3 16l-.3.2c-.4.4-1 .4-1.4 0l-.2-.2c-.4-.4-.4-1 0-1.4l.2-.2c.4-.4 1-.4 1.4 0l.2.2c.5.3.5 1 .1 1.4zM47.5 18.2l-.2.2c-.4.4-1 .4-1.4 0l-.2-.2c-.4-.4-.4-1 0-1.4l.2-.2c.4-.4 1-.4 1.4 0l.2.2c.4.4.4 1 0 1.4zM49.7 20.4l-.2.2c-.4.4-1 .4-1.4 0l-.2-.2c-.4-.4-.4-1 0-1.4l.2-.2c.4-.4 1-.4 1.4 0l.2.2c.4.4.4 1 0 1.4zM51.9 22.6l-.2.2c-.4.4-1 .4-1.4 0l-.3-.2c-.4-.4-.4-1 0-1.4l.2-.2c.4-.4 1-.4 1.4 0l.2.2c.5.3.5 1 .1 1.4zM54.1 24.8l-.3.2c-.4.4-1 .4-1.4 0l-.2-.2c-.4-.4-.4-1 0-1.4l.2-.2c.4-.4 1-.4 1.4 0l.2.2c.5.3.5 1 .1 1.4zM45.3 11.6l-.2.2c-.4.4-1 .4-1.4 0l-.2-.2c-.4-.4-.4-1 0-1.4l.2-.2c.4-.4 1-.4 1.4 0l.2.2c.4.3.4 1 0 1.4zM47.5 13.7l-.2.3c-.4.4-1 .4-1.4 0l-.2-.2c-.4-.4-.4-1 0-1.4l.2-.2c.4-.4 1-.4 1.4 0l.2.2c.4.3.4.9 0 1.3zM49.7 15.9l-.2.2c-.4.4-1 .4-1.4 0l-.2-.2c-.4-.4-.4-1 0-1.4l.2-.2c.4-.4 1-.4 1.4 0l.2.2c.4.4.4 1 0 1.4zM52 18.2l-.2.2c-.4.4-1 .4-1.4 0l-.2-.2c-.4-.4-.4-1 0-1.4l.2-.2c.4-.4 1-.4 1.4 0l.2.2c.3.3.3 1 0 1.4zM54.1 20.3l-.2.2c-.4.4-1 .4-1.4 0l-.2-.2c-.4-.4-.4-1 0-1.4l.2-.2c.4-.4 1-.4 1.4 0l.2.2c.4.4.4 1 0 1.4zM56.3 22.5l-.2.2c-.4.4-1 .4-1.4 0l-.2-.2c-.4-.4-.4-1 0-1.4l.2-.2c.4-.4 1-.4 1.4 0l.2.2c.4.4.4 1 0 1.4z" fill="#9e1d21"/><path d="M12.1 54.8v6H6s-6 0-6-6v-6h6.1v4.9s0 1.1 1.3 1.1h4.7z" opacity=".9" fill="#9e1d21"/><path d="M54.6 54.8v6h6.2s6 0 6-6v-6h-6.1v4.9s0 1.1-1.3 1.1h-4.8zM12.1 6.2v-6H6s-6 0-6 6v6h6.1V7.3s0-1.1 1.3-1.1h4.7z" opacity=".85" fill="#008294"/><path d="M54.6 6.2v-6h6.2s6 0 6 6v6h-6.1V7.3s0-1.1-1.3-1.1h-4.8z" opacity=".9" fill="#9e1d21"/><path d="M27.4 40.9l.2.2c.4.4 1 .4 1.4 0l.2-.2c.4-.4.4-1 0-1.4l-.2-.3c-.4-.4-1-.4-1.4 0l-.2.2c-.4.5-.4 1.1 0 1.5zM51.4 43.1l.2.2c.4.4 1 .4 1.4 0l.2-.2c.4-.4.4-1 0-1.4l-.2-.2c-.4-.4-1-.4-1.4 0l-.2.2c-.4.3-.4 1 0 1.4zM49.2 40.9l.2.2c.4.4 1 .4 1.4 0l.2-.2c.4-.4.4-1 0-1.4l-.2-.2c-.4-.4-1-.4-1.4 0l-.2.2c-.4.4-.4 1 0 1.4zM47 38.7l.2.2c.4.4 1 .4 1.4 0l.2-.2c.4-.4.4-1 0-1.4l-.2-.2c-.4-.4-1-.4-1.4 0l-.2.2c-.3.4-.3 1 0 1.4z" opacity=".85" fill="#008294"/><path d="M94.2 18.6h4.2v25.7c0 4.1-3.3 6-6.7 6-4.2 0-6.4-2.4-6.4-5.5 0 0 0-1.5.4-2.3h3.8c-.3.6-.3 1.5-.3 1.8 0 1.6 1.2 2.4 2.5 2.4 1.4 0 2.6-.8 2.6-2.6V18.6zm-.8-5c0 1.6 1.2 2.9 2.9 2.9 1.6 0 2.9-1.3 2.9-2.9s-1.3-2.9-2.9-2.9c-1.7 0-2.9 1.3-2.9 2.9z" fill="#36374c"/><g fill="#36374c"><path d="M117.8 37.7c-.7 1-1.7 1.7-2.9 2.2-1.2.5-2.5.7-3.7.7-.8 0-1.6-.1-2.5-.3-.8-.2-1.6-.6-2.2-1.1-.7-.5-1.2-1.1-1.6-1.9-.4-.8-.6-1.7-.6-2.9 0-2.1.7-3.9 2.2-5.1 1.5-1.3 3.7-1.9 6.5-1.9h1.5c.5 0 1 .1 1.5.1s.9.1 1.2.1c.3 0 .6.1.7.1V27c0-1.5-.4-2.5-1.3-3.2-.9-.6-2.1-1-3.7-1-1.5 0-2.7.2-3.6.6-.9.4-1.6.8-2.2 1.3l-1.8-2.6c.3-.3.8-.6 1.2-.9.5-.3 1.1-.5 1.7-.8.7-.2 1.4-.4 2.2-.6.8-.2 1.8-.2 2.9-.2 2.6 0 4.6.6 6.1 1.9 1.5 1.2 2.2 3 2.2 5.3v13.4H118l-.2-2.5zm0-7.1c-.1 0-.3-.1-.7-.1-.3 0-.7-.1-1.1-.1-.4 0-.9-.1-1.4-.1h-1.4c-1.1 0-2 .1-2.6.4-.7.3-1.2.6-1.6 1-.4.4-.6.8-.8 1.3-.1.5-.2.9-.2 1.3 0 1.1.4 1.9 1.1 2.5.7.6 1.8.8 3.1.8.7 0 1.4-.1 2.1-.4.7-.3 1.3-.6 1.8-1s.9-.9 1.2-1.5c.3-.6.5-1.2.5-1.8v-2.3zM128.4 23.4h-3.6v-3.2h3.6v-6.5h3.9v6.5h5.8v3.2h-5.8v9.8c0 1.6.2 2.7.7 3.3.5.6 1.2.9 2.1.9.7 0 1.4-.1 1.8-.3.5-.2 1-.6 1.5-1l1.8 2.4c-.8.8-1.7 1.4-2.5 1.7-.9.4-1.9.5-3.1.5-2.1 0-3.7-.6-4.6-1.7-1-1.1-1.5-2.9-1.5-5.4V23.4zM155.6 37.7c-.7 1-1.7 1.7-2.9 2.2-1.2.5-2.5.7-3.7.7-.8 0-1.6-.1-2.5-.3-.8-.2-1.6-.6-2.2-1.1-.7-.5-1.2-1.1-1.6-1.9-.4-.8-.6-1.7-.6-2.9 0-2.1.7-3.9 2.2-5.1 1.5-1.3 3.7-1.9 6.5-1.9h1.5c.5 0 1 .1 1.5.1s.9.1 1.2.1c.3 0 .6.1.7.1V27c0-1.5-.4-2.5-1.3-3.2-.9-.6-2.1-1-3.7-1-1.5 0-2.7.2-3.6.6-.9.4-1.6.8-2.2 1.3l-1.8-2.6c.3-.3.8-.6 1.2-.9.5-.3 1.1-.5 1.7-.8.7-.2 1.4-.4 2.2-.6.8-.2 1.8-.2 2.9-.2 2.6 0 4.6.6 6.1 1.9 1.5 1.2 2.2 3 2.2 5.3v13.4h-3.6l-.2-2.5zm0-7.1c-.1 0-.3-.1-.7-.1-.3 0-.7-.1-1.1-.1-.4 0-.9-.1-1.4-.1H151c-1.1 0-2 .1-2.6.4-.7.3-1.2.6-1.6 1-.4.4-.6.8-.8 1.3-.1.5-.2.9-.2 1.3 0 1.1.4 1.9 1.1 2.5.7.6 1.8.8 3.1.8.7 0 1.4-.1 2.1-.4.7-.3 1.3-.6 1.8-1s.9-.9 1.2-1.5c.3-.6.5-1.2.5-1.8v-2.3z"/></g><path d="M174.4 39.8v-18-1.9h3.7l.1 3.2c.2-.3.5-.7.9-1.1.4-.4.8-.8 1.4-1.1.5-.3 1.1-.6 1.8-.9.7-.2 1.5-.4 2.4-.4.4 0 .8 0 1.2.1.4.1.7.1 1 .3l-.9 3.6c-.5-.2-1.2-.3-2-.3s-1.6.2-2.3.5c-.7.3-1.3.8-1.8 1.3-.5.6-.9 1.2-1.2 2-.3.7-.5 1.5-.5 2.4V40h-3.8zM189.9 19.8h3.9v11.7c0 1.9.4 3.3 1.2 4.1.8.8 1.9 1.3 3.3 1.3 1.1 0 2-.2 2.8-.7.7-.5 1.3-1.1 1.8-1.8s.8-1.6 1-2.5c.2-.9.3-1.9.3-2.9v-9.3h3.9v19.9h-3.7l-.1-3c-.3.3-.6.7-.9 1.1-.4.4-.8.8-1.4 1.1s-1.2.6-1.9.8c-.7.2-1.5.3-2.4.3-2.6 0-4.5-.8-5.8-2.3-1.2-1.5-1.8-3.6-1.8-6.2V19.8z" fill="#9e1d21"/><path d="M34 38.6l.2.2c.4.4 1 .4 1.4 0l.2-.2c.4-.4.4-1 0-1.4l-.2-.2c-.4-.4-1-.4-1.4 0l-.2.2c-.3.4-.3 1 0 1.4z" opacity=".85" fill="#008294"/></svg>