<?xml version="1.0" encoding="utf-8"?>
<!-- Generator: Adobe Illustrator 19.2.1, SVG Export Plug-In . SVG Version: 6.00 Build 0)  -->
<svg version="1.1" id="Layer_1" xmlns="http://www.w3.org/2000/svg" xmlns:xlink="http://www.w3.org/1999/xlink" x="0px" y="0px"
	 viewBox="0 0 100 91" style="enable-background:new 0 0 100 91;" xml:space="preserve">
<g>
	<path style="opacity:0.85;fill:#008294;enable-background:new    ;" d="M64.4,73c0,0-1.9-1.9-2.2-2.2c-0.3-0.3-0.9,0-0.6,0
		c0.6-0.6-2.2,2.2-2.2,2.2S61.9,75.5,64.4,73z"/>
	<path style="fill:#9E1D21;" d="M42.1,68.7c2.2-2.2,0-4,0-4s-1.5,1.5-1.9,1.9c-0.3,0.3,0,0.6,0,0.6C40.3,67.2,42.1,68.7,42.1,68.7z"
		/>
	<path style="fill:#158598;" d="M43.1,64.7c0.6,0.3,1.2,1.2,1.2,1.2s0.3,0.6,0,0.6c-0.3,0.3-1.9,1.9-1.9,1.9
		C44.6,66.9,43.7,65.3,43.1,64.7z"/>
	<path style="fill:#9E1D21;" d="M42.7,31.9c-2.2,2.2,0,4,0,4l2.2-2.2L42.7,31.9z"/>
	<path style="opacity:0.85;fill:#008294;enable-background:new    ;" d="M42.4,31.3c-2.5,2.5,0,5,0,5L40,33.7L42.4,31.3z"/>
	<path style="opacity:0.85;fill:#008294;enable-background:new    ;" d="M19.8,41.5c-2.2,2.2,0,4,0,4l1.5-1.5c0.3-0.3,0.3-0.6,0-0.9
		C21.1,43,19.8,41.5,19.8,41.5z"/>
	<path style="fill:#9E1D21;" d="M78,41.5c2.2,2.2,0,4,0,4l-2.2-2.2L78,41.5z"/>
	<path style="fill:#9E1D21;" d="M53.3,21.1c2.2-2.2,4,0,4,0l-2.2,2.2L53.3,21.1z"/>
	<path style="opacity:0.85;fill:#008294;enable-background:new    ;" d="M44.3,51.4l0.3,0.3c0.6,0.6,1.5,0.6,2.2,0l0.3-0.3
		c0.6-0.6,0.6-1.5,0-2.2l-0.3-0.3c-0.6-0.6-1.5-0.6-2.2,0l-0.3,0.3C43.7,49.8,43.7,50.8,44.3,51.4z"/>
	<path style="opacity:0.85;fill:#008294;enable-background:new    ;" d="M40.9,54.5l0.3,0.3c0.6,0.6,1.5,0.6,2.2,0l0.3-0.3
		c0.6-0.6,0.6-1.5,0-2.2L43.4,52c-0.6-0.6-1.5-0.6-2.2,0l-0.3,0.3C40.3,53.2,40.3,54.2,40.9,54.5z"/>
	<path style="opacity:0.85;fill:#008294;enable-background:new    ;" d="M37.8,51.4l0.3,0.3c0.6,0.6,1.5,0.6,2.2,0l0.3-0.3
		c0.6-0.6,0.6-1.5,0-2.2l-0.3-0.3c-0.6-0.6-1.5-0.6-2.2,0l-0.3,0.3C37.2,49.8,37.2,50.8,37.8,51.4z"/>
	<path style="opacity:0.85;fill:#008294;enable-background:new    ;" d="M40.9,48l0.3,0.3c0.6,0.6,1.5,0.6,2.2,0l0.3-0.3
		c0.6-0.6,0.6-1.5,0-2.2l-0.3-0.3c-0.6-0.6-1.5-0.6-2.2,0l-0.3,0.3C40.3,46.4,40.3,47.4,40.9,48z"/>
	<path style="opacity:0.85;fill:#008294;enable-background:new    ;" d="M37.5,44.6l0.3,0.3c0.6,0.6,1.5,0.6,2.2,0l0.3-0.3
		c0.6-0.6,0.6-1.5,0-2.2L40,42.1c-0.6-0.6-1.5-0.6-2.2,0l-0.3,0.3C37.2,43.3,37.2,44,37.5,44.6z"/>
	<path style="opacity:0.85;fill:#008294;enable-background:new    ;" d="M34.4,41.5l0.3,0.3c0.6,0.6,1.5,0.6,2.2,0l0.3-0.3
		c0.6-0.6,0.6-1.5,0-2.2L36.9,39c-0.6-0.6-1.5-0.6-2.2,0l-0.3,0.3C33.8,39.9,33.8,40.9,34.4,41.5z"/>
	<path style="opacity:0.85;fill:#008294;enable-background:new    ;" d="M37.8,38.1l0.3,0.3c0.6,0.6,1.5,0.6,2.2,0l0.3-0.3
		c0.6-0.6,0.6-1.5,0-2.2L40,35.6c-0.6-0.6-1.5-0.6-2.2,0l-0.3,0.3C37.2,36.5,37.2,37.5,37.8,38.1z"/>
	<path style="opacity:0.85;fill:#008294;enable-background:new    ;" d="M40.9,41.5l0.3,0.3c0.6,0.6,1.5,0.6,2.2,0l0.3-0.3
		c0.6-0.6,0.6-1.5,0-2.2L43.4,39c-0.6-0.6-1.5-0.6-2.2,0l-0.3,0.3C40.3,39.9,40.3,40.9,40.9,41.5z"/>
	<path style="opacity:0.85;fill:#008294;enable-background:new    ;" d="M44.3,44.6l0.3,0.3c0.6,0.6,1.5,0.6,2.2,0l0.3-0.3
		c0.6-0.6,0.6-1.5,0-2.2l-0.3-0.3c-0.6-0.6-1.5-0.6-2.2,0l-0.3,0.3C43.7,43.3,43.7,44.3,44.3,44.6z"/>
	<path style="fill:#158598;" d="M47.7,48l0.3,0.3c0.6,0.6,1.5,0.6,2.2,0l0.3-0.3c0.6-0.6,0.6-1.5,0-2.2l-0.3-0.3
		c-0.6-0.6-1.5-0.6-2.2,0l-0.3,0.3C47.1,46.4,47.1,47.4,47.7,48z"/>
	<path style="opacity:0.85;fill:#008294;enable-background:new    ;" d="M50.8,51.1l0.3,0.3c0.6,0.6,1.5,0.6,2.2,0l0.3-0.3
		c0.6-0.6,0.6-1.5,0-2.2l-0.3-0.3c-0.6-0.6-1.5-0.6-2.2,0l-0.3,0.3C50.2,49.8,50.2,50.8,50.8,51.1z"/>
	<path style="opacity:0.85;fill:#008294;enable-background:new    ;" d="M54.2,54.5l0.3,0.3c0.6,0.6,1.5,0.6,2.2,0l0.3-0.3
		c0.6-0.6,0.6-1.5,0-2.2L56.7,52c-0.6-0.6-1.5-0.6-2.2,0l-0.3,0.3C53.6,52.9,53.6,53.9,54.2,54.5z"/>
	<path style="opacity:0.85;fill:#008294;enable-background:new    ;" d="M47.4,54.5l0.3,0.3c0.6,0.6,1.5,0.6,2.2,0l0.3-0.3
		c0.6-0.6,0.6-1.5,0-2.2L49.9,52c-0.6-0.6-1.5-0.6-2.2,0l-0.3,0.3C46.8,52.9,46.8,53.9,47.4,54.5z"/>
	<path style="opacity:0.85;fill:#008294;enable-background:new    ;" d="M44.3,57.9l0.3,0.3c0.6,0.6,1.5,0.6,2.2,0l0.3-0.3
		c0.6-0.6,0.6-1.5,0-2.2l-0.3-0.3c-0.6-0.6-1.5-0.6-2.2,0l-0.3,0.3C43.7,56.3,43.7,57.3,44.3,57.9z"/>
	<path style="opacity:0.85;fill:#008294;enable-background:new    ;" d="M47.4,61l0.3,0.3c0.6,0.6,1.5,0.6,2.2,0l0.3-0.3
		c0.6-0.6,0.6-1.5,0-2.2l-0.3-0.3c-0.6-0.6-1.5-0.6-2.2,0l-0.3,0.3C46.8,59.7,46.8,60.7,47.4,61z"/>
	<path style="opacity:0.85;fill:#008294;enable-background:new    ;" d="M44.3,64.4l0.3,0.3c0.6,0.6,1.5,0.6,2.2,0l0.3-0.3
		c0.6-0.6,0.6-1.5,0-2.2l-0.3-0.3c-0.6-0.6-1.5-0.6-2.2,0l-0.3,0.3C43.7,62.8,43.7,63.8,44.3,64.4z"/>
	<path style="opacity:0.85;fill:#008294;enable-background:new    ;" d="M47.4,67.5l0.3,0.3c0.6,0.6,1.5,0.6,2.2,0l0.3-0.3
		c0.6-0.6,0.6-1.5,0-2.2L49.9,65c-0.6-0.6-1.5-0.6-2.2,0l-0.3,0.3C46.8,65.9,46.8,66.9,47.4,67.5z"/>
	<path style="opacity:0.85;fill:#008294;enable-background:new    ;" d="M44.3,70.9l0.3,0.3c0.6,0.6,1.5,0.6,2.2,0l0.3-0.3
		c0.6-0.6,0.6-1.5,0-2.2l-0.3-0.3c-0.6-0.6-1.5-0.6-2.2,0l-0.3,0.3C43.7,69.3,43.7,70.3,44.3,70.9z"/>
	<path style="opacity:0.85;fill:#008294;enable-background:new    ;" d="M47.4,74l0.3,0.3c0.6,0.6,1.5,0.6,2.2,0l0.3-0.3
		c0.6-0.6,0.6-1.5,0-2.2l-0.3-0.3c-0.6-0.6-1.5-0.6-2.2,0l-0.3,0.3C46.8,72.7,46.8,73.7,47.4,74z"/>
	<path style="opacity:0.85;fill:#008294;enable-background:new    ;" d="M50.8,70.9l0.3,0.3c0.6,0.6,1.5,0.6,2.2,0l0.3-0.3
		c0.6-0.6,0.6-1.5,0-2.2l-0.3-0.3c-0.6-0.6-1.5-0.6-2.2,0l-0.3,0.3C50.2,69.3,50.2,70.3,50.8,70.9z"/>
	<path style="opacity:0.85;fill:#008294;enable-background:new    ;" d="M50.8,64.4l0.3,0.3c0.6,0.6,1.5,0.6,2.2,0l0.3-0.3
		c0.6-0.6,0.6-1.5,0-2.2l-0.3-0.3c-0.6-0.6-1.5-0.6-2.2,0l-0.3,0.3C50.2,62.8,50.2,63.8,50.8,64.4z"/>
	<path style="opacity:0.85;fill:#008294;enable-background:new    ;" d="M53.9,67.5l0.3,0.3c0.6,0.6,1.5,0.6,2.2,0l0.3-0.3
		c0.6-0.6,0.6-1.5,0-2.2L56.4,65c-0.6-0.6-1.5-0.6-2.2,0l-0.3,0.3C53.3,66.2,53.3,67.2,53.9,67.5z"/>
	<path style="opacity:0.85;fill:#008294;enable-background:new    ;" d="M57.3,70.9l0.3,0.3c0.6,0.6,1.5,0.6,2.2,0l0.3-0.3
		c0.6-0.6,0.6-1.5,0-2.2l-0.3-0.3c-0.6-0.6-1.5-0.6-2.2,0l-0.3,0.3C56.7,69.3,56.7,70.3,57.3,70.9z"/>
	<path style="opacity:0.85;fill:#008294;enable-background:new    ;" d="M60.4,67.5l0.3,0.3c0.6,0.6,1.5,0.6,2.2,0l0.3-0.3
		c0.6-0.6,0.6-1.5,0-2.2L62.9,65c-0.6-0.6-1.5-0.6-2.2,0l-0.3,0.3C59.8,65.9,59.8,66.9,60.4,67.5z"/>
	<path style="opacity:0.85;fill:#008294;enable-background:new    ;" d="M65,67.5c0,0-1.9,1.9-2.2,2.2c-0.3,0.3,0,0.9,0,0.6
		c-0.6-0.6,2.2,2.2,2.2,2.2S67.5,69.6,65,67.5z"/>
	<path style="opacity:0.85;fill:#008294;enable-background:new    ;" d="M74.3,69.9c0,0-1.9-1.9-2.2-2.2c-0.3-0.3-0.9,0-0.6,0
		c0.6-0.6-2.2,2.2-2.2,2.2S71.8,72.4,74.3,69.9z"/>
	<path style="opacity:0.85;fill:#008294;enable-background:new    ;" d="M74.9,64.1c0,0-1.9,1.9-2.2,2.2c-0.3,0.3,0,0.9,0,0.6
		c-0.6-0.6,2.2,2.2,2.2,2.2S77.4,66.5,74.9,64.1z"/>
	<path style="opacity:0.85;fill:#008294;enable-background:new    ;" d="M84.2,66.5c0,0-1.9-1.9-2.2-2.2c-0.3-0.3-0.9,0-0.6,0
		c0.6-0.6-2.2,2.2-2.2,2.2S81.7,69,84.2,66.5z"/>
	<path style="opacity:0.85;fill:#008294;enable-background:new    ;" d="M84.8,60.7c0,0-1.9,1.9-2.2,2.2c-0.3,0.3,0,0.9,0,0.6
		c-0.6-0.6,2.2,2.2,2.2,2.2S87.3,63.1,84.8,60.7z"/>
	<path style="opacity:0.85;fill:#008294;enable-background:new    ;" d="M54.5,76.1c0,0-1.9-1.9-2.2-2.2c-0.3-0.3-0.9,0-0.6,0
		c0.6-0.6-2.2,2.2-2.2,2.2S52,78.6,54.5,76.1z"/>
	<path style="opacity:0.85;fill:#008294;enable-background:new    ;" d="M55.1,70.6c0,0-1.9,1.9-2.2,2.2c-0.3,0.3,0,0.9,0,0.6
		c-0.6-0.6,2.2,2.2,2.2,2.2S57.6,73,55.1,70.6z"/>
	<path style="opacity:0.85;fill:#008294;enable-background:new    ;" d="M57.3,64.4l0.3,0.3c0.6,0.6,1.5,0.6,2.2,0l0.3-0.3
		c0.6-0.6,0.6-1.5,0-2.2l-0.3-0.3c-0.6-0.6-1.5-0.6-2.2,0l-0.3,0.3C56.7,62.8,56.7,63.8,57.3,64.4z"/>
	<path style="opacity:0.85;fill:#008294;enable-background:new    ;" d="M63.8,64.1l0.3,0.3c0.6,0.6,1.5,0.6,2.2,0l0.3-0.3
		c0.6-0.6,0.6-1.5,0-2.2l-0.3-0.3c-0.6-0.6-1.5-0.6-2.2,0l-0.3,0.3C63.2,62.8,63.2,63.8,63.8,64.1z"/>
	<path style="opacity:0.85;fill:#008294;enable-background:new    ;" d="M67.2,67.5l0.3,0.3c0.6,0.6,1.5,0.6,2.2,0l0.3-0.3
		c0.6-0.6,0.6-1.5,0-2.2L69.7,65c-0.6-0.6-1.5-0.6-2.2,0l-0.3,0.3C66.6,65.9,66.6,66.9,67.2,67.5z"/>
	<path style="opacity:0.85;fill:#008294;enable-background:new    ;" d="M70.3,64.1l0.3,0.3c0.6,0.6,1.5,0.6,2.2,0l0.3-0.3
		c0.6-0.6,0.6-1.5,0-2.2l-0.3-0.3c-0.6-0.6-1.5-0.6-2.2,0l-0.3,0.3C69.7,62.8,69.7,63.8,70.3,64.1z"/>
	<path style="opacity:0.85;fill:#008294;enable-background:new    ;" d="M67.2,61l0.3,0.3c0.6,0.6,1.5,0.6,2.2,0L70,61
		c0.6-0.6,0.6-1.5,0-2.2l-0.3-0.3c-0.6-0.6-1.5-0.6-2.2,0l-0.3,0.3C66.6,59.4,66.6,60.4,67.2,61z"/>
	<path style="opacity:0.85;fill:#008294;enable-background:new    ;" d="M53.9,61l0.3,0.3c0.6,0.6,1.5,0.6,2.2,0l0.3-0.3
		c0.6-0.6,0.6-1.5,0-2.2l-0.3-0.3c-0.6-0.6-1.5-0.6-2.2,0l-0.3,0.3C53.3,59.4,53.3,60.4,53.9,61z"/>
	<path style="opacity:0.85;fill:#008294;enable-background:new    ;" d="M60.7,61l0.3,0.3c0.6,0.6,1.5,0.6,2.2,0l0.3-0.3
		c0.6-0.6,0.6-1.5,0-2.2l-0.3-0.3c-0.6-0.6-1.5-0.6-2.2,0l-0.3,0.3C60.1,59.4,60.1,60.4,60.7,61z"/>
	<path style="opacity:0.85;fill:#008294;enable-background:new    ;" d="M57.3,57.6l0.3,0.3c0.6,0.6,1.5,0.6,2.2,0l0.3-0.3
		c0.6-0.6,0.6-1.5,0-2.2l-0.3-0.3c-0.6-0.6-1.5-0.6-2.2,0l-0.3,0.3C56.7,56.3,56.7,57.3,57.3,57.6z"/>
	<path style="opacity:0.85;fill:#008294;enable-background:new    ;" d="M63.8,57.6l0.3,0.3c0.6,0.6,1.5,0.6,2.2,0l0.3-0.3
		c0.6-0.6,0.6-1.5,0-2.2l-0.3-0.3c-0.6-0.6-1.5-0.6-2.2,0l-0.3,0.3C63.2,56.3,63.2,57.3,63.8,57.6z"/>
	<path style="opacity:0.85;fill:#008294;enable-background:new    ;" d="M60.7,54.5l0.3,0.3c0.6,0.6,1.5,0.6,2.2,0l0.3-0.3
		c0.6-0.6,0.6-1.5,0-2.2L63.2,52c-0.6-0.6-1.5-0.6-2.2,0l-0.3,0.3C60.1,52.9,60.1,53.9,60.7,54.5z"/>
	<path style="opacity:0.85;fill:#008294;enable-background:new    ;" d="M67.2,54.5l0.3,0.3c0.6,0.6,1.5,0.6,2.2,0l0.3-0.3
		c0.6-0.6,0.6-1.5,0-2.2L69.7,52c-0.6-0.6-1.5-0.6-2.2,0l-0.3,0.3C66.6,52.9,66.6,53.9,67.2,54.5z"/>
	<path style="opacity:0.85;fill:#008294;enable-background:new    ;" d="M63.8,51.1l0.3,0.3c0.6,0.6,1.5,0.6,2.2,0l0.3-0.3
		c0.6-0.6,0.6-1.5,0-2.2l-0.3-0.3c-0.6-0.6-1.5-0.6-2.2,0l-0.3,0.3C63.2,49.8,63.2,50.8,63.8,51.1z"/>
	<path style="opacity:0.85;fill:#008294;enable-background:new    ;" d="M70.3,51.1l0.6,0.6c0.6,0.6,1.5,0.6,2.2,0l0.3-0.3
		c0.6-0.6,0.6-1.5,0-2.2l-0.6-0.6c-0.6-0.6-1.5-0.6-2.2,0l-0.3,0.3C69.7,49.8,69.7,50.8,70.3,51.1z"/>
	<path style="opacity:0.85;fill:#008294;enable-background:new    ;" d="M67.2,48l0.3,0.3c0.6,0.6,1.5,0.6,2.2,0L70,48
		c0.6-0.6,0.6-1.5,0-2.2l-0.3-0.3c-0.6-0.6-1.5-0.6-2.2,0l-0.3,0.3C66.6,46.4,66.6,47.4,67.2,48z"/>
	<path style="opacity:0.85;fill:#008294;enable-background:new    ;" d="M79.9,61l0.3,0.3c0.6,0.6,1.5,0.6,2.2,0l0.3-0.3
		c0.6-0.6,0.6-1.5,0-2.2l-0.3-0.3c-0.6-0.6-1.5-0.6-2.2,0l-0.3,0.3C79.6,59.4,79.6,60.4,79.9,61z"/>
	<path style="opacity:0.85;fill:#008294;enable-background:new    ;" d="M76.8,57.6l0.3,0.3c0.6,0.6,1.5,0.6,2.2,0l0.3-0.3
		c0.6-0.6,0.6-1.5,0-2.2l-0.3-0.3c-0.6-0.6-1.5-0.6-2.2,0l-0.3,0.3C76.2,56.3,76.2,57.3,76.8,57.6z"/>
	<path style="opacity:0.85;fill:#008294;enable-background:new    ;" d="M73.7,54.5l0.3,0.3c0.6,0.6,1.5,0.6,2.2,0l0.3-0.3
		c0.6-0.6,0.6-1.5,0-2.2L76.2,52c-0.6-0.6-1.5-0.6-2.2,0l-0.3,0.3C73.1,52.9,73.1,53.9,73.7,54.5z"/>
	<path style="opacity:0.85;fill:#008294;enable-background:new    ;" d="M63.8,44.6l0.3,0.3c0.6,0.6,1.5,0.6,2.2,0l0.3-0.3
		c0.6-0.6,0.6-1.5,0-2.2l-0.3-0.3c-0.6-0.6-1.5-0.6-2.2,0l-0.3,0.3C63.2,43.3,63.2,44.3,63.8,44.6z"/>
	<path style="opacity:0.85;fill:#008294;enable-background:new    ;" d="M57.3,38.4l0.3,0.3c0.6,0.6,1.5,0.6,2.2,0l0.3-0.3
		c0.6-0.6,0.6-1.5,0-2.2l-0.3-0.3c-0.6-0.6-1.5-0.6-2.2,0l-0.3,0.3C56.7,36.8,56.7,37.8,57.3,38.4z"/>
	<path style="opacity:0.85;fill:#008294;enable-background:new    ;" d="M53.9,35l0.3,0.3c0.6,0.6,1.5,0.6,2.2,0l0.3-0.3
		c0.6-0.6,0.6-1.5,0-2.2l-0.3-0.3c-0.6-0.6-1.5-0.6-2.2,0l-0.3,0.3C53.3,33.4,53.3,34.4,53.9,35z"/>
	<path style="opacity:0.85;fill:#008294;enable-background:new    ;" d="M60.7,41.5l0.3,0.3c0.6,0.6,1.5,0.6,2.2,0l0.3-0.3
		c0.6-0.6,0.6-1.5,0-2.2L63.2,39c-0.6-0.6-1.5-0.6-2.2,0l-0.3,0.3C60.1,39.9,60.1,40.9,60.7,41.5z"/>
	<path style="opacity:0.85;fill:#008294;enable-background:new    ;" d="M37.8,25.1l0.3,0.3c0.6,0.6,1.5,0.6,2.2,0l0.3-0.3
		c0.6-0.6,0.6-1.5,0-2.2l-0.3-0.3c-0.6-0.6-1.5-0.6-2.2,0l-0.3,0.3C37.2,23.5,37.2,24.5,37.8,25.1z"/>
	<path style="opacity:0.85;fill:#008294;enable-background:new    ;" d="M34.4,28.2l0.3,0.3c0.6,0.6,1.5,0.6,2.2,0l0.3-0.3
		c0.6-0.6,0.6-1.5,0-2.2l-0.3-0.3c-0.6-0.6-1.5-0.6-2.2,0L34.4,26C33.8,26.9,33.8,27.9,34.4,28.2z"/>
	<path style="opacity:0.85;fill:#008294;enable-background:new    ;" d="M31.3,31.6l0.3,0.3c0.6,0.6,1.5,0.6,2.2,0l0.3-0.3
		c0.6-0.6,0.6-1.5,0-2.2l-0.3-0.3c-0.6-0.6-1.5-0.6-2.2,0l-0.3,0.3C30.7,30,30.7,31,31.3,31.6z"/>
	<path style="opacity:0.85;fill:#008294;enable-background:new    ;" d="M40.9,28.5l0.3,0.3c0.6,0.6,1.5,0.6,2.2,0l0.3-0.3
		c0.6-0.6,0.6-1.5,0-2.2L43.4,26c-0.6-0.6-1.5-0.6-2.2,0l-0.3,0.3C40.3,26.9,40.3,27.9,40.9,28.5z"/>
	<path style="opacity:0.85;fill:#008294;enable-background:new    ;" d="M37.8,31.6l0.3,0.3c0.6,0.6,1.5,0.6,2.2,0l0.3-0.3
		c0.6-0.6,0.6-1.5,0-2.2l-0.3-0.3c-0.6-0.6-1.5-0.6-2.2,0l-0.3,0.3C37.2,30,37.2,31,37.8,31.6z"/>
	<path style="opacity:0.85;fill:#008294;enable-background:new    ;" d="M34.4,35l0.3,0.3c0.6,0.6,1.5,0.6,2.2,0l0.3-0.3
		c0.6-0.6,0.6-1.5,0-2.2l-0.3-0.3c-0.6-0.6-1.5-0.6-2.2,0l-0.3,0.3C33.8,33.4,33.8,34.4,34.4,35z"/>
	<path style="opacity:0.85;fill:#008294;enable-background:new    ;" d="M31,38.1l0.3,0.3c0.6,0.6,1.5,0.6,2.2,0l0.3-0.3
		c0.6-0.6,0.6-1.5,0-2.2l-0.3-0.3c-0.6-0.6-1.5-0.6-2.2,0L31,36.2C30.4,36.8,30.4,37.8,31,38.1z"/>
	<path style="opacity:0.85;fill:#008294;enable-background:new    ;" d="M27.9,41.5l0.3,0.3c0.6,0.6,1.5,0.6,2.2,0l0.3-0.3
		c0.6-0.6,0.6-1.5,0-2.2L30.4,39c-0.6-0.6-1.5-0.6-2.2,0l-0.3,0.3C27.3,39.9,27.3,40.9,27.9,41.5z"/>
	<path style="opacity:0.85;fill:#008294;enable-background:new    ;" d="M24.5,44.6l0.3,0.3c0.6,0.6,1.5,0.6,2.2,0l0.3-0.3
		c0.6-0.6,0.6-1.5,0-2.2L27,42.1c-0.6-0.6-1.5-0.6-2.2,0l-0.3,0.6C23.9,43.3,23.9,44.3,24.5,44.6z"/>
	<path style="opacity:0.85;fill:#008294;enable-background:new    ;" d="M27.9,35l0.3,0.3c0.6,0.6,1.5,0.6,2.2,0l0.3-0.3
		c0.6-0.6,0.6-1.5,0-2.2l-0.3-0.3c-0.6-0.6-1.5-0.6-2.2,0l-0.3,0.3C27.3,33.4,27.3,34.4,27.9,35z"/>
	<path style="opacity:0.85;fill:#008294;enable-background:new    ;" d="M24.5,38.1l0.3,0.3c0.6,0.6,1.5,0.6,2.2,0l0.3-0.3
		c0.6-0.6,0.6-1.5,0-2.2L27,35.6c-0.6-0.6-1.5-0.6-2.2,0l-0.3,0.6C23.9,36.5,23.9,37.5,24.5,38.1z"/>
	<path style="opacity:0.85;fill:#008294;enable-background:new    ;" d="M21.4,41.5l0.3,0.3c0.6,0.6,1.5,0.6,2.2,0l0.3-0.3
		c0.6-0.6,0.6-1.5,0-2.2L23.9,39c-0.6-0.6-1.5-0.6-2.2,0l-0.3,0.3C20.8,39.9,20.8,40.9,21.4,41.5z"/>
	<path style="opacity:0.85;fill:#008294;enable-background:new    ;" d="M21.4,48l0.3,0.3c0.6,0.6,1.5,0.6,2.2,0l0.3-0.3
		c0.6-0.6,0.6-1.5,0-2.2l-0.3-0.3c-0.6-0.6-1.5-0.6-2.2,0l-0.3,0.3C20.8,46.4,20.8,47.4,21.4,48z"/>
	<path style="opacity:0.85;fill:#008294;enable-background:new    ;" d="M44.3,21.1c-2.2-2.2-4,0-4,0l1.5,1.5c0.3,0.3,0.6,0.3,0.9,0
		C43.1,22.6,44.3,21.1,44.3,21.1z"/>
	<path style="opacity:0.85;fill:#008294;enable-background:new    ;" d="M44.3,25.1l0.3,0.3c0.6,0.6,1.5,0.6,2.2,0l0.3-0.3
		c0.6-0.6,0.6-1.5,0-2.2l-0.3-0.3c-0.6-0.6-1.5-0.6-2.2,0l-0.3,0.3C43.7,23.5,43.7,24.5,44.3,25.1z"/>
	<path style="opacity:0.85;fill:#008294;enable-background:new    ;" d="M32.8,21.1l0.3,0.3c0.6,0.6,1.5,0.6,2.2,0l0.3-0.3
		c0.6-0.6,0.6-1.5,0-2.2l-0.3-0.3c-0.6-0.6-1.5-0.6-2.2,0l-0.3,0.3C32.2,19.5,32.2,20.4,32.8,21.1z"/>
	<path style="opacity:0.85;fill:#008294;enable-background:new    ;" d="M29.4,24.1l0.3,0.3c0.6,0.6,1.5,0.6,2.2,0l0.3-0.3
		c0.6-0.6,0.6-1.5,0-2.2l-0.3-0.3c-0.6-0.6-1.5-0.6-2.2,0L29.4,22C29.1,22.6,29.1,23.5,29.4,24.1z"/>
	<path style="opacity:0.85;fill:#008294;enable-background:new    ;" d="M26.3,27.6l0.3,0.3c0.6,0.6,1.5,0.6,2.2,0l0.3-0.3
		c0.6-0.6,0.6-1.5,0-2.2l-0.3-0.3c-0.6-0.6-1.5-0.6-2.2,0l-0.3,0.3C25.7,26,25.7,26.9,26.3,27.6z"/>
	<path style="opacity:0.85;fill:#008294;enable-background:new    ;" d="M22.9,31l0.3,0.3c0.6,0.6,1.5,0.6,2.2,0l0.3-0.3
		c0.6-0.6,0.6-1.5,0-2.2l-0.3-0.3c-0.6-0.6-1.5-0.6-2.2,0l-0.3,0.3C22.3,29.4,22.3,30.3,22.9,31z"/>
	<path style="opacity:0.85;fill:#008294;enable-background:new    ;" d="M19.8,34.1l0.3,0.3c0.6,0.6,1.5,0.6,2.2,0l0.3-0.3
		c0.6-0.6,0.6-1.5,0-2.2l-0.3-0.3c-0.6-0.6-1.5-0.6-2.2,0l-0.3,0.3C19.2,32.5,19.2,33.4,19.8,34.1z"/>
	<path style="opacity:0.85;fill:#008294;enable-background:new    ;" d="M16.4,37.5l0.3,0.3c0.6,0.6,1.5,0.6,2.2,0l0.3-0.3
		c0.6-0.6,0.6-1.5,0-2.2L18.9,35c-0.6-0.6-1.5-0.6-2.2,0l-0.3,0.3C15.8,35.9,15.8,36.8,16.4,37.5z"/>
	<path style="fill:#158598;" d="M29.4,17.7l0.3,0.3c0.6,0.6,1.5,0.6,2.2,0l0.6-0.3c0.6-0.6,0.6-1.5,0-2.2l-0.3-0.3
		c-0.6-0.6-1.5-0.6-2.2,0l-0.3,0.3C28.8,16.1,28.8,17,29.4,17.7z"/>
	<path style="opacity:0.85;fill:#008294;enable-background:new    ;" d="M26.3,20.7l0.3,0.3c0.6,0.6,1.5,0.6,2.2,0l0.3-0.3
		c0.6-0.6,0.6-1.5,0-2.2l-0.3-0.3c-0.6-0.6-1.5-0.6-2.2,0l-0.3,0.3C25.7,19.5,25.7,20.4,26.3,20.7z"/>
	<path style="opacity:0.85;fill:#008294;enable-background:new    ;" d="M22.9,24.1l0.3,0.3c0.6,0.6,1.5,0.6,2.2,0l0.3-0.3
		c0.6-0.6,0.6-1.5,0-2.2l-0.3-0.3c-0.6-0.6-1.5-0.6-2.2,0L22.9,22C22.3,22.6,22.3,23.5,22.9,24.1z"/>
	<path style="opacity:0.85;fill:#008294;enable-background:new    ;" d="M19.5,27.6l0.3,0.3c0.6,0.6,1.5,0.6,2.2,0l0.3-0.3
		c0.6-0.6,0.6-1.5,0-2.2L22,25.1c-0.6-0.6-1.5-0.6-2.2,0l-0.3,0.3C18.9,26,18.9,26.9,19.5,27.6z"/>
	<path style="opacity:0.85;fill:#008294;enable-background:new    ;" d="M16.4,30.6l0.3,0.3c0.6,0.6,1.5,0.6,2.2,0l0.3-0.3
		c0.6-0.6,0.6-1.5,0-2.2l-0.3-0.3c-0.6-0.6-1.5-0.6-2.2,0l-0.3,0.3C15.8,29.1,15.8,30,16.4,30.6z"/>
	<path style="opacity:0.85;fill:#008294;enable-background:new    ;" d="M13,34.1l0.3,0.3c0.6,0.6,1.5,0.6,2.2,0l0.3-0.3
		c0.6-0.6,0.6-1.5,0-2.2l-0.3-0.3c-0.6-0.6-1.5-0.6-2.2,0L13,31.9C12.4,32.5,12.4,33.4,13,34.1z"/>
	<path style="fill:#9E1D21;" d="M33.5,73c0,0,1.9-1.9,2.2-2.2c0.3-0.3,0.9,0,0.6,0c-0.6-0.6,2.2,2.2,2.2,2.2S35.9,75.5,33.5,73z"/>
	<path style="fill:#9E1D21;" d="M32.8,67.2c0,0,1.9,1.9,2.2,2.2c0.3,0.3,0,0.9,0,0.6c0.6-0.6-2.2,2.2-2.2,2.2S30.4,69.6,32.8,67.2z"
		/>
	<path style="fill:#9E1D21;" d="M23.6,69.6c0,0,1.9-1.9,2.2-2.2c0.3-0.3,0.9,0,0.6,0c-0.6-0.6,2.2,2.2,2.2,2.2S26,72.1,23.6,69.6z"
		/>
	<path style="fill:#9E1D21;" d="M22.9,64.1c0,0,1.9,1.9,2.2,2.2c0.3,0.3,0,0.9,0,0.6c0.6-0.6-2.2,2.2-2.2,2.2S20.5,66.5,22.9,64.1z"
		/>
	<path style="fill:#9E1D21;" d="M13.7,66.2c0,0,1.9-1.9,2.2-2.2c0.3-0.3,0.9,0,0.6,0c-0.6-0.6,2.2,2.2,2.2,2.2S16.1,68.7,13.7,66.2z
		"/>
	<path style="fill:#9E1D21;" d="M13,60.7c0,0,1.9,1.9,2.2,2.2s0,0.9,0,0.6c0.6-0.6-2.2,2.2-2.2,2.2S10.6,63.1,13,60.7z"/>
	<path style="fill:#9E1D21;" d="M43.4,76.1c0,0,1.9-1.9,2.2-2.2c0.3-0.3,0.9,0,0.6,0c-0.6-0.6,2.2,2.2,2.2,2.2S45.5,78.6,43.4,76.1z
		"/>
	<path style="fill:#9E1D21;" d="M42.4,70.6c0,0,1.9,1.9,2.2,2.2c0.3,0.3,0,0.9,0,0.6c0.6-0.6-2.2,2.2-2.2,2.2S40,73,42.4,70.6z"/>
	<path style="fill:#9E1D21;" d="M37.8,70.9l0.3,0.3c0.6,0.6,1.5,0.6,2.2,0l0.3-0.3c0.6-0.6,0.6-1.5,0-2.2l-0.3-0.3
		c-0.6-0.6-1.5-0.6-2.2,0l-0.3,0.3C37.2,69.3,37.2,70.3,37.8,70.9z"/>
	<path style="fill:#9E1D21;" d="M34.4,67.5l0.3,0.3c0.6,0.6,1.5,0.6,2.2,0l0.3-0.3c0.6-0.6,0.6-1.5,0-2.2L36.9,65
		c-0.6-0.6-1.5-0.6-2.2,0l-0.3,0.3C33.8,65.9,33.8,66.9,34.4,67.5z"/>
	<path style="fill:#9E1D21;" d="M31.3,64.4l0.3,0.3c0.6,0.6,1.5,0.6,2.2,0l0.3-0.3c0.6-0.6,0.6-1.5,0-2.2l-0.3-0.3
		c-0.6-0.6-1.5-0.6-2.2,0l-0.3,0.3C30.7,62.8,30.7,63.8,31.3,64.4z"/>
	<path style="fill:#9E1D21;" d="M27.9,61l0.3,0.3c0.6,0.6,1.5,0.6,2.2,0l0.3-0.3c0.6-0.6,0.6-1.5,0-2.2l-0.3-0.3
		c-0.6-0.6-1.5-0.6-2.2,0l-0.3,0.3C27.3,59.4,27.3,60.4,27.9,61z"/>
	<path style="fill:#9E1D21;" d="M27.9,67.5l0.3,0.3c0.6,0.6,1.5,0.6,2.2,0l0.3-0.3c0.6-0.6,0.6-1.5,0-2.2L30.4,65
		c-0.6-0.6-1.5-0.6-2.2,0l-0.3,0.3C27.3,65.9,27.3,66.9,27.9,67.5z"/>
	<path style="fill:#9E1D21;" d="M24.8,64.4l0.3,0.3c0.6,0.6,1.5,0.6,2.2,0l0.3-0.3c0.6-0.6,0.6-1.5,0-2.2l-0.3-0.3
		c-0.6-0.6-1.5-0.6-2.2,0l-0.3,0.3C24.2,62.8,24.2,63.8,24.8,64.4z"/>
	<path style="fill:#9E1D21;" d="M37.2,63.8c2.2-2.2,4,0,4,0s-1.5,1.5-1.9,1.9s-0.6,0-0.6,0C38.7,65.3,37.2,63.8,37.2,63.8z"/>
	<path style="fill:#158598;" d="M40.9,62.5c-0.3-0.6-1.2-1.2-1.2-1.2S39,61,39,61.3c-0.3,0.3-1.9,1.9-1.9,1.9
		C39,61,40.3,61.9,40.9,62.5z"/>
	<path style="fill:#9E1D21;" d="M38.7,58.8c2.2-2.2,0-4,0-4s-1.5,1.5-1.9,1.9c-0.3,0.3,0,0.6,0,0.6C37.2,57.3,38.7,58.8,38.7,58.8z"
		/>
	<path style="fill:#158598;" d="M40,55.1c0.6,0.3,1.2,1.2,1.2,1.2s0.3,0.6,0,0.6c-0.3,0.3-1.9,1.9-1.9,1.9
		C41.5,56.9,40.6,55.7,40,55.1z"/>
	<path style="fill:#9E1D21;" d="M33.8,53.9c2.2-2.2,4,0,4,0s-1.5,1.5-1.9,1.9s-0.6,0-0.6,0C35.3,55.4,33.8,53.9,33.8,53.9z"/>
	<path style="fill:#158598;" d="M37.5,52.9c-0.3-0.6-1.2-1.2-1.2-1.2s-0.6-0.3-0.6,0c-0.3,0-1.9,1.5-1.9,1.5
		C35.6,51.4,37.2,52.3,37.5,52.9z"/>
	<path style="fill:#9E1D21;" d="M35.3,48.9c2.2-2.2,0-4,0-4s-1.5,1.5-1.9,1.9c-0.3,0.3,0,0.6,0,0.6C33.8,47.4,35.3,48.9,35.3,48.9z"
		/>
	<path style="fill:#158598;" d="M36.6,45.2c0.6,0.3,1.2,1.2,1.2,1.2s0.3,0.6,0,0.6c-0.3,0.3-1.9,1.9-1.9,1.9
		C38.1,47,37.2,45.8,36.6,45.2z"/>
	<path style="fill:#9E1D21;" d="M30.4,44c2.2-2.2,4,0,4,0s-1.5,1.5-1.9,1.9c-0.3,0.3-0.6,0-0.6,0L30.4,44z"/>
	<path style="opacity:0.85;fill:#008294;enable-background:new    ;" d="M34.1,43c-0.3-0.6-1.2-1.2-1.2-1.2s-0.6-0.3-0.6,0
		c-0.3,0.3-1.9,1.9-1.9,1.9C32.2,41.5,33.8,42.4,34.1,43z"/>
	<path style="fill:#9E1D21;" d="M56.7,49.8c2.2,2.2,4,0,4,0s-1.5-1.5-1.9-1.9c-0.3-0.3-0.6,0-0.6,0C58.2,48.3,56.7,49.8,56.7,49.8z"
		/>
	<path style="opacity:0.85;fill:#008294;enable-background:new    ;" d="M60.7,51.1c-0.3,0.6-1.2,1.2-1.2,1.2s-0.6,0.3-0.6,0
		C58.5,52,57,50.5,57,50.5C58.5,52.3,60.1,51.7,60.7,51.1z"/>
	<path style="fill:#9E1D21;" d="M61.6,44.9c2.2,2.2,0,4,0,4s-1.5-1.5-1.9-1.9c-0.3-0.3,0-0.6,0-0.6C60.1,46.4,61.6,44.9,61.6,44.9z"
		/>
	<path style="opacity:0.85;fill:#008294;enable-background:new    ;" d="M62.9,48.6c0.6-0.3,1.2-1.2,1.2-1.2s0.3-0.6,0-0.6
		c-0.3-0.3-1.9-1.9-1.9-1.9C64.4,46.7,63.5,48,62.9,48.6z"/>
	<path style="fill:#9E1D21;" d="M54.2,48l0.3,0.3c0.6,0.6,1.5,0.6,2.2,0L57,48c0.6-0.6,0.6-1.5,0-2.2l-0.3-0.3
		c-0.6-0.6-1.5-0.6-2.2,0l-0.3,0.3C53.6,46.4,53.6,47.4,54.2,48z"/>
	<path style="fill:#9E1D21;" d="M34.4,61l0.3,0.3c0.6,0.6,1.5,0.6,2.2,0l0.3-0.3c0.6-0.6,0.6-1.5,0-2.2l-0.3-0.3
		c-0.6-0.6-1.5-0.6-2.2,0l-0.3,0.3C33.8,59.4,33.8,60.4,34.4,61z"/>
	<path style="fill:#9E1D21;" d="M31.3,57.9l0.3,0.3c0.6,0.6,1.5,0.6,2.2,0l0.3-0.3c0.6-0.6,0.6-1.5,0-2.2l-0.3-0.3
		c-0.6-0.6-1.5-0.6-2.2,0l-0.3,0.3C30.7,56.3,30.7,57.3,31.3,57.9z"/>
	<path style="fill:#9E1D21;" d="M24.5,57.6l0.3,0.3c0.6,0.6,1.5,0.6,2.2,0l0.3-0.3c0.6-0.6,0.6-1.5,0-2.2L27,55.1
		c-0.6-0.6-1.5-0.6-2.2,0l-0.3,0.3C23.9,56,23.9,56.9,24.5,57.6z"/>
	<path style="fill:#9E1D21;" d="M21.4,54.5l0.3,0.3c0.6,0.6,1.5,0.6,2.2,0l0.3-0.3c0.6-0.6,0.6-1.5,0-2.2L23.9,52
		c-0.6-0.6-1.5-0.6-2.2,0l-0.3,0.3C20.8,52.9,20.8,53.9,21.4,54.5z"/>
	<path style="fill:#9E1D21;" d="M21.4,61l0.3,0.3c0.6,0.6,1.5,0.6,2.2,0l0.3-0.3c0.6-0.6,0.6-1.5,0-2.2l-0.3-0.3
		c-0.6-0.6-1.5-0.6-2.2,0l-0.3,0.3C20.8,59.4,20.8,60.4,21.4,61z"/>
	<path style="fill:#9E1D21;" d="M18,57.6l0.3,0.3c0.6,0.6,1.5,0.6,2.2,0l0.3-0.3c0.6-0.6,0.6-1.5,0-2.2l-0.3-0.3
		c-0.6-0.6-1.5-0.6-2.2,0L18,55.4C17.4,56.3,17.4,57.3,18,57.6z"/>
	<path style="fill:#9E1D21;" d="M18,64.4l0.3,0.3c0.6,0.6,1.5,0.6,2.2,0l0.3-0.3c0.6-0.6,0.6-1.5,0-2.2l-0.3-0.3
		c-0.6-0.6-1.5-0.6-2.2,0L18,62.2C17.4,62.8,17.4,63.8,18,64.4z"/>
	<path style="fill:#9E1D21;" d="M14.6,61l0.3,0.3c0.6,0.6,1.5,0.6,2.2,0l0.3-0.3c0.6-0.6,0.6-1.5,0-2.2l-0.3-0.3
		c-0.6-0.6-1.5-0.6-2.2,0l-0.3,0.3C14.3,59.4,14.3,60.4,14.6,61z"/>
	<path style="fill:#9E1D21;" d="M27.9,54.5l0.3,0.3c0.6,0.6,1.5,0.6,2.2,0l0.3-0.3c0.6-0.6,0.6-1.5,0-2.2L30.4,52
		c-0.6-0.6-1.5-0.6-2.2,0l-0.3,0.3C27.3,52.9,27.3,53.9,27.9,54.5z"/>
	<path style="fill:#9E1D21;" d="M24.5,51.1l0.3,0.3c0.6,0.6,1.5,0.6,2.2,0l0.3-0.3c0.6-0.6,0.6-1.5,0-2.2L27,48.6
		c-0.6-0.6-1.5-0.6-2.2,0l-0.3,0.6C23.9,49.8,23.9,50.5,24.5,51.1z"/>
	<path style="fill:#9E1D21;" d="M31.3,51.1l0.3,0.3c0.6,0.6,1.5,0.6,2.2,0l0.3-0.3c0.6-0.6,0.6-1.5,0-2.2l-0.3-0.3
		c-0.6-0.6-1.5-0.6-2.2,0l-0.3,0.3C30.7,49.8,30.7,50.8,31.3,51.1z"/>
	<path style="fill:#9E1D21;" d="M27.9,48l0.3,0.3c0.6,0.6,1.5,0.6,2.2,0l0.3-0.3c0.6-0.6,0.6-1.5,0-2.2l-0.3-0.3
		c-0.6-0.6-1.5-0.6-2.2,0l-0.3,0.3C27.3,46.4,27.3,47.4,27.9,48z"/>
	<path style="fill:#9E1D21;" d="M50.8,44.6l0.3,0.3c0.6,0.6,1.5,0.6,2.2,0l0.3-0.3c0.6-0.6,0.6-1.5,0-2.2l-0.3-0.3
		c-0.6-0.6-1.5-0.6-2.2,0l-0.3,0.3C50.2,43.3,50.2,44,50.8,44.6z"/>
	<path style="fill:#9E1D21;" d="M47.7,41.5l0.3,0.3c0.6,0.6,1.5,0.6,2.2,0l0.3-0.3c0.6-0.6,0.6-1.5,0-2.2L50.2,39
		c-0.6-0.6-1.5-0.6-2.2,0l-0.3,0.3C47.1,39.9,47.1,40.9,47.7,41.5z"/>
	<path style="fill:#9E1D21;" d="M44.3,38.1l0.3,0.3c0.6,0.6,1.5,0.6,2.2,0l0.3-0.3c0.6-0.6,0.6-1.5,0-2.2l-0.3-0.3
		c-0.6-0.6-1.5-0.6-2.2,0l-0.3,0.3C43.7,36.5,43.7,37.5,44.3,38.1z"/>
	<path style="fill:#9E1D21;" d="M57.3,44.9l0.3,0.3c0.6,0.6,1.5,0.6,2.2,0l0.3-0.3c0.6-0.6,0.6-1.5,0-2.2l-0.3-0.3
		c-0.6-0.6-1.5-0.6-2.2,0l-0.3,0.3C56.7,43.3,56.7,44.3,57.3,44.9z"/>
	<path style="fill:#9E1D21;" d="M54.2,41.5l0.3,0.3c0.6,0.6,1.5,0.6,2.2,0l0.3-0.3c0.6-0.6,0.6-1.5,0-2.2L56.7,39
		c-0.6-0.6-1.5-0.6-2.2,0l-0.3,0.3C53.6,39.9,53.6,40.9,54.2,41.5z"/>
	<path style="fill:#9E1D21;" d="M50.8,38.4l0.3,0.3c0.6,0.6,1.5,0.6,2.2,0l0.3-0.3c0.6-0.6,0.6-1.5,0-2.2l-0.3-0.3
		c-0.6-0.6-1.5-0.6-2.2,0l-0.3,0.3C50.2,36.8,50.2,37.8,50.8,38.4z"/>
	<path style="fill:#9E1D21;" d="M47.4,35l0.3,0.3c0.6,0.6,1.5,0.6,2.2,0l0.3-0.3c0.6-0.6,0.6-1.5,0-2.2l-0.3-0.3
		c-0.6-0.6-1.5-0.6-2.2,0l-0.3,0.3C46.8,33.4,46.8,34.4,47.4,35z"/>
	<path style="fill:#9E1D21;" d="M44.3,31.6l0.3,0.3c0.6,0.6,1.5,0.6,2.2,0l0.3-0.3c0.6-0.6,0.6-1.5,0-2.2l-0.3-0.3
		c-0.6-0.6-1.5-0.6-2.2,0l-0.3,0.3C43.7,30,43.7,31,44.3,31.6z"/>
	<path style="fill:#9E1D21;" d="M50.5,31.6l0.3,0.3c0.6,0.6,1.5,0.6,2.2,0l0.3-0.3c0.6-0.6,0.6-1.5,0-2.2L53,29.1
		c-0.6-0.6-1.5-0.6-2.2,0l-0.3,0.3C49.9,30.3,49.9,31.3,50.5,31.6z"/>
	<path style="fill:#9E1D21;" d="M47.4,28.5l0.3,0.3c0.6,0.6,1.5,0.6,2.2,0l0.3-0.3c0.6-0.6,0.6-1.5,0-2.2L49.9,26
		c-0.6-0.6-1.5-0.6-2.2,0l-0.3,0.3C46.8,26.9,46.8,27.9,47.4,28.5z"/>
	<path style="fill:#9E1D21;" d="M53.9,28.5l0.3,0.3c0.6,0.6,1.5,0.6,2.2,0l0.3-0.3c0.6-0.6,0.6-1.5,0-2.2L56.4,26
		c-0.6-0.6-1.5-0.6-2.2,0l-0.3,0.3C53.3,26.9,53.3,27.9,53.9,28.5z"/>
	<path style="fill:#9E1D21;" d="M50.5,25.1l0.3,0.3c0.6,0.6,1.5,0.6,2.2,0l0.3-0.3c0.6-0.6,0.6-1.5,0-2.2L53,22.6
		c-0.6-0.6-1.5-0.6-2.2,0l-0.3,0.3C49.9,23.5,49.9,24.5,50.5,25.1z"/>
	<path style="fill:#9E1D21;" d="M57,25.1l0.3,0.3c0.6,0.6,1.5,0.6,2.2,0l0.3-0.3c0.6-0.6,0.6-1.5,0-2.2l-0.3-0.3
		c-0.6-0.6-1.5-0.6-2.2,0L57,22.9C56.4,23.8,56.4,24.8,57,25.1z"/>
	<path style="fill:#9E1D21;" d="M57.3,31.9l0.3,0.3c0.6,0.6,1.5,0.6,2.2,0l0.3-0.3c0.6-0.6,0.6-1.5,0-2.2l-0.3-0.3
		c-0.6-0.6-1.5-0.6-2.2,0l-0.3,0.3C56.7,30.3,56.7,31.3,57.3,31.9z"/>
	<path style="fill:#9E1D21;" d="M60.4,28.5l0.3,0.3c0.6,0.6,1.5,0.6,2.2,0l0.3-0.3c0.6-0.6,0.6-1.5,0-2.2L62.9,26
		c-0.6-0.6-1.5-0.6-2.2,0l-0.3,0.3C59.8,27.2,59.8,28.2,60.4,28.5z"/>
	<path style="fill:#9E1D21;" d="M60.4,35l0.3,0.3c0.6,0.6,1.5,0.6,2.2,0l0.3-0.3c0.6-0.6,0.6-1.5,0-2.2l-0.3-0.3
		c-0.6-0.6-1.5-0.6-2.2,0l-0.3,0.6C59.8,33.7,59.8,34.7,60.4,35z"/>
	<path style="fill:#9E1D21;" d="M63.8,31.9l0.3,0.3c0.6,0.6,1.5,0.6,2.2,0l0.3-0.3c0.6-0.6,0.6-1.5,0-2.2l-0.3-0.3
		c-0.6-0.6-1.5-0.6-2.2,0l-0.3,0.3C63.2,30.3,63.2,31.3,63.8,31.9z"/>
	<path style="fill:#9E1D21;" d="M63.8,38.4l0.3,0.3c0.6,0.6,1.5,0.6,2.2,0l0.3-0.3c0.6-0.6,0.6-1.5,0-2.2l-0.3-0.3
		c-0.6-0.6-1.5-0.6-2.2,0l-0.3,0.3C63.2,36.8,63.2,37.8,63.8,38.4z"/>
	<path style="fill:#9E1D21;" d="M66.9,35l0.3,0.3c0.6,0.6,1.5,0.6,2.2,0l0.3-0.3c0.6-0.6,0.6-1.5,0-2.2l-0.3-0.3
		c-0.6-0.6-1.5-0.6-2.2,0l-0.3,0.6C66.3,33.4,66.3,34.4,66.9,35z"/>
	<path style="fill:#9E1D21;" d="M66.9,41.5l0.3,0.3c0.6,0.6,1.5,0.6,2.2,0l0.3-0.3c0.6-0.6,0.6-1.5,0-2.2L69.4,39
		c-0.6-0.6-1.5-0.6-2.2,0l-0.3,0.3C66.3,39.9,66.3,40.9,66.9,41.5z"/>
	<path style="fill:#9E1D21;" d="M70.3,38.4l0.3,0.3c0.6,0.6,1.5,0.6,2.2,0l0.3-0.3c0.6-0.6,0.6-1.5,0-2.2l-0.3-0.3
		c-0.6-0.6-1.5-0.6-2.2,0l-0.3,0.3C69.7,36.8,69.7,37.8,70.3,38.4z"/>
	<path style="fill:#9E1D21;" d="M70.3,44.9l0.3,0.3c0.6,0.6,1.5,0.6,2.2,0l0.3-0.3c0.6-0.6,0.6-1.5,0-2.2l-0.3-0.3
		c-0.6-0.6-1.5-0.6-2.2,0l-0.3,0.3C69.7,43.3,69.7,44.3,70.3,44.9z"/>
	<path style="fill:#9E1D21;" d="M73.4,41.5l0.3,0.3c0.6,0.6,1.5,0.6,2.2,0l0.3-0.3c0.6-0.6,0.6-1.5,0-2.2L75.9,39
		c-0.6-0.6-1.5-0.6-2.2,0l-0.3,0.3C72.8,39.9,72.8,40.9,73.4,41.5z"/>
	<path style="fill:#9E1D21;" d="M73.4,48l0.6,0.6c0.6,0.6,1.5,0.6,2.2,0l0.3-0.3c0.6-0.6,0.6-1.5,0-2.2l-0.6-0.6
		c-0.6-0.6-1.5-0.6-2.2,0l-0.3,0.3C72.8,46.4,72.8,47.4,73.4,48z"/>
	<path style="fill:#9E1D21;" d="M64.4,20.4l-0.3,0.3c-0.6,0.6-1.5,0.6-2.2,0l-0.3-0.3c-0.6-0.6-0.6-1.5,0-2.2l0.3-0.3
		c0.6-0.6,1.5-0.6,2.2,0l0.3,0.3C65,19.2,65,20.1,64.4,20.4z"/>
	<path style="fill:#9E1D21;" d="M67.8,23.8l-0.3,0.3c-0.6,0.6-1.5,0.6-2.2,0L65,23.8c-0.6-0.6-0.6-1.5,0-2.2l0.3-0.3
		c0.6-0.6,1.5-0.6,2.2,0l0.3,0.3C68.4,22.3,68.4,23.2,67.8,23.8z"/>
	<path style="fill:#9E1D21;" d="M70.9,27.2l-0.3,0.3c-0.6,0.6-1.5,0.6-2.2,0l-0.3-0.3c-0.6-0.6-0.6-1.5,0-2.2l0.3-0.3
		c0.6-0.6,1.5-0.6,2.2,0l0.3,0.3C71.5,25.7,71.5,26.6,70.9,27.2z"/>
	<path style="fill:#9E1D21;" d="M74.3,30.3L74,31c-0.6,0.6-1.5,0.6-2.2,0l-0.3-0.3c-0.6-0.6-0.6-1.5,0-2.2l0.3-0.3
		c0.6-0.6,1.5-0.6,2.2,0l0.3,0.3C74.9,29.1,74.9,30,74.3,30.3z"/>
	<path style="fill:#9E1D21;" d="M77.7,33.7L77.1,34c-0.6,0.6-1.5,0.6-2.2,0l-0.3-0.3c-0.6-0.6-0.6-1.5,0-2.2l0.3-0.3
		c0.6-0.6,1.5-0.6,2.2,0l0.3,0.3C78.3,32.2,78.3,33.1,77.7,33.7z"/>
	<path style="fill:#9E1D21;" d="M80.8,36.8l-0.3,0.3c-0.6,0.6-1.5,0.6-2.2,0L78,36.8c-0.6-0.6-0.6-1.5,0-2.2l0.3-0.3
		c0.6-0.6,1.5-0.6,2.2,0l0.3,0.3C81.4,35.6,81.4,36.5,80.8,36.8z"/>
	<path style="fill:#9E1D21;" d="M67.8,17.3l-0.3,0.3c-0.6,0.6-1.5,0.6-2.2,0L65,17.3c-0.6-0.6-0.6-1.5,0-2.2l0.3-0.3
		c0.6-0.6,1.5-0.6,2.2,0l0.3,0.3C68.4,15.8,68.4,16.7,67.8,17.3z"/>
	<path style="fill:#9E1D21;" d="M71.2,20.4l-0.6,0.3c-0.6,0.6-1.5,0.6-2.2,0l-0.3-0.3c-0.6-0.6-0.6-1.5,0-2.2l0.3-0.3
		c0.6-0.6,1.5-0.6,2.2,0l0.3,0.3C71.5,18.9,71.5,19.8,71.2,20.4z"/>
	<path style="fill:#9E1D21;" d="M74.3,23.8L74,24.1c-0.6,0.6-1.5,0.6-2.2,0l-0.3-0.3c-0.6-0.6-0.6-1.5,0-2.2l0.3-0.3
		c0.6-0.6,1.5-0.6,2.2,0l0.3,0.3C74.9,22.3,74.9,23.2,74.3,23.8z"/>
	<path style="fill:#9E1D21;" d="M77.7,26.9l-0.3,0.3c-0.6,0.6-1.5,0.6-2.2,0l-0.3-0.3c-0.6-0.6-0.6-1.5,0-2.2l0.3-0.3
		c0.6-0.6,1.5-0.6,2.2,0l0.3,0.3C78.3,25.7,78.3,26.6,77.7,26.9z"/>
	<path style="fill:#9E1D21;" d="M80.8,30.3l-0.3,0.3c-0.6,0.6-1.5,0.6-2.2,0L78,30.3c-0.6-0.6-0.6-1.5,0-2.2l0.3-0.3
		c0.6-0.6,1.5-0.6,2.2,0l0.3,0.3C81.4,28.8,81.4,29.7,80.8,30.3z"/>
	<path style="fill:#9E1D21;" d="M84.2,33.7L83.9,34c-0.6,0.6-1.5,0.6-2.2,0l-0.3-0.3c-0.6-0.6-0.6-1.5,0-2.2l0.3-0.3
		c0.6-0.6,1.5-0.6,2.2,0l0.3,0.3C84.8,32.2,84.8,33.1,84.2,33.7z"/>
	<path style="opacity:0.9;fill:#9E1D21;enable-background:new    ;" d="M18.3,81.7v9H9c0,0-9,0-9-9s0-9,0-9h9v7.4c0,0,0,1.5,1.9,1.5
		C13,81.7,18.3,81.7,18.3,81.7z"/>
	<path style="opacity:0.85;fill:#008294;enable-background:new    ;" d="M81.7,81.7v9H91c0,0,9,0,9-9s0-9,0-9h-9v7.4
		c0,0,0,1.5-1.9,1.5C87,81.7,81.7,81.7,81.7,81.7z"/>
	<path style="opacity:0.85;fill:#008294;enable-background:new    ;" d="M18.3,9.3v-9H9c0,0-9,0-9,9s0,9,0,9h9v-7.4
		c0,0,0-1.5,1.9-1.5S18.3,9.3,18.3,9.3z"/>
	<path style="opacity:0.9;fill:#9E1D21;enable-background:new    ;" d="M81.7,9.3v-9H91c0,0,9,0,9,9s0,9,0,9h-9v-7.4
		c0,0,0-1.5-1.9-1.5C87.3,9.3,81.7,9.3,81.7,9.3z"/>
	<path style="opacity:0.85;fill:#008294;enable-background:new    ;" d="M40.9,61l0.3,0.3c0.6,0.6,1.5,0.6,2.2,0l0.3-0.3
		c0.6-0.6,0.6-1.5,0-2.2l-0.3-0.3c-0.6-0.6-1.5-0.6-2.2,0l-0.3,0.3C40.3,59.4,40.3,60.4,40.9,61z"/>
	<path style="opacity:0.85;fill:#008294;enable-background:new    ;" d="M76.8,64.4l0.3,0.3c0.6,0.6,1.5,0.6,2.2,0l0.3-0.3
		c0.6-0.6,0.6-1.5,0-2.2l-0.3-0.3c-0.6-0.6-1.5-0.6-2.2,0l-0.3,0.3C76.2,62.8,76.2,63.8,76.8,64.4z"/>
	<path style="opacity:0.85;fill:#008294;enable-background:new    ;" d="M73.7,61l0.3,0.3c0.6,0.6,1.5,0.6,2.2,0l0.3-0.3
		c0.6-0.6,0.6-1.5,0-2.2l-0.3-0.3c-0.6-0.6-1.5-0.6-2.2,0l-0.3,0.3C73.1,59.4,73.1,60.4,73.7,61z"/>
	<path style="opacity:0.85;fill:#008294;enable-background:new    ;" d="M70.3,57.9l0.3,0.3c0.6,0.6,1.5,0.6,2.2,0l0.3-0.3
		c0.6-0.6,0.6-1.5,0-2.2l-0.3-0.3c-0.6-0.6-1.5-0.6-2.2,0l-0.3,0.3C69.7,56.3,69.7,57.3,70.3,57.9z"/>
	<path style="opacity:0.85;fill:#008294;enable-background:new    ;" d="M50.8,57.6l0.3,0.3c0.6,0.6,1.5,0.6,2.2,0l0.3-0.3
		c0.6-0.6,0.6-1.5,0-2.2l-0.3-0.3c-0.6-0.6-1.5-0.6-2.2,0l-0.3,0.3C50.5,56,50.5,56.9,50.8,57.6z"/>
</g>
</svg>
